<svg width="109" height="37" viewBox="0 0 109 37" fill="none" xmlns="http://www.w3.org/2000/svg">
<g clip-path="url(#clip0_7090_8385)">
<mask id="mask0_7090_8385" style="mask-type:luminance" maskUnits="userSpaceOnUse" x="0" y="0" width="109" height="37">
<path d="M108.094 0.824219H0.400391V36.8242H108.094V0.824219Z" fill="white"/>
</mask>
<g mask="url(#mask0_7090_8385)">
<path d="M99.5174 0.824219H8.97739C8.65339 0.824219 8.32939 0.824219 7.99639 0.824219C7.71739 0.824219 7.44739 0.833219 7.16839 0.833219C6.56539 0.851219 5.96239 0.887219 5.36839 0.995219C4.76539 1.10322 4.20739 1.28322 3.65839 1.56222C3.11839 1.83222 2.62339 2.19222 2.20039 2.62422C1.76839 3.04722 1.40839 3.54222 1.13839 4.08222C0.859391 4.63122 0.679391 5.18922 0.571391 5.79222C0.463391 6.38622 0.427391 6.98922 0.409391 7.59222C0.409391 7.87122 0.400391 8.15022 0.400391 8.42022C0.400391 8.74422 0.400391 9.07722 0.400391 9.40122V28.2382C0.400391 28.5712 0.400391 28.8952 0.400391 29.2192C0.400391 29.4982 0.409391 29.7682 0.418391 30.0472C0.436391 30.6502 0.472391 31.2532 0.580391 31.8472C0.688391 32.4502 0.859391 33.0172 1.14739 33.5572C1.41739 34.0972 1.77739 34.5832 2.20939 35.0062C2.63239 35.4382 3.12739 35.7982 3.66739 36.0682C4.21639 36.3472 4.77439 36.5272 5.37739 36.6352C5.97139 36.7432 6.58339 36.7792 7.17739 36.7972C7.44739 36.8152 7.71739 36.8242 7.99639 36.8242C8.32939 36.8242 8.65339 36.8242 8.97739 36.8242H99.5174C99.8414 36.8242 100.165 36.8242 100.489 36.8242C100.759 36.8242 101.047 36.8242 101.317 36.8152C101.92 36.7972 102.523 36.7612 103.117 36.6532C103.72 36.5452 104.278 36.3652 104.836 36.0862C105.376 35.8162 105.862 35.4562 106.294 35.0242C106.726 34.6012 107.077 34.1062 107.356 33.5752C107.635 33.0262 107.815 32.4682 107.914 31.8652C108.022 31.2712 108.058 30.6682 108.085 30.0652C108.085 29.7862 108.085 29.5162 108.085 29.2372C108.094 28.9132 108.094 28.5892 108.094 28.2562V9.41022C108.094 9.07722 108.094 8.75322 108.085 8.42922C108.085 8.15022 108.085 7.88022 108.085 7.60122C108.067 6.99822 108.031 6.39522 107.914 5.80122C107.815 5.19822 107.635 4.64022 107.356 4.09122C107.077 3.55122 106.717 3.05622 106.294 2.63322C105.871 2.21022 105.376 1.85022 104.836 1.57122C104.278 1.29222 103.72 1.11222 103.117 1.00422C102.523 0.896219 101.92 0.860219 101.317 0.842219C101.047 0.842219 100.759 0.833219 100.489 0.833219C100.174 0.824219 99.8414 0.824219 99.5174 0.824219Z" fill="black"/>
<path d="M7.9966 36.0322C7.7266 36.0322 7.4566 36.0322 7.1866 36.0232C6.6826 36.0052 6.0886 35.9782 5.5036 35.8792C4.9546 35.7802 4.4686 35.6182 4.0096 35.3842C3.5416 35.1502 3.1186 34.8352 2.7496 34.4662C2.3806 34.0972 2.0746 33.6832 1.8316 33.2062C1.59759 32.7562 1.43559 32.2612 1.34559 31.7122C1.23759 31.1092 1.21059 30.4882 1.19259 30.0202C1.18359 29.8312 1.18359 29.2012 1.18359 29.2012V8.42021C1.18359 8.42021 1.19259 7.79921 1.19259 7.61921C1.21059 7.15121 1.23759 6.53021 1.34559 5.93621C1.44459 5.37821 1.6066 4.89221 1.8406 4.44221C2.0836 3.97421 2.3896 3.55121 2.7586 3.18221C3.1276 2.80421 3.5506 2.49821 4.0096 2.26421C4.4686 2.03021 4.9636 1.86821 5.4946 1.77821C6.1066 1.66121 6.7186 1.63421 7.1866 1.62521L7.9966 1.61621H100.49L101.309 1.62521C101.768 1.63421 102.389 1.66121 102.983 1.76921C103.523 1.86821 104.018 2.02121 104.486 2.26421C104.945 2.49821 105.368 2.81321 105.737 3.18221C106.106 3.55121 106.412 3.97421 106.655 4.44221C106.889 4.90121 107.042 5.38721 107.141 5.92721C107.249 6.49421 107.276 7.07921 107.294 7.62821C107.294 7.88021 107.294 8.15921 107.294 8.42921C107.303 8.77121 107.303 9.08621 107.303 9.41021V28.2472C107.303 28.5712 107.303 28.8952 107.294 29.2192C107.294 29.5162 107.294 29.7772 107.294 30.0562C107.276 30.5872 107.24 31.1722 107.141 31.7212C107.051 32.2702 106.889 32.7652 106.655 33.2242C106.412 33.6922 106.106 34.1152 105.737 34.4752C105.368 34.8532 104.945 35.1592 104.477 35.3932C104.009 35.6272 103.532 35.7892 102.974 35.8882C102.398 35.9962 101.804 36.0232 101.291 36.0322C101.03 36.0412 100.751 36.0412 100.481 36.0412H99.5086L7.9966 36.0322Z" fill="white"/>
<path d="M22.9004 18.725C22.8734 16.151 25.0064 14.9 25.1054 14.837C23.8994 13.073 22.0274 12.839 21.3704 12.821C19.7954 12.659 18.2744 13.757 17.4734 13.757C16.6544 13.757 15.4214 12.83 14.0984 12.857C12.3884 12.884 10.7864 13.874 9.91339 15.413C8.10439 18.545 9.4544 23.153 11.1914 25.682C12.0554 26.924 13.0724 28.31 14.3954 28.256C15.6914 28.202 16.1774 27.428 17.7434 27.428C19.2914 27.428 19.7504 28.256 21.1004 28.229C22.4954 28.202 23.3684 26.987 24.2054 25.727C25.2044 24.305 25.6094 22.901 25.6274 22.829C25.6004 22.829 22.9274 21.812 22.9004 18.725Z" fill="#111111"/>
<path d="M20.3466 11.1566C21.0486 10.2836 21.5256 9.09565 21.3906 7.88965C20.3826 7.93465 19.1136 8.59165 18.3846 9.44665C17.7366 10.2026 17.1696 11.4356 17.3136 12.5966C18.4476 12.6686 19.6176 12.0116 20.3466 11.1566Z" fill="#111111"/>
<path d="M38.4717 25.2497H34.2147L33.1887 28.2737H31.3887L35.4207 17.0957H37.2927L41.3247 28.2737H39.4887L38.4717 25.2497ZM34.6557 23.8547H38.0307L36.3657 18.9497H36.3207L34.6557 23.8547Z" fill="#111111"/>
<path d="M50.0461 24.1971C50.0461 26.7261 48.6871 28.3551 46.6441 28.3551C45.4831 28.3551 44.5651 27.8331 44.0791 26.9331H44.0431V30.9651H42.3691V20.1201H43.9891V21.4791H44.0161C44.4841 20.6061 45.4741 20.0391 46.6081 20.0391C48.6781 20.0391 50.0461 21.6681 50.0461 24.1971ZM48.3271 24.1971C48.3271 22.5501 47.4721 21.4611 46.1761 21.4611C44.8981 21.4611 44.0341 22.5681 44.0341 24.1971C44.0341 25.8351 44.8981 26.9421 46.1761 26.9421C47.4721 26.9421 48.3271 25.8621 48.3271 24.1971Z" fill="#111111"/>
<path d="M59.0078 24.1971C59.0078 26.7261 57.6488 28.3551 55.6058 28.3551C54.4448 28.3551 53.5268 27.8331 53.0408 26.9331H53.0048V30.9651H51.3398V20.1201H52.9598V21.4791H52.9868C53.4548 20.6061 54.4448 20.0391 55.5788 20.0391C57.6488 20.0391 59.0078 21.6681 59.0078 24.1971ZM57.2888 24.1971C57.2888 22.5501 56.4338 21.4611 55.1378 21.4611C53.8598 21.4611 52.9958 22.5681 52.9958 24.1971C52.9958 25.8351 53.8598 26.9421 55.1378 26.9421C56.4428 26.9421 57.2888 25.8621 57.2888 24.1971Z" fill="#111111"/>
<path d="M64.9405 25.1602C65.0665 26.2672 66.1375 26.9962 67.6135 26.9962C69.0265 26.9962 70.0345 26.2672 70.0345 25.2682C70.0345 24.4042 69.4225 23.8822 67.9735 23.5222L66.5245 23.1712C64.4725 22.6762 63.5185 21.7132 63.5185 20.1562C63.5185 18.2302 65.2015 16.9072 67.5865 16.9072C69.9445 16.9072 71.5645 18.2302 71.6185 20.1562H69.9265C69.8275 19.0402 68.9005 18.3652 67.5595 18.3652C66.2185 18.3652 65.2915 19.0492 65.2915 20.0392C65.2915 20.8312 65.8765 21.2902 67.3165 21.6502L68.5495 21.9562C70.8445 22.4962 71.7985 23.4232 71.7985 25.0522C71.7985 27.1402 70.1335 28.4542 67.4875 28.4542C65.0125 28.4542 63.3385 27.1762 63.2305 25.1512H64.9405V25.1602Z" fill="#111111"/>
<path d="M75.4159 18.1943V20.1203H76.9639V21.4433H75.4159V25.9343C75.4159 26.6363 75.7219 26.9603 76.4059 26.9603C76.5769 26.9603 76.8469 26.9333 76.9549 26.9243V28.2383C76.7659 28.2833 76.3969 28.3193 76.0279 28.3193C74.3809 28.3193 73.7329 27.6983 73.7329 26.1233V21.4523H72.5449V20.1293H73.7329V18.1943H75.4159Z" fill="#111111"/>
<path d="M77.8555 24.1975C77.8555 21.6325 79.3675 20.0215 81.7165 20.0215C84.0745 20.0215 85.5775 21.6325 85.5775 24.1975C85.5775 26.7715 84.0835 28.3735 81.7165 28.3735C79.3585 28.3735 77.8555 26.7715 77.8555 24.1975ZM83.8855 24.1975C83.8855 22.4425 83.0755 21.3985 81.7255 21.3985C80.3755 21.3985 79.5655 22.4425 79.5655 24.1975C79.5655 25.9615 80.3755 26.9965 81.7255 26.9965C83.0755 26.9965 83.8855 25.9615 83.8855 24.1975Z" fill="#111111"/>
<path d="M86.9727 20.1203H88.5657V21.5063H88.6017C88.8537 20.5883 89.6007 20.0303 90.5637 20.0303C90.8067 20.0303 91.0047 20.0663 91.1397 20.0933V21.6593C91.0047 21.6053 90.7167 21.5603 90.3927 21.5603C89.3127 21.5603 88.6467 22.2893 88.6467 23.4323V28.2653H86.9727V20.1203Z" fill="#111111"/>
<path d="M98.8432 25.8805C98.6182 27.3565 97.1782 28.3735 95.3332 28.3735C92.9662 28.3735 91.4902 26.7895 91.4902 24.2335C91.4902 21.6775 92.9662 20.0215 95.2612 20.0215C97.5112 20.0215 98.9332 21.5695 98.9332 24.0445V24.6205H93.1822V24.7195C93.1822 26.1145 94.0552 27.0235 95.3782 27.0235C96.3052 27.0235 97.0342 26.5825 97.2592 25.8805H98.8432ZM93.1912 23.4415H97.2682C97.2322 22.1905 96.4312 21.3715 95.2702 21.3715C94.1092 21.3805 93.2812 22.2175 93.1912 23.4415Z" fill="#111111"/>
<path d="M33.4658 10.9491H34.1858C34.7798 10.9491 35.1938 10.5981 35.1938 10.0941C35.1938 9.59911 34.8248 9.27511 34.1858 9.27511C33.5558 9.27511 33.1508 9.59011 33.1058 10.1121H32.3138C32.3678 9.14011 33.0878 8.53711 34.2128 8.53711C35.2658 8.53711 36.0128 9.13111 36.0128 9.97711C36.0128 10.5711 35.6168 11.0751 35.0408 11.2011V11.2641C35.7338 11.3361 36.2378 11.8131 36.2378 12.5601C36.2378 13.4781 35.3648 14.1531 34.2308 14.1531C33.0608 14.1531 32.2598 13.5231 32.2148 12.5601H33.0158C33.0608 13.0731 33.5378 13.4061 34.2308 13.4061C34.9238 13.4061 35.3828 13.0371 35.3828 12.5061C35.3828 11.9751 34.9508 11.6421 34.2038 11.6421H33.4658V10.9491Z" fill="#111111"/>
<path d="M37.1484 12.9028C37.1484 12.1738 37.6884 11.7508 38.6514 11.6968L39.7494 11.6338V11.2828C39.7494 10.8508 39.4704 10.6168 38.9214 10.6168C38.4714 10.6168 38.1654 10.7788 38.0754 11.0668H37.3014C37.3824 10.3738 38.0394 9.92383 38.9574 9.92383C39.9744 9.92383 40.5504 10.4278 40.5504 11.2828V14.0548H39.7764V13.4878H39.7134C39.4704 13.8928 39.0294 14.1268 38.4984 14.1268C37.7154 14.1178 37.1484 13.6498 37.1484 12.9028ZM39.7494 12.5608V12.2188L38.7594 12.2818C38.2014 12.3178 37.9494 12.5068 37.9494 12.8668C37.9494 13.2358 38.2644 13.4428 38.6964 13.4428C39.3084 13.4428 39.7494 13.0648 39.7494 12.5608Z" fill="#111111"/>
<path d="M42.674 10.6701V14.0451H41.873V9.99512H44.537V10.6701H42.674Z" fill="#111111"/>
<path d="M49.3867 12.0208C49.3867 13.3078 48.7387 14.1178 47.7127 14.1178C47.1367 14.1178 46.6777 13.8658 46.4617 13.4338H46.3987V15.3958H45.5977V9.99583H46.3717V10.6618H46.4347C46.6777 10.2028 47.1547 9.92383 47.7037 9.92383C48.7387 9.93283 49.3867 10.7338 49.3867 12.0208ZM48.5677 12.0208C48.5677 11.1658 48.1627 10.6438 47.4877 10.6438C46.8127 10.6438 46.3897 11.1748 46.3897 12.0208C46.3897 12.8668 46.8127 13.3978 47.4787 13.3978C48.1627 13.3978 48.5677 12.8848 48.5677 12.0208Z" fill="#111111"/>
<path d="M50.4511 15.5031V14.8101C50.5141 14.8191 50.6401 14.8281 50.7121 14.8281C51.0901 14.8281 51.3061 14.6751 51.4411 14.2611L51.5041 14.0631L50.0371 9.99512H50.9101L51.9271 13.2171H51.9901L52.9981 9.99512H53.8441L52.3321 14.2161C51.9901 15.2061 51.6031 15.5211 50.7751 15.5211C50.7211 15.5211 50.5321 15.5121 50.4511 15.5031Z" fill="#111111"/>
<path d="M54.4746 12.9028H55.2666C55.3476 13.2628 55.6806 13.4428 56.1486 13.4428C56.6796 13.4428 57.0126 13.2088 57.0126 12.8398C57.0126 12.4528 56.7156 12.2638 56.1486 12.2638H55.5456V11.6428H56.1396C56.6256 11.6428 56.8686 11.4538 56.8686 11.1208C56.8686 10.8238 56.6346 10.5988 56.1396 10.5988C55.6896 10.5988 55.3656 10.7878 55.3116 11.1118H54.5376C54.6186 10.3918 55.2216 9.92383 56.1306 9.92383C57.0936 9.92383 57.6426 10.3558 57.6426 11.0398C57.6426 11.4448 57.3816 11.7778 57.0036 11.8678V11.9308C57.5256 12.0568 57.7956 12.3898 57.7956 12.8398C57.7956 13.6138 57.1386 14.1178 56.1396 14.1178C55.2666 14.1268 54.5466 13.7218 54.4746 12.9028Z" fill="#111111"/>
<path d="M58.9648 14.054V10.0039H59.7568V12.7939H59.8198L61.6918 10.0039H62.4838V14.054H61.6918V11.2549H61.6288L59.7568 14.054H58.9648Z" fill="#111111"/>
<path d="M66.8472 10.6701H65.5692V14.0451H64.7682V10.6701H63.4902V9.99512H66.8472V10.6701Z" fill="#111111"/>
<path d="M71.1504 12.9568C70.9704 13.6858 70.3224 14.1268 69.3954 14.1268C68.2344 14.1268 67.5234 13.3348 67.5234 12.0388C67.5234 10.7428 68.2524 9.92383 69.3954 9.92383C70.5204 9.92383 71.2044 10.6978 71.2044 11.9668V12.2458H68.3424V12.2908C68.3694 13.0018 68.7834 13.4518 69.4224 13.4518C69.9084 13.4518 70.2414 13.2808 70.3854 12.9568H71.1504ZM68.3424 11.6518H70.3854C70.3674 11.0128 69.9804 10.5988 69.3864 10.5988C68.7924 10.5988 68.3874 11.0218 68.3424 11.6518Z" fill="#111111"/>
<path d="M74.543 9.99512H76.37C77.162 9.99512 77.63 10.4001 77.63 11.0301C77.63 11.4441 77.342 11.8131 76.946 11.8851V11.9481C77.468 12.0111 77.81 12.3891 77.81 12.8841C77.81 13.5951 77.279 14.0541 76.388 14.0541H74.543V9.99512ZM75.335 10.6161V11.6691H76.127C76.613 11.6691 76.838 11.4801 76.838 11.1381C76.838 10.8231 76.64 10.6161 76.208 10.6161H75.335ZM75.335 12.2541V13.4421H76.28C76.757 13.4421 77.009 13.2351 77.009 12.8481C77.009 12.4431 76.721 12.2541 76.181 12.2541H75.335Z" fill="#111111"/>
</g>
</g>
<defs>
<clipPath id="clip0_7090_8385">
<rect width="108" height="36" fill="white" transform="translate(0.400391 0.824219)"/>
</clipPath>
</defs>
</svg>
