<svg width="132" height="18" viewBox="0 0 132 18" fill="none" xmlns="http://www.w3.org/2000/svg">
<path d="M0.258301 16.8818V0.891779H1.82993V8.05871C2.68382 6.71523 4.15795 6.04096 5.71613 6.04096C8.77534 6.04096 10.8832 8.59103 10.8832 11.5974C10.8832 14.57 8.80392 17.1082 5.71613 17.1082C4.20838 17.1082 2.84014 16.4931 1.95263 15.2442C1.90893 15.1834 1.86859 15.1226 1.82825 15.06V16.8818H0.258301ZM5.44719 15.5941C7.76177 15.5941 9.24431 13.8822 9.24431 11.5737C9.24431 9.33798 7.8122 7.53146 5.47072 7.53146C3.16455 7.53146 1.74252 9.30587 1.74252 11.5737C1.74084 13.7909 3.1074 15.5941 5.44719 15.5941Z" fill="#B0B2B5"/>
<path d="M20.5856 17.1065C17.8928 17.1065 16.1379 15.0769 16.1379 12.4322V6.26566H17.7331V12.3629C17.7331 14.1322 18.7063 15.5923 20.5856 15.5923C22.495 15.5923 23.4616 14.1694 23.4616 12.3629V6.26566H25.0332V12.4322C25.0332 15.1157 23.3187 17.1065 20.5856 17.1065Z" fill="#B0B2B5"/>
<path d="M32.6221 16.8818V7.69031H29.9495V6.26741H32.6221V1.79589H34.2172V6.26741H38.8212V1.79589H40.4163V6.26741H43.0671V7.69031H40.4163V16.8818H38.8212V7.69031H34.2172V16.8818H32.6221Z" fill="#B0B2B5"/>
<path d="M52.633 17.1065C49.5317 17.1065 47.1516 14.6257 47.1516 11.5281C47.1516 8.44232 49.5704 6.04095 52.633 6.04095C55.7208 6.04095 58.1143 8.41866 58.1143 11.5281C58.1143 14.6392 55.746 17.1065 52.633 17.1065ZM52.633 15.5721C54.9358 15.5721 56.4973 13.796 56.4973 11.5298C56.4973 9.2822 54.8971 7.55511 52.633 7.55511C50.3621 7.55511 48.7922 9.2822 48.7922 11.5298C48.7922 13.801 50.3184 15.5721 52.633 15.5721Z" fill="#B0B2B5"/>
<path d="M63.6143 16.8818V6.2674H65.1859V7.82718C66.0112 6.62734 67.3004 6.04095 68.7359 6.04095C71.1564 6.04095 72.8911 7.96069 72.8911 10.3773V16.8818H71.2959V10.6477C71.2959 8.82592 70.1647 7.50779 68.309 7.50779C66.5205 7.50779 65.1859 8.79044 65.1859 10.624V16.8801H63.6143V16.8818Z" fill="#B0B2B5"/>
<path d="M85.2442 16.8818H83.6726V0.891779H85.2442V8.05871C85.2879 7.99111 85.3316 7.92521 85.3787 7.8593C85.7972 7.27966 86.3334 6.83184 86.9856 6.51582C87.6378 6.19981 88.3522 6.04096 89.1304 6.04096C90.1037 6.04096 90.9794 6.28599 91.7593 6.77438C92.5376 7.26445 93.1562 7.9269 93.6134 8.76172C94.0706 9.59823 94.2992 10.5429 94.2992 11.5957C94.2992 12.635 94.0739 13.5678 93.6251 14.3959C93.1763 15.224 92.5578 15.883 91.7711 16.3714C90.9845 16.8615 90.1053 17.1048 89.1321 17.1048C88.3236 17.1048 87.5975 16.9392 86.9537 16.608C86.3099 16.2768 85.7821 15.8205 85.3703 15.2409C85.3266 15.18 85.2863 15.1192 85.2476 15.0567V16.8818H85.2442ZM88.8598 15.5941C89.6095 15.5941 90.2684 15.4251 90.8365 15.0854C91.4064 14.7457 91.8518 14.2725 92.1728 13.6625C92.4956 13.0524 92.6553 12.3562 92.6553 11.5737C92.6553 10.7761 92.4939 10.0765 92.1728 9.47318C91.8501 8.87157 91.4047 8.3967 90.8365 8.05026C90.2667 7.70383 89.6162 7.53146 88.8817 7.53146C88.1471 7.53146 87.5 7.70383 86.9386 8.05026C86.3771 8.3967 85.9384 8.87157 85.6241 9.47318C85.3098 10.0748 85.1518 10.7761 85.1518 11.5737C85.1518 12.3562 85.3098 13.0524 85.6241 13.6625C85.9384 14.2725 86.3721 14.7457 86.9268 15.0854C87.4832 15.4251 88.1269 15.5941 88.8598 15.5941Z" fill="#B0B2B5"/>
<path d="M99.8188 16.8818V0.891779H101.39V16.8818H99.8188Z" fill="#B0B2B5"/>
<path d="M111.766 17.1065C109.073 17.1065 107.318 15.0769 107.318 12.4322V6.26566H108.914V12.3629C108.914 14.1322 109.887 15.5923 111.766 15.5923C113.675 15.5923 114.642 14.1694 114.642 12.3629V6.26566H116.214V12.4322C116.214 15.1157 114.499 17.1065 111.766 17.1065Z" fill="#B0B2B5"/>
<path fill-rule="evenodd" clip-rule="evenodd" d="M130.204 14.2168C129.479 15.0921 128.459 15.5957 127.059 15.616C124.927 15.6109 123.371 14.3131 123.079 12.1601H131.732C132.332 8.87494 130.229 6.04264 126.903 6.03926C123.927 6.03926 121.467 8.30374 121.467 11.5501C121.467 14.4905 123.65 17.0998 127.037 17.1065C128.82 17.1065 130.227 16.3697 131.216 15.2544L130.204 14.2168ZM123.085 10.8065L130.306 10.8082C130.16 8.78199 128.889 7.50779 126.857 7.50948C124.697 7.51117 123.395 8.82424 123.085 10.8065Z" fill="#B0B2B5"/>
</svg>
