<svg width="351" height="44" viewBox="0 0 351 44" fill="none" xmlns="http://www.w3.org/2000/svg">
<path d="M0.477051 42.9984V0.400391H4.66393V19.4934C6.93873 15.9143 10.8659 14.118 15.017 14.118C23.1668 14.118 28.7822 20.9115 28.7822 28.9206C28.7822 36.8397 23.243 43.6017 15.017 43.6017C11.0002 43.6017 7.35518 41.963 4.99082 38.636C4.8744 38.4739 4.76693 38.3118 4.65946 38.1453V42.9984H0.477051ZM14.3005 39.5679C20.4666 39.5679 24.4162 35.0074 24.4162 28.8576C24.4162 22.9014 20.601 18.0888 14.3632 18.0888C8.21943 18.0888 4.43108 22.8159 4.43108 28.8576C4.4266 34.7642 8.06718 39.5679 14.3005 39.5679Z" fill="white"/>
<path d="M54.6299 43.5972C47.4562 43.5972 42.7812 38.1903 42.7812 31.1446V14.7168H47.0308V30.96C47.0308 35.6736 49.6236 39.5634 54.6299 39.5634C59.7169 39.5634 62.2917 35.7727 62.2917 30.96V14.7168H66.4786V31.1446C66.4786 38.2938 61.9111 43.5972 54.6299 43.5972Z" fill="white"/>
<path d="M86.6956 42.9985V18.5121H79.5757V14.7214H86.6956V2.80908H90.9452V14.7214H103.21V2.80908H107.46V14.7214H114.522V18.5121H107.46V42.9985H103.21V18.5121H90.9452V42.9985H86.6956Z" fill="white"/>
<path d="M140.005 43.5973C131.744 43.5973 125.403 36.9884 125.403 28.7362C125.403 20.5155 131.847 14.1182 140.005 14.1182C148.231 14.1182 154.608 20.4525 154.608 28.7362C154.608 37.0244 148.299 43.5973 140.005 43.5973ZM140.005 39.5095C146.14 39.5095 150.3 34.7779 150.3 28.7407C150.3 22.753 146.037 18.152 140.005 18.152C133.956 18.152 129.773 22.753 129.773 28.7407C129.773 34.7914 133.839 39.5095 140.005 39.5095Z" fill="white"/>
<path d="M169.26 42.9986V14.7214H173.447V18.8768C175.645 15.6804 179.08 14.1182 182.904 14.1182C189.352 14.1182 193.974 19.2324 193.974 25.6703V42.9986H189.724V26.3906C189.724 21.5375 186.71 18.0259 181.767 18.0259C177.002 18.0259 173.447 21.4429 173.447 26.3276V42.994H169.26V42.9986Z" fill="white"/>
<path d="M226.884 42.9984H222.697V0.400391H226.884V19.4934C227 19.3133 227.117 19.1378 227.242 18.9622C228.357 17.418 229.785 16.225 231.523 15.3831C233.26 14.5412 235.163 14.118 237.237 14.118C239.829 14.118 242.162 14.7708 244.24 16.0719C246.313 17.3775 247.961 19.1423 249.179 21.3662C250.397 23.5947 251.006 26.1114 251.006 28.9161C251.006 31.6849 250.406 34.17 249.211 36.3759C248.015 38.5819 246.367 40.3377 244.272 41.6388C242.176 42.9444 239.834 43.5927 237.241 43.5927C235.087 43.5927 233.153 43.1515 231.438 42.2691C229.723 41.3867 228.317 40.1711 227.219 38.627C227.103 38.4649 226.996 38.3028 226.893 38.1362V42.9984H226.884ZM236.516 39.5679C238.513 39.5679 240.268 39.1177 241.782 38.2128C243.3 37.3079 244.486 36.0473 245.342 34.4221C246.202 32.7969 246.627 30.942 246.627 28.8576C246.627 26.7327 246.197 24.8688 245.342 23.2616C244.482 21.6589 243.295 20.3938 241.782 19.4709C240.264 18.548 238.531 18.0888 236.574 18.0888C234.617 18.0888 232.893 18.548 231.397 19.4709C229.902 20.3938 228.733 21.6589 227.896 23.2616C227.058 24.8643 226.637 26.7327 226.637 28.8576C226.637 30.942 227.058 32.7969 227.896 34.4221C228.733 36.0473 229.888 37.3079 231.366 38.2128C232.848 39.1177 234.563 39.5679 236.516 39.5679Z" fill="white"/>
<path d="M265.71 42.9984V0.400391H269.897V42.9984H265.71Z" fill="white"/>
<path d="M297.539 43.5972C290.365 43.5972 285.69 38.1903 285.69 31.1446V14.7168H289.94V30.96C289.94 35.6736 292.532 39.5634 297.539 39.5634C302.626 39.5634 305.2 35.7727 305.2 30.96V14.7168H309.387V31.1446C309.387 38.2938 304.82 43.5972 297.539 43.5972Z" fill="white"/>
<path fill-rule="evenodd" clip-rule="evenodd" d="M346.658 35.899C344.728 38.231 342.01 39.5726 338.279 39.6267C332.601 39.6131 328.455 36.1556 327.676 30.42H350.728C352.327 21.6681 346.725 14.1228 337.863 14.1138C329.937 14.1138 323.381 20.1465 323.381 28.7948C323.381 36.6283 329.198 43.5794 338.221 43.5974C342.972 43.5974 346.72 41.6346 349.353 38.6632L346.658 35.899ZM327.694 26.8139L346.931 26.8184C346.541 21.4205 343.156 18.026 337.742 18.0305C331.988 18.035 328.518 21.5331 327.694 26.8139Z" fill="white"/>
</svg>
