<svg width="229" height="47" viewBox="0 0 229 47" fill="none" xmlns="http://www.w3.org/2000/svg">
<path d="M48.0405 20.9526C48.0405 25.595 47.4889 29.3894 46.395 32.327C44.7219 36.777 41.9549 40.2217 38.1124 42.6172C34.4078 44.9165 30.0046 46.0793 24.9303 46.0793C16.6661 46.0793 10.3324 43.404 5.90157 38.0622C2.55546 34.0056 0.891602 29.1621 0.891602 23.5405C0.891602 17.3069 2.84963 12.07 6.75648 7.82977C11.1965 2.99503 17.3831 0.582031 25.3439 0.582031C30.6572 0.582031 35.1616 1.87596 38.857 4.45507C41.4953 6.29979 43.7475 9.0013 45.6136 12.5946L34.5365 16.896C33.5897 14.9376 32.4866 13.4688 31.2364 12.4809C29.4346 11.0996 27.2836 10.4001 24.7924 10.4001C19.718 10.4001 16.1697 12.8831 14.1749 17.849C13.4211 19.6762 13.0534 21.5646 13.0534 23.5143C13.0534 27.5709 14.4047 30.9456 17.1165 33.6559C19.1205 35.6667 21.7956 36.6721 25.1417 36.6721C28.1109 36.6721 30.4826 35.8503 32.2108 34.2066C33.3599 33.1225 34.1137 31.5314 34.463 29.4069H24.8108V20.9264H48.0405V20.9526ZM99.9051 44.7154H74.1658V1.86722H85.8496V35.4656H99.9051V44.7154ZM167.656 1.86722L148.462 44.7154H139.361L120.443 1.86722H133.175L144.013 27.9206L154.952 1.86722H167.656ZM229 44.7154H214.475L203.325 28.3315V44.7154H191.641V1.86722H209.833C215.156 1.86722 219.09 3.38845 221.646 6.43093C223.705 8.8789 224.744 11.764 224.744 15.0688C224.744 18.8719 223.558 21.8969 221.186 24.1612C219.669 25.6038 217.573 26.6092 214.917 27.1775L229 44.7154ZM212.582 15.6895C212.582 14.1595 211.993 12.8743 210.826 11.8252C209.732 10.8373 207.958 10.3477 205.513 10.3477H203.325V21.075H205.513C207.976 21.075 209.76 20.5854 210.826 19.5975C211.993 18.5309 212.582 17.2195 212.582 15.6895Z" fill="white"/>
</svg>
