<svg width="74" height="16" viewBox="0 0 74 16" fill="none" xmlns="http://www.w3.org/2000/svg">
<path d="M15.7692 7.2467C15.7692 8.71729 15.5944 9.91923 15.2479 10.8498C14.7179 12.2594 13.8414 13.3506 12.6242 14.1094C11.4507 14.8378 10.0559 15.2061 8.4485 15.2061C5.83065 15.2061 3.82432 14.3587 2.42076 12.6665C1.3608 11.3815 0.83374 9.84722 0.83374 8.06646C0.83374 6.09184 1.45399 4.43294 2.69157 3.08975C4.09804 1.55824 6.05779 0.793875 8.57954 0.793875C10.2626 0.793875 11.6895 1.20375 12.8601 2.02074C13.6958 2.6051 14.4093 3.46086 15.0004 4.59911L11.4915 5.96168C11.1916 5.34132 10.8421 4.87605 10.4461 4.5631C9.87536 4.12553 9.19396 3.90397 8.40482 3.90397C6.79742 3.90397 5.67341 4.6905 5.04151 6.26355C4.80273 6.84236 4.68626 7.44057 4.68626 8.05816C4.68626 9.34318 5.11431 10.4122 5.97334 11.2707C6.60815 11.9077 7.45552 12.2262 8.51548 12.2262C9.45604 12.2262 10.2073 11.9659 10.7548 11.4452C11.1188 11.1018 11.3575 10.5977 11.4682 9.92477H8.41065V7.2384H15.7692V7.2467ZM32.1984 14.7741H24.0449V1.20098H27.746V11.844H32.1984V14.7741ZM53.66 1.20098L47.5798 14.7741H44.697L38.7042 1.20098H42.7372L46.1704 9.45396L49.6357 1.20098H53.66ZM73.0919 14.7741H68.491L64.9588 9.58412V14.7741H61.2577V1.20098H67.0205C68.7065 1.20098 69.9528 1.68287 70.7624 2.64664C71.4146 3.42209 71.7437 4.33601 71.7437 5.38286C71.7437 6.58757 71.368 7.54581 70.6168 8.26309C70.1363 8.72006 69.4724 9.03854 68.6308 9.21856L73.0919 14.7741ZM67.8912 5.57949C67.8912 5.09484 67.7048 4.68773 67.335 4.35539C66.9885 4.04245 66.4265 3.88736 65.6519 3.88736H64.9588V7.28548H65.6519C66.4323 7.28548 66.9972 7.13039 67.335 6.81744C67.7048 6.47957 67.8912 6.06415 67.8912 5.57949Z" fill="#B0B2B5"/>
</svg>
