<svg width="123" height="37" viewBox="0 0 123 37" fill="none" xmlns="http://www.w3.org/2000/svg">
<g clip-path="url(#clip0_7090_8364)">
<mask id="mask0_7090_8364" style="mask-type:luminance" maskUnits="userSpaceOnUse" x="0" y="0" width="122" height="37">
<path d="M121.5 0.824219H0V36.8242H121.5V0.824219Z" fill="white"/>
</mask>
<g mask="url(#mask0_7090_8364)">
<path d="M112.923 0.824219H8.577C8.253 0.824219 7.929 0.824219 7.596 0.824219C7.317 0.824219 7.047 0.833219 6.768 0.833219C6.165 0.851219 5.562 0.887219 4.968 0.995219C4.365 1.10322 3.807 1.28322 3.258 1.56222C2.718 1.83222 2.223 2.19222 1.8 2.62422C1.368 3.04722 1.008 3.54222 0.738 4.08222C0.459 4.63122 0.279 5.18922 0.171 5.79222C0.063 6.38622 0.027 6.98922 0.009 7.59222C0.009 7.87122 0 8.15022 0 8.42022C0 8.74422 0 9.07722 0 9.40122V28.2382C0 28.5712 0 28.8952 0 29.2192C0 29.4982 0.009 29.7682 0.018 30.0472C0.036 30.6502 0.072 31.2532 0.18 31.8472C0.288 32.4502 0.459 33.0172 0.747 33.5572C1.017 34.0972 1.377 34.5832 1.809 35.0062C2.232 35.4382 2.727 35.7982 3.267 36.0682C3.816 36.3472 4.374 36.5272 4.977 36.6352C5.571 36.7432 6.183 36.7792 6.777 36.7972C7.047 36.8152 7.317 36.8242 7.596 36.8242C7.929 36.8242 8.253 36.8242 8.577 36.8242H112.923C113.247 36.8242 113.571 36.8242 113.895 36.8242C114.165 36.8242 114.453 36.8242 114.723 36.8152C115.326 36.7972 115.929 36.7612 116.523 36.6532C117.126 36.5452 117.684 36.3652 118.242 36.0862C118.782 35.8162 119.268 35.4562 119.7 35.0242C120.132 34.6012 120.482 34.1062 120.762 33.5752C121.04 33.0262 121.222 32.4682 121.32 31.8652C121.428 31.2712 121.464 30.6682 121.492 30.0652C121.492 29.7862 121.492 29.5162 121.492 29.2372C121.5 28.9042 121.5 28.5712 121.5 28.2382V9.41022C121.5 9.07722 121.5 8.75322 121.492 8.42922C121.492 8.15022 121.492 7.88022 121.492 7.60122C121.474 6.99822 121.438 6.39522 121.32 5.80122C121.222 5.19822 121.04 4.64022 120.762 4.09122C120.482 3.55122 120.124 3.05622 119.7 2.63322C119.277 2.21022 118.782 1.85022 118.242 1.57122C117.684 1.29222 117.126 1.11222 116.523 1.00422C115.929 0.896219 115.326 0.860219 114.723 0.842219C114.453 0.842219 114.165 0.833219 113.895 0.833219C113.571 0.824219 113.247 0.824219 112.923 0.824219Z" fill="#111111"/>
<path d="M7.59425 36.0322C7.32425 36.0322 7.05425 36.0322 6.78425 36.0232C6.28025 36.0052 5.68625 35.9782 5.10125 35.8792C4.55225 35.7802 4.06625 35.6182 3.60725 35.3842C3.13925 35.1502 2.71625 34.8352 2.34725 34.4662C1.97825 34.0972 1.67225 33.6832 1.42925 33.2062C1.19525 32.7562 1.03325 32.2612 0.94325 31.7122C0.83525 31.1092 0.80825 30.4882 0.79025 30.0202C0.78125 29.8312 0.78125 29.2012 0.78125 29.2012V8.42021C0.78125 8.42021 0.79025 7.79921 0.79025 7.61921C0.80825 7.15121 0.83525 6.53021 0.94325 5.93621C1.04225 5.37821 1.20425 4.89221 1.43825 4.44221C1.68125 3.97421 1.98725 3.55121 2.35625 3.18221C2.72525 2.80421 3.14825 2.49821 3.60725 2.26421C4.06625 2.03021 4.56125 1.86821 5.09225 1.77821C5.70425 1.66121 6.31625 1.63421 6.78425 1.62521L7.59425 1.61621H113.884L114.703 1.62521C115.162 1.63421 115.783 1.66121 116.377 1.76921C116.917 1.86821 117.412 2.02121 117.88 2.26421C118.339 2.49821 118.762 2.81321 119.131 3.18221C119.5 3.55121 119.806 3.97421 120.05 4.44221C120.284 4.90121 120.436 5.38721 120.536 5.92721C120.644 6.49421 120.67 7.07921 120.688 7.62821C120.688 7.88021 120.688 8.15921 120.688 8.42921C120.698 8.77121 120.698 9.08621 120.698 9.41021V28.2472C120.698 28.5712 120.698 28.8952 120.688 29.2192C120.688 29.5162 120.688 29.7772 120.688 30.0562C120.67 30.5872 120.634 31.1722 120.536 31.7212C120.446 32.2702 120.284 32.7652 120.05 33.2242C119.806 33.6922 119.5 34.1152 119.131 34.4752C118.762 34.8532 118.339 35.1592 117.871 35.3932C117.403 35.6272 116.926 35.7892 116.368 35.8882C115.792 35.9962 115.198 36.0232 114.685 36.0322C114.424 36.0412 114.145 36.0412 113.875 36.0412H112.903L7.59425 36.0322Z" fill="white"/>
<path d="M61.3236 20.3999C59.2086 20.3999 57.4806 22.0109 57.4806 24.2249C57.4806 26.4299 59.2086 28.0499 61.3236 28.0499C63.4386 28.0499 65.1666 26.4299 65.1666 24.2249C65.1576 22.0109 63.4386 20.3999 61.3236 20.3999ZM61.3236 26.5469C60.1626 26.5469 59.1636 25.5929 59.1636 24.2249C59.1636 22.8479 60.1626 21.9029 61.3236 21.9029C62.4846 21.9029 63.4836 22.8479 63.4836 24.2249C63.4836 25.5929 62.4756 26.5469 61.3236 26.5469ZM52.9356 20.3999C50.8206 20.3999 49.0926 22.0109 49.0926 24.2249C49.0926 26.4299 50.8206 28.0499 52.9356 28.0499C55.0506 28.0499 56.7786 26.4299 56.7786 24.2249C56.7786 22.0109 55.0506 20.3999 52.9356 20.3999ZM52.9356 26.5469C51.7746 26.5469 50.7756 25.5929 50.7756 24.2249C50.7756 22.8479 51.7746 21.9029 52.9356 21.9029C54.0966 21.9029 55.0956 22.8479 55.0956 24.2249C55.0956 25.5929 54.0966 26.5469 52.9356 26.5469ZM42.9636 21.5789V23.1989H46.8516C46.7346 24.1169 46.4286 24.7829 45.9696 25.2419C45.4026 25.8089 44.5206 26.4299 42.9726 26.4299C40.5786 26.4299 38.7066 24.5039 38.7066 22.1099C38.7066 19.7159 40.5786 17.7899 42.9726 17.7899C44.2596 17.7899 45.2046 18.2939 45.8976 18.9509L47.0406 17.8079C46.0686 16.8809 44.7816 16.1699 42.9636 16.1699C39.6876 16.1699 36.9336 18.8339 36.9336 22.1099C36.9336 25.3859 39.6876 28.0589 42.9636 28.0589C44.7276 28.0589 46.0686 27.4829 47.1126 26.3939C48.1836 25.3229 48.5166 23.8109 48.5166 22.5959C48.5166 22.2179 48.4896 21.8759 48.4266 21.5789H42.9636ZM83.7426 22.8389C83.4186 21.9839 82.4556 20.3999 80.4666 20.3999C78.4956 20.3999 76.8576 21.9479 76.8576 24.2249C76.8576 26.3669 78.4776 28.0499 80.6556 28.0499C82.4106 28.0499 83.4276 26.9789 83.8416 26.3579L82.5366 25.4849C82.1046 26.1239 81.5106 26.5469 80.6556 26.5469C79.8006 26.5469 79.1886 26.1509 78.8016 25.3859L83.9226 23.2709L83.7426 22.8389ZM78.5226 24.1169C78.4776 22.6409 79.6656 21.8849 80.5206 21.8849C81.1866 21.8849 81.7536 22.2179 81.9426 22.6949L78.5226 24.1169ZM74.3646 27.8249H76.0476V16.5749H74.3646V27.8249ZM71.6106 21.2549H71.5476C71.1696 20.8049 70.4496 20.3999 69.5316 20.3999C67.6146 20.3999 65.8596 22.0829 65.8596 24.2429C65.8596 26.3849 67.6146 28.0589 69.5316 28.0589C70.4496 28.0589 71.1696 27.6539 71.5476 27.1859H71.6016V27.7349C71.6016 29.2019 70.8186 29.9849 69.5586 29.9849C68.5326 29.9849 67.8936 29.2469 67.6326 28.6259L66.1656 29.2379C66.5886 30.2549 67.7046 31.4969 69.5586 31.4969C71.5296 31.4969 73.1946 30.3359 73.1946 27.5099V20.6339H71.6016V21.2549H71.6106ZM69.6756 26.5469C68.5146 26.5469 67.5426 25.5749 67.5426 24.2429C67.5426 22.8929 68.5146 21.9119 69.6756 21.9119C70.8186 21.9119 71.7186 22.9019 71.7186 24.2429C71.7276 25.5749 70.8276 26.5469 69.6756 26.5469ZM91.6266 16.5749H87.6036V27.8249H89.2776V23.5589H91.6266C93.4896 23.5589 95.3166 22.2089 95.3166 20.0669C95.3166 17.9249 93.4806 16.5749 91.6266 16.5749ZM91.6626 21.9929H89.2776V18.1319H91.6626C92.9226 18.1319 93.6336 19.1759 93.6336 20.0579C93.6336 20.9399 92.9226 21.9929 91.6626 21.9929ZM102.049 20.3819C100.834 20.3819 99.5736 20.9129 99.0516 22.1009L100.546 22.7219C100.861 22.1009 101.455 21.8939 102.076 21.8939C102.949 21.8939 103.831 22.4159 103.84 23.3429V23.4599C103.534 23.2889 102.886 23.0279 102.085 23.0279C100.483 23.0279 98.8446 23.9099 98.8446 25.5569C98.8446 27.0599 100.159 28.0319 101.635 28.0319C102.76 28.0319 103.39 27.5279 103.777 26.9339H103.831V27.7979H105.451V23.4869C105.46 21.4979 103.966 20.3819 102.049 20.3819ZM101.842 26.5469C101.293 26.5469 100.528 26.2679 100.528 25.5929C100.528 24.7289 101.482 24.3959 102.31 24.3959C103.048 24.3959 103.399 24.5579 103.849 24.7739C103.705 25.8089 102.814 26.5469 101.842 26.5469ZM111.364 20.6249L109.438 25.5029H109.384L107.386 20.6249H105.577L108.574 27.4379L106.864 31.2269H108.619L113.236 20.6249H111.364ZM96.2436 27.8249H97.9266V16.5749H96.2436V27.8249Z" fill="black"/>
<path d="M18.6475 18.3018L9.0625 28.4718V28.4808C9.3595 29.5878 10.3675 30.3978 11.5645 30.3978C12.0415 30.3978 12.4915 30.2718 12.8785 30.0378L12.9055 30.0198L23.6875 23.8008L18.6475 18.3018Z" fill="#E33928"/>
<path d="M28.3387 16.5742L28.3297 16.5652L23.6767 13.8652L18.4297 18.5362L23.6947 23.8012L28.3297 21.1282C29.1397 20.6872 29.6977 19.8322 29.6977 18.8512C29.6887 17.8612 29.1397 17.0152 28.3387 16.5742Z" fill="#F8BB00"/>
<path d="M9.0607 9.17578C9.0067 9.39178 8.9707 9.60778 8.9707 9.84178V27.8148C8.9707 28.0488 8.9977 28.2648 9.0607 28.4808L18.9697 18.5718L9.0607 9.17578Z" fill="#5A7DB9"/>
<path d="M18.7195 18.824L23.6785 13.865L12.9055 7.619C12.5095 7.385 12.0595 7.25 11.5645 7.25C10.3675 7.25 9.3595 8.06 9.0625 9.167L18.7195 18.824Z" fill="#1DA243"/>
<path d="M38.7603 12.3888C38.3103 12.1368 37.9593 11.7768 37.7073 11.3358C37.4553 10.8858 37.3203 10.3908 37.3203 9.85078C37.3203 9.31078 37.4463 8.81578 37.7073 8.36578C37.9593 7.91578 38.3103 7.56478 38.7603 7.31278C39.2103 7.06078 39.7053 6.92578 40.2453 6.92578C41.0823 6.92578 41.7753 7.23178 42.3243 7.84378L41.7213 8.42878C41.5323 8.19478 41.3163 8.02378 41.0733 7.91578C40.8393 7.79878 40.5603 7.74478 40.2543 7.74478C39.8763 7.74478 39.5253 7.83478 39.2103 8.00578C38.8953 8.17678 38.6523 8.42878 38.4633 8.75278C38.2833 9.07678 38.1933 9.44578 38.1933 9.85978C38.1933 10.2738 38.2833 10.6428 38.4633 10.9668C38.6433 11.2908 38.8953 11.5338 39.2103 11.7138C39.5253 11.8848 39.8673 11.9748 40.2543 11.9748C40.8933 11.9748 41.4243 11.7138 41.8563 11.1828L42.4773 11.7768C42.2073 12.0918 41.8833 12.3438 41.4963 12.5238C41.1183 12.7038 40.6953 12.7938 40.2453 12.7938C39.6963 12.7668 39.2013 12.6408 38.7603 12.3888Z" fill="black"/>
<path d="M43.4434 7.03418H44.3074V9.75218H44.3524L46.5844 7.03418H47.6644V7.07918L45.2974 9.87818L47.7904 12.5872V12.6322H46.6654L44.3524 10.0672H44.3074V12.6322H43.4434V7.03418Z" fill="black"/>
<path d="M50.4368 7.03418H51.4178L53.5418 12.6412H52.5968L52.0838 11.2012H49.7978L49.2848 12.6412H48.3398L50.4368 7.03418ZM51.7958 10.4092L51.1658 8.69018L50.9588 8.05118H50.9138L50.7068 8.69018L50.0768 10.4092H51.7958Z" fill="black"/>
<path d="M56.7815 10.1482C56.4305 10.4542 55.9985 10.6072 55.4855 10.6072C55.1435 10.6072 54.8375 10.5352 54.5675 10.4002C54.2975 10.2652 54.0815 10.0582 53.9195 9.79718C53.7665 9.53618 53.6855 9.23018 53.6855 8.87018V7.03418H54.5585V8.72618C54.5585 9.06818 54.6575 9.32918 54.8555 9.50918C55.0535 9.69818 55.3235 9.78818 55.6565 9.78818C56.1065 9.78818 56.4845 9.60818 56.7815 9.25718V7.03418H57.6365V12.6412H56.7815V10.1482Z" fill="black"/>
<path d="M60.5072 7.03418H61.4882L63.6122 12.6412H62.6672L62.1542 11.2012H59.8682L59.3552 12.6412H58.4102L60.5072 7.03418ZM61.8662 10.4092L61.2362 8.69018L61.0292 8.05118H60.9842L60.7772 8.69018L60.1472 10.4092H61.8662Z" fill="black"/>
<path d="M65.0594 7.85318H63.4844V7.03418H67.4894V7.84418H65.9234V12.6322H65.0594V7.85318Z" fill="black"/>
<path d="M68.3809 7.03418H69.2449V9.03218H70.4329C70.7839 9.03218 71.1079 9.10418 71.4049 9.24818C71.7019 9.39218 71.9359 9.59918 72.1159 9.87818C72.2959 10.1482 72.3859 10.4722 72.3859 10.8412C72.3859 11.2102 72.2959 11.5252 72.1159 11.8042C71.9359 12.0742 71.7019 12.2902 71.4049 12.4342C71.1079 12.5782 70.7839 12.6502 70.4329 12.6502H68.3809V7.03418ZM70.4959 11.8402C70.7029 11.8402 70.8829 11.7952 71.0359 11.6962C71.1889 11.6062 71.3149 11.4802 71.3959 11.3272C71.4769 11.1742 71.5219 11.0122 71.5219 10.8412C71.5219 10.6702 71.4769 10.5082 71.3959 10.3552C71.3149 10.2022 71.1889 10.0762 71.0359 9.97718C70.8829 9.87818 70.7029 9.83318 70.4959 9.83318H69.2449V11.8492H70.4959V11.8402Z" fill="black"/>
<path d="M75.1582 7.03418H76.0132V10.1392L75.9682 11.2192H76.0132L78.5242 7.03418H79.5052V12.6412H78.6502V9.46418L78.6952 8.38418H78.6502L76.0942 12.6412H75.1582V7.03418Z" fill="black"/>
<path d="M81.1868 12.4074C80.8358 12.1644 80.5928 11.8134 80.4668 11.3454L81.2588 11.0304C81.3308 11.3184 81.4568 11.5524 81.6548 11.7234C81.8528 11.8944 82.0778 11.9754 82.3478 11.9754C82.6358 11.9754 82.8788 11.8854 83.0858 11.7054C83.2928 11.5254 83.3918 11.3004 83.3918 11.0394C83.3918 10.8684 83.3378 10.7064 83.2388 10.5624C83.1398 10.4184 83.0048 10.3014 82.8338 10.2204C82.6628 10.1394 82.4738 10.0944 82.2668 10.0944H81.8078V9.33841H82.2218C82.5008 9.33841 82.7348 9.25741 82.9238 9.10441C83.1128 8.95141 83.2028 8.74441 83.2028 8.48341C83.2028 8.24941 83.1128 8.06041 82.9418 7.90741C82.7708 7.75441 82.5458 7.68241 82.2848 7.68241C82.0508 7.68241 81.8528 7.75441 81.6908 7.88941C81.5288 8.03341 81.4208 8.19541 81.3578 8.39341L80.6018 8.07841C80.7098 7.77241 80.9078 7.49341 81.2048 7.25941C81.4928 7.02541 81.8618 6.89941 82.3028 6.89941C82.6448 6.89941 82.9418 6.96241 83.2028 7.09741C83.4638 7.23241 83.6708 7.41241 83.8238 7.64641C83.9768 7.88041 84.0488 8.14141 84.0488 8.42941C84.0488 8.96941 83.8148 9.37441 83.3378 9.63541V9.68041C83.6078 9.79741 83.8238 9.97741 83.9858 10.2024C84.1568 10.4364 84.2378 10.7154 84.2378 11.0394C84.2378 11.3544 84.1568 11.6514 83.9948 11.9124C83.8328 12.1734 83.6078 12.3804 83.3198 12.5244C83.0318 12.6774 82.7078 12.7494 82.3568 12.7494C81.9248 12.7674 81.5378 12.6504 81.1868 12.4074Z" fill="black"/>
</g>
</g>
<defs>
<clipPath id="clip0_7090_8364">
<rect width="122.4" height="36" fill="white" transform="translate(0 0.824219)"/>
</clipPath>
</defs>
</svg>
