<svg width="72" height="24" viewBox="0 0 72 24" fill="none" xmlns="http://www.w3.org/2000/svg">
<mask id="mask0_7400_44" style="mask-type:luminance" maskUnits="userSpaceOnUse" x="0" y="0" width="72" height="24">
<path d="M71.0153 0.0606651H0.0917969V23.9393H71.0153V0.0606651Z" fill="white"/>
</mask>
<g mask="url(#mask0_7400_44)">
<path d="M52.9634 9.11926H51.9826V8.62068H54.5152V9.11926H53.5328V11.8246H52.9634V9.11926ZM62.3524 11.4204C62.0987 11.4204 61.8096 11.2847 61.6503 11.0678L61.2431 11.4484C61.4953 11.7464 61.926 11.9042 62.342 11.9042C62.9704 11.9042 63.5089 11.5694 63.5089 10.882C63.5089 10.2536 62.9837 10.0722 62.5721 9.94531C62.2108 9.83173 61.9614 9.74617 61.9614 9.45263C61.9614 9.14139 62.2639 9.01453 62.5265 9.01453C62.7536 9.01453 62.9926 9.13254 63.115 9.29037L63.4867 8.88325C63.2418 8.65314 62.876 8.53955 62.5544 8.53955C61.9748 8.53955 61.3832 8.82867 61.3832 9.48066C61.3832 10.0781 61.8037 10.2669 62.1916 10.3893C62.5943 10.5162 62.9291 10.612 62.9291 10.9469C62.9306 11.2891 62.6179 11.4204 62.3524 11.4204ZM59.3993 11.8231H59.9687V10.4336L61.1708 8.61921H60.51L59.6957 9.96743L58.8903 8.61921H58.1941L59.3963 10.4336V11.8231H59.3993ZM54.7129 10.2123C54.7129 9.18564 55.4402 8.53955 56.4269 8.53955C57.4256 8.53955 58.1543 9.18564 58.1543 10.2123C58.1543 11.2124 57.4256 11.9042 56.4269 11.9042C55.4416 11.9057 54.7129 11.2124 54.7129 10.2123ZM55.3324 10.2123C55.3324 10.8953 55.7794 11.3938 56.4314 11.3938C57.0878 11.3938 57.5348 10.8953 57.5348 10.2123C57.5348 9.55146 57.0966 9.04108 56.4314 9.04108C55.772 9.04256 55.3324 9.55294 55.3324 10.2123ZM70.7706 19.8431C70.8253 19.9788 70.9079 19.8033 70.9831 19.8446L70.9978 19.8756L71.0155 19.7591C70.9344 19.7856 70.8341 19.8756 70.7706 19.8431ZM70.5244 19.5644C70.5435 19.6175 70.486 19.6175 70.5745 19.5746C70.57 19.5687 70.5671 19.5658 70.5641 19.5614C70.5553 19.5644 70.545 19.5658 70.5244 19.5644ZM70.5641 19.5628C70.5317 19.5201 70.6054 19.554 70.5641 19.5628V19.5628ZM70.427 19.5614C70.4123 19.5304 70.3621 19.529 70.3769 19.5038C70.3252 19.5378 70.3399 19.5687 70.3783 19.6175L70.427 19.5614ZM70.3415 19.7266L70.3665 19.703C70.3592 19.6897 70.3517 19.6853 70.3415 19.7266ZM70.3916 19.6838C70.3916 19.7266 70.3989 19.6853 70.4196 19.6514L70.3665 19.703C70.3769 19.7237 70.3842 19.7694 70.3916 19.6838ZM70.4565 19.6691C70.4904 19.6956 70.5317 19.7104 70.4845 19.7664C70.5848 19.7325 70.5568 19.6366 70.4565 19.6691ZM70.7692 19.9906L70.8149 20.026L70.8444 19.9745C70.8282 20.001 70.7604 19.9479 70.7692 19.9906ZM70.1054 19.6647C70.0818 19.647 70.0405 19.6336 70.0317 19.5894C70.0331 19.6204 70.0612 19.6661 70.07 19.7045L70.1054 19.6647ZM70.07 19.7045L70.0169 19.7635C70.0715 19.762 70.0789 19.7369 70.07 19.7045ZM70.3517 19.8844L70.4359 19.765L70.334 19.8889L70.3517 19.8844ZM69.8045 19.6175L69.8281 19.5437L69.7823 19.6558L69.8045 19.6175ZM69.6541 19.6499C69.6718 19.5894 69.6069 19.5569 69.6275 19.5186C69.5876 19.5349 69.5597 19.5894 69.5345 19.6366C69.564 19.6086 69.601 19.6101 69.6541 19.6499ZM69.4903 19.7104C69.505 19.6942 69.5184 19.6676 69.5345 19.6381C69.5184 19.6543 69.5036 19.675 69.4903 19.7104ZM69.8561 19.6838L69.8915 19.765L69.9151 19.7635C69.918 19.7709 69.921 19.7738 69.921 19.7635H69.9151C69.9078 19.7458 69.8915 19.7001 69.8561 19.6838ZM69.8399 19.7679C69.8472 19.7679 69.862 19.7679 69.893 19.7679L69.8915 19.765C69.8649 19.7664 69.8472 19.7679 69.8399 19.7679ZM70.1703 20.0024C70.188 19.942 70.1423 19.9066 70.1851 19.8284C70.157 19.8801 70.0907 19.9405 70.1703 20.0024ZM70.0302 19.8741C70.0258 19.852 70.0095 19.821 70.0243 19.7959L69.9638 19.8638L69.9387 19.8608L69.9357 19.8962L69.9638 19.8653L70.0302 19.8741ZM69.6098 19.7738C69.5876 19.8136 69.5581 19.821 69.5257 19.8328C69.564 19.8446 69.6024 19.8476 69.6378 19.8431C69.6393 19.8151 69.6482 19.765 69.6098 19.7738ZM69.7485 19.7782L69.7426 19.7841C69.7469 19.79 69.7499 19.793 69.7485 19.7782ZM69.1997 19.8771H69.1938L69.2012 19.8918L69.1997 19.8771ZM69.7013 19.8181C69.682 19.8299 69.6614 19.8372 69.6378 19.8417C69.6364 19.8549 69.6378 19.8623 69.6452 19.8564C69.6761 19.8697 69.6895 19.8461 69.7013 19.8181ZM69.4033 19.762C69.4195 19.7782 69.4387 19.79 69.4578 19.8018C69.4387 19.7768 69.4047 19.7399 69.4033 19.762ZM69.7308 19.762L69.7337 19.7576C69.7233 19.7414 69.7249 19.7487 69.7308 19.762ZM69.7426 19.7841C69.7381 19.7782 69.7337 19.7709 69.7308 19.762C69.7174 19.7768 69.7101 19.7989 69.7013 19.8181C69.7174 19.8092 69.7308 19.7974 69.7426 19.7841ZM69.1525 20.0113C69.1805 20.0512 69.3059 20.0909 69.2631 20.1692C69.1864 20.2207 69.1909 20.1515 69.1451 20.1161C69.1938 20.2089 69.0611 20.2709 69.1008 20.4111L69.1657 20.3505C69.1702 20.3727 69.1496 20.4111 69.1717 20.4288C69.1643 20.3505 69.2263 20.2679 69.3 20.3432C69.3516 20.2768 69.2764 20.026 69.2012 19.8903C69.2027 19.9257 69.2071 19.9568 69.1525 20.0113ZM69.241 19.7768C69.2027 19.821 69.1982 19.8505 69.1997 19.8771L69.328 19.8697L69.3207 19.883L69.3443 19.8697C69.3133 19.8608 69.2882 19.8328 69.241 19.7768ZM69.4623 19.8638C69.4844 19.8461 69.505 19.8387 69.5257 19.8328C69.5021 19.8254 69.4785 19.8151 69.4564 19.8033L69.4594 19.8077V19.8092C69.4653 19.8195 69.4682 19.8254 69.4623 19.8195L69.4594 19.821C69.4608 19.8328 69.4594 19.8431 69.4578 19.8535C69.4195 19.8417 69.449 19.8313 69.4594 19.821V19.8077L69.4578 19.8063L69.3428 19.8697C69.3708 19.8771 69.4018 19.8712 69.4578 19.8535C69.4505 19.9405 69.3929 19.9863 69.4446 20.0718C69.5198 20.0555 69.4873 19.9936 69.5272 19.9509C69.4106 19.9892 69.5581 19.8992 69.4623 19.8638ZM70.1305 20.1942C70.1261 20.1869 70.1246 20.181 70.1246 20.1751C70.1172 20.1869 70.1157 20.1942 70.1305 20.1942ZM70.1157 20.0718L70.1084 20.085C70.0553 20.063 69.9786 19.9656 69.9859 19.9523C70.011 20.026 70.0302 20.0791 70.073 20.1499C70.0803 20.1367 70.0833 20.1013 70.1128 20.1072C70.1408 20.1293 70.1187 20.1485 70.1231 20.1751C70.1379 20.1499 70.1762 20.1057 70.1157 20.0718ZM69.6718 20.0791L69.7337 20.1456L69.7249 20.1013C69.7853 20.1102 69.7646 20.0585 69.7676 20.0231L69.6718 20.0791ZM69.1746 19.7458L69.1348 19.88L69.1746 19.8372V19.7458ZM69.0094 19.8387L69.0434 19.8653L69.0375 19.7871L69.0094 19.8387ZM67.6952 20.1145C67.6523 20.088 67.6199 20.0791 67.5919 20.0807C67.6464 20.1204 67.6966 20.1883 67.6952 20.1145ZM67.5933 20.0807C67.5535 20.0496 67.5107 20.0349 67.4842 20.0998C67.4916 20.1072 67.4989 20.1102 67.5078 20.1161C67.5329 20.0984 67.5579 20.0807 67.5933 20.0807ZM68.6894 20.2709C68.6878 20.2502 68.6908 20.2355 68.6937 20.2282C68.6908 20.2384 68.6878 20.2518 68.6894 20.2709ZM68.5551 19.945C68.5433 19.9361 68.53 19.9302 68.5153 19.9257C68.5212 19.9302 68.5344 19.9375 68.5551 19.945ZM68.5153 19.9243C68.5094 19.9198 68.5049 19.9155 68.5064 19.9125C68.5094 19.9021 68.533 19.9021 68.5064 19.9125C68.4976 19.9155 68.4872 19.9184 68.4681 19.9228C68.4843 19.9184 68.499 19.9214 68.5153 19.9243ZM68.6953 20.2266C68.6982 20.2207 68.7026 20.2207 68.7055 20.2164C68.7026 20.2178 68.6982 20.2207 68.6953 20.2266ZM68.9917 19.945C68.9077 19.9198 68.8501 20.06 68.7956 20.1293L68.8693 20.203C68.8546 20.3521 68.7468 20.2016 68.7055 20.2164C68.7307 20.1957 68.7749 20.2178 68.7822 20.2488L68.7468 20.1308C68.651 20.0968 68.5964 20.2016 68.5433 20.2709C68.6082 20.3019 68.4843 20.355 68.5403 20.4331L68.5846 20.4111C68.6127 20.4494 68.5728 20.4937 68.5536 20.5335C68.3943 20.4685 68.1377 20.5881 68.0698 20.501C68.1052 20.5276 68.1554 20.4921 68.176 20.4524L68.0993 20.4125C68.1554 20.3993 68.2158 20.4996 68.2925 20.4465C68.266 20.3727 68.3088 20.2591 68.2291 20.1633C68.0506 20.0689 68.1318 20.383 67.9371 20.383C67.9237 20.4095 67.9562 20.2518 67.8618 20.3108C67.7467 20.4095 67.6848 20.5999 67.7143 20.7651C67.7585 20.7075 67.8486 20.591 67.8854 20.7075C67.8411 20.7651 67.7542 20.8123 67.763 20.8904C67.6833 20.7621 67.8559 20.8314 67.7644 20.7282C67.7276 20.7385 67.7202 20.7872 67.707 20.8137C67.7217 20.7518 67.6568 20.7238 67.6391 20.6928C67.5181 20.7134 67.437 20.6662 67.3057 20.678C67.313 20.6898 67.3146 20.6928 67.3028 20.678H67.3057C67.2953 20.6589 67.2733 20.6176 67.2703 20.5836C67.2143 20.6323 67.1626 20.8566 67.2025 20.9376C67.1301 20.9569 67.1124 20.892 67.0579 20.9421C67.1818 21.0468 67.0343 20.9244 67.0491 21.0601C66.9885 21.0881 67.0137 20.9996 66.9783 20.9746C66.9708 20.9907 66.9531 21.0395 66.959 21.0749C66.9 20.9819 66.9842 20.7976 66.9148 20.6898C66.8676 20.6205 66.7319 20.5423 66.7437 20.535C66.6213 20.6146 66.9104 20.9966 66.8603 21.2297C66.844 21.3079 66.7836 21.1589 66.7541 21.1575C66.6478 21.0497 66.6508 21.2814 66.5741 21.246L66.6109 21.1648C66.5932 21.1353 66.5017 21.1972 66.4958 21.246C66.484 21.2031 66.5003 21.01 66.459 20.9657C66.3322 20.9687 66.2687 21.2326 66.3041 21.361C66.3041 21.361 66.3926 21.1398 66.4162 21.1929C66.4708 21.3138 66.4561 21.3374 66.3882 21.4525C66.366 21.4908 66.2185 21.4938 66.2097 21.4495C66.2053 21.4274 66.2893 21.3964 66.2496 21.3418C66.1772 21.364 66.2083 21.3315 66.1477 21.2902C66.2008 21.1353 66.2791 20.7474 66.2997 20.5674C66.2997 20.5674 66.2555 20.6618 66.226 20.6589C66.2083 20.6574 66.1906 20.5999 66.1906 20.5999C66.0917 20.7105 66.167 21.2194 66.0769 21.2769C65.9811 21.3374 65.9752 21.0261 65.9811 20.9775C65.9737 20.9789 65.9678 20.9834 65.9619 20.9864C65.9664 21.0188 65.9678 21.0513 65.9648 21.0837C65.9487 21.2326 65.8704 21.3492 65.7451 21.4141C65.7347 21.42 65.7229 21.4244 65.7111 21.4274C65.0282 21.6443 64.3511 21.8242 63.6977 21.9629C63.1238 22.0868 62.519 22.1944 61.901 22.2859C61.4953 22.3449 61.1192 22.3744 60.7784 22.3744C60.5867 22.3744 60.4067 22.3655 60.2371 22.3464C60.2297 22.3449 60.2238 22.3449 60.2165 22.3434C59.3122 22.156 59.2325 21.625 59.265 21.3256C59.296 21.0454 59.4258 20.74 59.6515 20.417C59.8625 20.1131 60.1058 19.8225 60.3728 19.554C60.6118 19.3136 60.8463 19.0997 61.0691 18.9168C61.0012 18.9183 60.9304 18.9183 60.8551 18.9183C60.364 18.9227 59.8521 18.9153 59.3314 18.8961C59.3255 18.8961 59.321 18.8961 59.3151 18.8947L58.6868 18.8253C58.6691 18.8239 58.6529 18.8209 58.6366 18.818C57.0907 19.9214 54.6023 20.9376 53.406 21.327C53.4045 21.327 53.4001 21.3286 53.3942 21.3286C53.3101 21.3595 53.223 21.3861 53.1286 21.4112C52.8012 21.4967 52.5062 21.541 52.254 21.541C52.2524 21.541 52.2524 21.541 52.251 21.541C52.2259 21.541 52.2023 21.538 52.1773 21.5365C52.1403 21.538 52.1035 21.541 52.0681 21.541C52.0666 21.541 52.0666 21.541 52.0652 21.541C51.7834 21.541 51.5532 21.4761 51.3792 21.3492C51.2214 21.2342 51.093 21.0999 50.9972 20.9494C50.9013 20.8005 50.8379 20.6485 50.8039 20.4951C50.773 20.3521 50.7582 20.2384 50.7582 20.1499C50.7582 19.9611 50.7361 19.6912 50.8216 19.3239C50.6564 19.3386 50.4868 19.352 50.3083 19.3593C49.59 19.3874 48.6591 19.1042 48.1562 18.9094L47.2637 19.6041C47.2578 19.6101 47.2534 19.6175 47.246 19.6234L47.1516 19.6956C47.0867 19.7458 47.0204 19.7974 46.951 19.849C46.5336 20.1529 46.1072 20.4302 45.6824 20.6736C45.2326 20.9303 44.7989 21.0837 44.3932 21.1309C44.3593 21.1353 44.3253 21.1368 44.2915 21.1368C44.0525 21.1368 43.8327 21.0365 43.6379 20.8359C43.43 20.6235 43.3075 20.3816 43.278 20.1204C43.2471 19.8535 43.3091 19.5467 43.4625 19.2059C43.6055 18.8902 43.7855 18.5761 43.9994 18.2722C44.0392 18.2162 44.0952 18.1395 44.1601 18.0509C42.6791 19.1793 41.0817 20.1381 40.0623 20.5055C40.0609 20.5055 40.0358 20.5098 39.9945 20.5158C39.8617 20.5586 39.7305 20.5925 39.5903 20.6294C39.5417 20.6426 39.4915 20.6544 39.4399 20.6677C39.0962 20.7577 38.7879 20.8035 38.5224 20.8035C38.2214 20.8035 37.9781 20.7341 37.7952 20.5999C37.63 20.4774 37.4943 20.3358 37.394 20.1794C37.2937 20.0231 37.2258 19.8623 37.1904 19.7001C37.158 19.5496 37.1432 19.4301 37.1432 19.3357C37.1432 19.1439 37.1698 18.9625 37.2213 18.7929C37.1387 18.8386 37.0577 18.8814 36.978 18.9227C36.6859 19.0731 36.4824 19.1675 36.3555 19.2088C36.2375 19.2605 36.0885 19.318 35.9144 19.3799C35.761 19.433 35.5973 19.4979 35.4292 19.5732C35.3997 19.5864 35.3686 19.5923 35.3362 19.5923C35.2654 19.5923 35.1326 19.5687 35.0382 19.4065C34.9881 19.3239 34.963 19.2399 34.963 19.1587C34.963 18.9374 35.0781 18.846 35.1474 18.8121C35.1548 18.8076 35.1621 18.8047 35.171 18.8017C35.3023 18.7531 35.438 18.7 35.6121 18.6321C35.7478 18.5775 35.8731 18.523 35.9823 18.4683C36.4145 18.2618 36.7936 18.0553 37.1092 17.8517C37.4795 17.6305 37.7524 17.4344 37.9191 17.2662C38.0769 17.1083 38.1801 16.9682 38.2259 16.8473C38.2908 16.6762 38.3542 16.5434 38.4221 16.4416C38.5224 16.2926 38.6714 16.21 38.8439 16.21C39.0225 16.21 39.1847 16.2557 39.3263 16.3472C39.4473 16.4254 39.5903 16.5802 39.5903 16.8723C39.5903 16.9741 39.552 17.0847 39.4709 17.2204L39.2628 17.5302C39.1759 17.66 39.0888 17.8134 39.0062 17.989C38.9236 18.1631 38.8498 18.3519 38.7879 18.548C38.7289 18.7339 38.698 18.9124 38.698 19.0806C38.698 19.2295 38.7495 19.3534 38.8587 19.4625C38.9664 19.5703 39.1523 19.6248 39.4133 19.6263C39.5107 19.6263 39.8411 19.5585 40.1479 19.4877C40.912 19.2413 41.8841 18.7309 43.0554 17.9565C43.3297 17.775 43.6409 17.5744 43.9418 17.3813C44.5466 16.9918 45.1736 16.5891 45.532 16.3192C45.6087 16.2616 45.6706 16.241 45.7194 16.2557C45.8669 16.2233 46.0689 16.2262 46.2164 16.2749C46.6029 16.4018 46.7755 16.8561 46.7297 17.126C46.7091 17.247 46.5704 17.458 45.8594 18.461C45.6146 18.8062 45.383 19.1321 45.2562 19.3268L45.2178 19.3844C45.1765 19.4464 45.0585 19.6234 45.0349 19.7119C45.0039 19.8166 45.2015 19.7945 45.2517 19.7886C45.5718 19.7517 45.9583 19.5658 46.4008 19.2399L47.8907 17.9329C47.898 17.9255 47.9068 17.9196 47.9157 17.9137C48.0278 17.8415 48.286 17.7721 48.5486 17.9639L48.6636 18.0494C48.9557 18.2693 49.1666 18.427 49.8732 18.5053C50.1682 18.5377 50.6062 18.5082 51.1255 18.4211C51.2686 18.045 51.4411 17.6438 51.602 17.3443C51.6034 17.3414 51.6034 17.3384 51.6049 17.3355C51.9456 16.5995 52.4575 16.0492 53.1272 15.6967C53.4045 15.5522 53.7468 15.4739 54.0418 15.4916C54.5359 15.5197 54.9282 15.7542 55.1171 16.1348C55.3088 16.5212 55.2587 16.9859 54.9754 17.4063C54.4017 18.2575 53.6199 18.5804 52.8676 18.877C52.8307 18.8917 52.7776 18.9094 52.7127 18.9301C52.6979 18.9345 52.6832 18.9404 52.6684 18.9448C52.605 19.0865 52.5475 19.2354 52.4973 19.3917C52.4398 19.5717 52.4103 19.7443 52.4103 19.9066C52.4103 20.0526 52.4619 20.1765 52.5696 20.2827C52.6581 20.3727 52.8057 20.4229 52.9988 20.4361C53.1139 20.4213 53.3101 20.3816 53.5122 20.3373C54.6008 20.0349 56.4049 19.2635 57.4654 18.6217C57.545 18.5745 57.6203 18.5244 57.697 18.4758C57.6823 18.4624 57.666 18.4506 57.6512 18.4374C57.6439 18.4315 57.638 18.4241 57.6321 18.4168C57.5391 18.3017 57.4876 18.2044 57.4683 18.1084C57.464 18.0863 57.4624 18.0642 57.4654 18.0421C57.4905 17.8179 57.6306 17.5819 57.8961 17.3178C58.1351 17.0818 58.4139 16.8664 58.7266 16.6791C59.0319 16.4962 59.3446 16.3398 59.6589 16.2144C59.9982 16.0787 60.2651 16.0242 60.4731 16.0478C60.7416 16.0757 60.836 16.2484 60.8685 16.3487C60.9068 16.4681 60.9186 16.592 60.9053 16.7159C60.8876 16.8811 60.4038 17.4196 60.1309 17.7101C60.1604 17.7146 60.1929 17.7205 60.2297 17.7249L60.6575 17.7721C60.8433 17.7927 61.0587 17.8016 61.2933 17.8002C61.5322 17.8002 61.786 17.7898 62.0485 17.7707C62.2978 17.7514 62.5383 17.7176 62.7668 17.6688C62.7904 17.6629 62.8126 17.6629 62.8362 17.6659C62.9586 17.6792 63.0648 17.7514 63.1504 17.8769C63.23 17.9949 63.2625 18.1173 63.2492 18.2441C63.2138 18.5745 63.0353 18.787 62.7462 18.8489C62.6134 18.9256 62.4409 19.0363 62.2344 19.1779C62.0131 19.3313 61.7978 19.5083 61.5956 19.703C61.3877 19.9037 61.2003 20.1086 61.041 20.3108C60.8994 20.4907 60.8197 20.6559 60.8036 20.8049C60.7918 20.9067 60.8227 20.9848 60.9039 21.0586C60.9584 21.1087 61.1104 21.1972 61.5205 21.243C61.9954 21.2946 62.4748 21.2902 62.9438 21.2312C63.4218 21.1707 63.8599 21.094 64.2464 21.0055C64.714 20.9052 65.1565 20.7813 65.5651 20.6397C65.5946 20.6294 65.6271 20.6249 65.658 20.6294C65.6625 20.6294 65.6684 20.6308 65.6743 20.6323C65.6831 20.6176 65.6934 20.6161 65.7067 20.6397C65.7111 20.6412 65.7156 20.6426 65.72 20.6441C65.7274 20.6235 65.7362 20.6043 65.748 20.5881C65.7141 20.5217 65.8734 20.5025 65.8734 20.5055C65.869 20.5364 65.9029 20.4996 65.9471 20.4907C66.1359 20.4553 66.1758 20.237 66.3528 20.4052C66.3292 20.3889 66.2982 20.3859 66.2968 20.4213C66.4073 20.3889 66.546 20.4981 66.6036 20.4125L66.5814 20.3255C66.6567 20.2695 66.7142 20.2266 66.782 20.2178C66.782 20.2178 66.7481 20.1352 66.7658 20.1175C66.841 20.0437 67.0491 19.9391 67.1464 20.1322C67.1553 20.0482 67.2762 20.0762 67.3352 20.0939C67.3543 20.0998 67.3632 20.1676 67.3632 20.1676C67.4399 20.1794 67.4798 20.144 67.5181 20.1145C67.6922 20.2473 67.7984 20.0644 67.9282 20.0541L67.9326 20.0762L68.0535 20.001C68.0315 20.0762 68.0712 19.9493 68.1141 19.9627C68.1495 19.9184 68.2188 19.9287 68.2763 19.97L68.3589 19.9611C68.2748 20.0276 68.3825 20.0703 68.4017 20.1574L68.443 20.0791C68.471 20.1175 68.4209 20.1529 68.4622 20.1662C68.4902 20.1131 68.5949 20.0998 68.6127 20.004C68.6038 19.9818 68.5891 19.9641 68.5698 19.9493C68.5669 19.9552 68.5669 19.9538 68.5684 19.9479L68.5639 19.9434L68.5684 19.945C68.5714 19.9361 68.5757 19.9198 68.5773 19.908C68.5698 19.9066 68.5625 19.9051 68.5521 19.9037C68.5743 19.8844 68.5787 19.8933 68.5787 19.908C68.6481 19.9169 68.617 19.8844 68.6097 19.8461C68.7055 19.9715 68.7336 19.8726 68.8147 20.0246C68.71 19.8549 68.9844 19.9951 68.9106 19.8299C68.9769 19.9627 68.9386 19.8313 68.9917 19.945ZM53.1744 17.8621C53.5904 17.6733 53.9045 17.3813 54.1863 16.9741C54.2424 16.8945 54.3191 16.6805 54.114 16.6717C54.0874 16.6703 54.0343 16.6923 53.9739 16.7706C53.6685 17.1644 53.4429 17.4741 53.1744 17.8621ZM68.2114 20.0378C68.176 20.0246 68.1583 20.0128 68.2099 20.0423C68.2099 20.0408 68.2114 20.0378 68.2114 20.0378ZM68.7926 19.88C68.7881 19.8579 68.772 19.8284 68.7897 19.824L68.7321 19.8579C68.7616 19.849 68.7763 19.8682 68.7926 19.88ZM69.4033 20.3328C69.4106 20.3196 69.4224 20.3285 69.4283 20.3151L69.4195 20.2709C69.3826 20.2813 69.3605 20.3196 69.4033 20.3328ZM68.8943 20.1293C68.912 20.2089 68.9445 20.1751 68.9858 20.1529C68.9828 20.1544 68.9814 20.1544 68.9785 20.1544C68.9726 20.0423 68.9327 20.0866 68.8943 20.1293ZM68.9946 20.1499C69.0064 20.144 69.0198 20.1397 69.033 20.1426C69.0316 20.0954 69.0153 20.1352 68.9946 20.1499ZM68.4238 19.9922C68.4474 20.0099 68.4209 19.8889 68.4371 19.9184C68.4445 19.8136 68.322 20.063 68.4238 19.9922ZM68.9254 20.3741L68.9667 20.3875L68.9372 20.2915L68.9254 20.3741ZM68.7085 20.3476C68.6658 20.3505 68.617 20.3387 68.6245 20.3668L68.6967 20.383C68.6908 20.3682 68.6982 20.3564 68.7085 20.3476C68.7307 20.3462 68.7513 20.3403 68.7602 20.3226C68.7484 20.3255 68.7232 20.3328 68.7085 20.3476ZM68.8088 20.414L68.8811 20.4317L68.8575 20.414H68.8088ZM67.8736 20.5394C67.8869 20.5128 67.9119 20.4951 67.8958 20.4642L67.8279 20.5055C67.825 20.5409 67.8486 20.5571 67.8736 20.5394ZM68.1347 20.7488L68.1613 20.6957C68.1377 20.678 68.1332 20.6574 68.117 20.6264L68.1347 20.7488ZM67.9532 20.7592C67.9518 20.7946 67.8647 20.8757 67.9548 20.8507C67.9562 20.8167 68.0256 20.7754 67.9532 20.7592ZM65.987 21.3211C65.9206 21.2916 65.9132 21.361 65.9664 21.4849C66.0622 21.5144 65.9589 21.3581 66.049 21.4008C66.0592 21.3492 66.0297 21.3404 65.987 21.3211ZM37.5533 13.9546C36.4248 14.9592 35.3273 15.8855 34.2918 16.7071C33.3021 17.4918 32.4642 18.135 31.8019 18.6174C31.5275 19.8151 31.4081 20.9126 31.4464 21.8787L31.4612 22.252C31.4685 22.4172 31.4435 22.5706 31.3874 22.7093C31.3151 22.8847 31.1485 23.0072 30.8903 23.0735C30.8136 23.1001 30.7177 23.1164 30.6056 23.1208C30.5894 23.1223 30.5717 23.1223 30.5555 23.1223C30.2251 23.1223 30.0495 22.9807 29.9596 22.8611C29.84 22.7034 29.7766 22.5219 29.7678 22.3213C29.756 21.0159 29.9964 19.5496 30.4847 17.9639C30.8476 16.7867 31.3048 15.5817 31.8506 14.3706C31.8211 14.3986 31.7916 14.4281 31.7621 14.4561C30.6646 15.502 29.5981 16.4638 28.5936 17.3164C27.6303 18.135 26.8147 18.8047 26.17 19.3091C25.9355 20.5173 25.8529 21.6177 25.9237 22.5795L25.9517 22.9512C25.9635 23.1164 25.9428 23.2712 25.8927 23.4114C25.8264 23.5898 25.6626 23.7182 25.4074 23.7904C25.3322 23.8199 25.2378 23.8392 25.1242 23.848C25.0932 23.8494 25.0652 23.851 25.0387 23.851C24.7303 23.851 24.5592 23.7182 24.4707 23.6075C24.3468 23.4541 24.276 23.2742 24.2612 23.0751C24.2229 22.1989 24.2996 21.243 24.484 20.2266L24.4014 20.2709C24.2229 20.3682 23.9914 20.4981 23.7155 20.6574C23.4338 20.8212 23.1211 20.9848 22.7877 21.1457C22.4587 21.3034 22.1312 21.448 21.8112 21.5764C21.4822 21.7092 21.1799 21.7918 20.9128 21.8242C20.6178 21.8596 20.3686 21.8197 20.1694 21.7076C19.9894 21.6059 19.8389 21.4805 19.7209 21.3359C19.6015 21.1913 19.5144 21.0395 19.4629 20.8845C19.4127 20.7385 19.3832 20.622 19.3728 20.5305C19.3507 20.3358 19.3551 20.144 19.3862 19.9597C19.3478 19.9951 19.3065 20.0305 19.2652 20.0689C18.9377 20.3609 18.5631 20.6618 18.1514 20.9628C17.7355 21.2666 17.3077 21.5454 16.8815 21.7888C16.4301 22.0455 15.9949 22.2003 15.5863 22.2475C15.5523 22.252 15.5169 22.2534 15.4831 22.2534C15.2396 22.2534 15.017 22.1501 14.8193 21.9481C14.6083 21.7328 14.4859 21.4893 14.4549 21.2238C14.424 20.9553 14.4859 20.6456 14.6393 20.3019C14.7824 19.9847 14.9639 19.6691 15.1777 19.3652C15.3842 19.0702 15.5922 18.7899 15.7972 18.5318C15.9817 18.2988 16.1262 18.1335 16.2383 18.0273C16.2456 18.014 16.2531 18.0037 16.2619 17.9934C16.3046 17.9388 16.3681 17.9049 16.4389 17.8975L16.5495 17.8842C16.7059 17.8651 16.8475 17.9019 16.9582 17.9919C17.0068 18.0303 17.0673 18.104 17.0821 18.228C17.0982 18.368 17.0349 18.5273 16.8785 18.7427C16.7619 18.9006 16.6336 19.0806 16.4964 19.2753C16.3636 19.4641 16.2442 19.6676 16.1424 19.8785C16.0525 20.0644 16.02 20.2459 16.0421 20.4317C16.0584 20.5704 16.1115 20.681 16.2043 20.774C16.3105 20.8786 16.3888 20.8816 16.4389 20.8757C16.7576 20.8389 17.1454 20.653 17.5895 20.324C18.06 19.9759 18.5202 19.5821 18.9584 19.1543C19.4731 18.6542 20.0071 18.0996 20.5456 17.5036C20.5824 17.4623 20.6341 17.4358 20.6886 17.4299C20.8583 17.4092 21.0087 17.4255 21.1385 17.4786C21.258 17.5288 21.4084 17.6511 21.4438 17.9491C21.4556 18.0494 21.4306 18.1674 21.3657 18.309C21.3628 18.3149 21.3598 18.3224 21.3553 18.3283C21.3376 18.3592 21.2802 18.4817 21.1474 18.9153C21.053 19.2236 21.022 19.526 21.0559 19.8151C21.0618 19.8667 21.0751 19.9405 21.0957 20.0349C21.112 20.1145 21.1459 20.2001 21.1946 20.2872C21.2403 20.3668 21.3008 20.4347 21.3789 20.4922C21.4336 20.532 21.5309 20.5468 21.6592 20.5305C21.8495 20.5084 22.0604 20.4508 22.2876 20.3609C22.5324 20.2636 22.7788 20.1574 23.0163 20.0437C23.2523 19.9332 23.4795 19.8195 23.6889 19.7074C23.8895 19.6012 24.0577 19.5142 24.1757 19.4582L24.7112 19.1675C24.7496 19.0112 24.7879 18.8548 24.8306 18.6955C25.2629 17.1039 25.8647 15.4592 26.6184 13.8086C27.3723 12.1565 28.2705 10.5221 29.2883 8.94963C30.3047 7.37719 31.38 5.94783 32.4819 4.70286C33.5883 3.45346 34.7182 2.41943 35.8407 1.63173C36.9839 0.82929 38.0755 0.383814 39.0858 0.31006C39.6391 0.268758 40.0653 0.364638 40.3559 0.593276C40.6569 0.830765 40.8294 1.31607 40.8854 2.07869C40.887 2.09491 40.8854 2.11261 40.887 2.12884C41.2793 1.81907 41.6717 1.5329 42.0611 1.27771C43.2308 0.513622 44.3371 0.106498 45.349 0.0651959C45.9052 0.0430696 46.3271 0.153701 46.6103 0.392665C46.9008 0.639004 47.0572 1.12431 47.0882 1.87955V1.89282C47.1162 2.60382 46.8389 3.45936 46.2606 4.43439C45.7001 5.38287 44.9553 6.40806 44.0451 7.48339C43.1423 8.55135 42.1068 9.65619 40.971 10.7669C39.8338 11.8762 38.6846 12.9486 37.5533 13.9546ZM33.131 11.8069C33.7741 10.6386 34.4865 9.48803 35.264 8.3714C36.3333 6.83436 37.4559 5.44188 38.5991 4.23378C38.7127 4.1143 38.8262 3.99777 38.9399 3.88271C39.1995 3.26318 39.316 2.7351 39.285 2.31027C39.2703 2.10966 39.2009 1.93708 39.074 1.78367C38.9826 1.67304 38.8219 1.61698 38.5991 1.61698C38.5637 1.61698 38.5253 1.61846 38.487 1.62141C37.7657 1.67451 36.9971 1.96805 36.2021 2.49318C35.3893 3.03011 34.5648 3.74406 33.7535 4.61288C32.9363 5.4876 32.1279 6.50689 31.3505 7.6427C30.5687 8.78589 29.84 9.99841 29.1837 11.2478C28.5242 12.5031 27.9416 13.7923 27.449 15.0786C27.0448 16.1333 26.7099 17.1673 26.4518 18.1513C26.9887 17.7235 27.6112 17.1954 28.303 16.5773C29.2293 15.7498 30.2088 14.819 31.2134 13.81C31.8536 13.1655 32.4952 12.4942 33.131 11.8069ZM37.0296 13.2937C38.0607 12.3247 39.1051 11.2862 40.1302 10.2064C41.1466 9.13549 42.07 8.07048 42.8768 7.03939C43.6778 6.01568 44.3283 5.05245 44.8107 4.17625C45.2798 3.32661 45.5054 2.61857 45.4833 2.07131C45.4759 1.8707 45.4125 1.69516 45.29 1.53733C45.1956 1.41637 45.0231 1.35442 44.7753 1.35442C44.7546 1.35442 44.7325 1.35442 44.7104 1.35589C43.989 1.38392 43.2117 1.65091 42.3975 2.15096C41.8295 2.50056 41.2528 2.93276 40.6775 3.43871C40.5536 3.81633 40.3766 4.21903 40.1435 4.64681C39.6169 5.61151 38.9059 6.66177 38.0312 7.76809C37.1609 8.8685 36.1652 10.0073 35.0692 11.1519C34.8834 11.3452 34.6975 11.5369 34.5101 11.7287C34.0411 12.6211 33.6103 13.5268 33.2283 14.434C32.7888 15.4739 32.4185 16.4962 32.1279 17.4712C32.681 17.0611 33.3212 16.5537 34.0308 15.9607C34.9851 15.1627 35.9941 14.2643 37.0296 13.2937ZM40.592 12.6447C40.4179 12.7524 40.2645 12.8896 40.1347 13.0504C40.0092 13.2068 39.903 13.3763 39.8204 13.5519C39.7305 13.7422 39.6847 13.9237 39.6833 14.0889C39.6833 14.3056 39.7512 14.4753 39.8839 14.5948C40.0108 14.7069 40.1892 14.7645 40.4149 14.7645H40.4164C40.6111 14.7645 40.8014 14.7039 40.9784 14.5859C41.1392 14.4797 41.2867 14.344 41.4165 14.1817C41.5404 14.0254 41.6466 13.8572 41.7307 13.6802C41.8206 13.4885 41.8664 13.3085 41.8664 13.1433C41.8664 12.7141 41.5994 12.4677 41.1348 12.4677C40.971 12.4706 40.7792 12.5282 40.592 12.6447ZM16.7281 15.7616L16.731 15.7587C16.8858 15.5374 17.0467 15.3087 17.1883 15.0742C17.3181 14.8589 17.5703 14.4016 17.6721 14.2157C17.7974 13.9679 18.0556 13.3527 17.7502 12.9958C17.5408 12.7509 17.1647 12.72 16.5982 12.9C16.464 12.9427 16.2767 13.0076 16.0466 13.0872C15.1202 13.4088 13.5698 13.9473 11.8957 14.282C11.7511 14.3115 11.6051 14.341 11.4649 14.3706L11.4413 14.375C10.9737 14.4724 10.5327 14.5653 10.0872 14.614C8.87027 14.7468 7.91884 14.7541 7.35093 14.757C7.1931 14.7586 7.05739 14.7586 6.96003 14.7629C6.53963 14.7777 6.19889 14.7733 5.9496 14.7497C5.8965 14.7438 5.84634 14.7393 5.80799 14.7379C5.75341 14.7364 5.70031 14.7393 5.65311 14.7511C5.50265 14.7822 5.42299 14.8632 5.38317 14.9252C5.32121 15.0211 5.30499 15.1376 5.33301 15.2719C5.40087 15.5949 5.5764 15.8663 5.85667 16.0816C6.13251 16.2926 6.56323 16.3959 7.17539 16.3959C7.18572 16.3959 7.19605 16.3959 7.20637 16.3959C7.41878 16.3841 7.92031 16.3398 8.73898 16.2602C9.5488 16.1805 10.5224 16.0212 11.6331 15.7866C12.6332 15.5758 13.5124 15.3722 14.2484 15.1848C14.4667 15.1287 14.6836 15.0742 14.8945 15.0211L14.9284 15.0123C15.3901 14.8972 15.868 14.7777 16.3253 14.6449C16.3371 14.642 16.3489 14.6376 16.3607 14.6346C15.9388 15.3235 15.43 16.0374 14.7617 16.8827C13.9268 17.9388 11.8957 20.0305 9.57536 21.1811C8.85256 21.538 8.06192 21.7932 7.15622 21.9599C6.54701 22.072 5.96583 22.1 5.42594 22.0425C4.89344 21.9865 4.39781 21.8345 3.95529 21.5896C3.51571 21.3463 3.13956 21.0084 2.83865 20.5866C2.53626 20.1647 2.32679 19.6381 2.21321 19.0216C2.02588 18.0067 2.0716 16.9505 2.34744 15.881C2.62624 14.7983 3.06729 13.7363 3.65732 12.7244C4.2503 11.7066 4.97457 10.7227 5.80799 9.80075C6.30805 9.24907 6.83908 8.71509 7.38781 8.21356C7.81558 7.85364 8.20205 7.5483 8.56935 7.27983C9.63583 6.49804 10.7761 5.8077 11.9606 5.22504C13.1436 4.64386 14.328 4.19691 15.4845 3.89451C15.9742 3.76618 16.492 3.65703 17.0231 3.56704C17.5452 3.48002 18.094 3.41806 18.653 3.38413C18.7562 3.38708 18.864 3.39299 18.9702 3.40479C18.9613 3.41954 18.948 3.43871 18.9259 3.46379C18.8093 3.56704 18.7047 3.6821 18.6162 3.80896C18.4982 3.97712 18.4568 4.1379 18.4952 4.28394C18.5365 4.43734 18.684 4.59223 18.9657 4.51847C18.9834 4.51405 19.0011 4.50667 19.0174 4.49782C19.3256 4.32819 19.5986 4.132 19.8271 3.91074C20.0293 3.71308 20.1959 3.49477 20.3257 3.2617C20.4748 2.99471 20.5086 2.70412 20.4276 2.39583C20.342 2.06983 20.1192 1.84267 19.7815 1.73942C19.4894 1.64944 19.1545 1.61698 18.7857 1.64206C18.4288 1.66566 18.0527 1.72024 17.6647 1.80579C17.2811 1.8884 16.9287 1.97248 16.6144 2.05508C15.3665 2.38108 14.0552 2.88998 12.7158 3.56852C11.3779 4.24558 10.0607 5.0495 8.79799 5.95816C8.39824 6.2458 7.99259 6.55704 7.51909 6.94204C7.48516 6.94941 7.45124 6.96711 7.42468 6.98924C7.18277 7.19428 6.93496 7.41111 6.66797 7.65303L6.58241 7.72236C6.56914 7.73416 6.55733 7.74743 6.54848 7.76071C5.9614 8.29764 5.39792 8.85375 4.87426 9.41133C3.83138 10.5206 2.92125 11.6859 2.16896 12.8734C1.41224 14.0653 0.838436 15.2792 0.46524 16.4815C0.0876191 17.6983 -0.00383619 18.8652 0.1953 19.9479C0.453439 21.3477 1.0951 22.4231 2.10406 23.1473C2.83717 23.674 3.7119 23.9409 4.70315 23.9409C5.0734 23.9409 5.46577 23.9025 5.86847 23.8288C6.61781 23.6917 7.40698 23.4394 8.21385 23.081C9.0104 22.727 9.82907 22.3154 10.6492 21.8551C12.1169 20.8949 13.4003 19.8933 14.0832 19.175C15.0066 18.2044 15.7854 17.1157 16.6366 15.8944L16.7281 15.7616Z" fill="#B0B2B5"/>
</g>
</svg>
