<svg width="229" height="78" viewBox="0 0 229 78" fill="none" xmlns="http://www.w3.org/2000/svg">
<mask id="mask0_7076_455" style="mask-type:luminance" maskUnits="userSpaceOnUse" x="0" y="0" width="229" height="78">
<path d="M229 0.949707H0.940918V77.7332H229V0.949707Z" fill="white"/>
</mask>
<g mask="url(#mask0_7076_455)">
<path d="M170.953 30.0784H167.799V28.4752H175.943V30.0784H172.784V38.7775H170.953V30.0784ZM201.144 37.4779C200.328 37.4779 199.398 37.0415 198.886 36.3442L197.577 37.568C198.388 38.5261 199.773 39.0336 201.11 39.0336C203.131 39.0336 204.863 37.9569 204.863 35.7466C204.863 33.726 203.174 33.1426 201.85 32.7346C200.689 32.3694 199.887 32.0943 199.887 31.1504C199.887 30.1496 200.859 29.7417 201.704 29.7417C202.434 29.7417 203.202 30.1211 203.596 30.6286L204.791 29.3195C204.004 28.5796 202.828 28.2143 201.793 28.2143C199.93 28.2143 198.027 29.144 198.027 31.2405C198.027 33.1615 199.379 33.7687 200.627 34.1623C201.922 34.5703 202.998 34.8786 202.998 35.9553C203.003 37.0557 201.998 37.4779 201.144 37.4779ZM191.648 38.7728H193.479V34.3046L197.344 28.4705H195.219L192.601 32.8058L190.011 28.4705H187.772L191.638 34.3046V38.7728H191.648ZM176.578 33.5932C176.578 30.2919 178.917 28.2143 182.09 28.2143C185.301 28.2143 187.645 30.2919 187.645 33.5932C187.645 36.8091 185.301 39.0336 182.09 39.0336C178.922 39.0385 176.578 36.8091 176.578 33.5932ZM178.571 33.5932C178.571 35.7893 180.008 37.3925 182.105 37.3925C184.215 37.3925 185.652 35.7893 185.652 33.5932C185.652 31.4682 184.244 29.827 182.105 29.827C179.984 29.8318 178.571 31.4729 178.571 33.5932ZM228.213 64.5617C228.389 64.9981 228.655 64.4338 228.896 64.5666L228.944 64.666L229.001 64.2915C228.74 64.3769 228.417 64.666 228.213 64.5617ZM227.421 63.6654C227.483 63.8362 227.298 63.8362 227.583 63.6984C227.568 63.6795 227.559 63.67 227.549 63.6559C227.521 63.6654 227.488 63.67 227.421 63.6654ZM227.549 63.6605C227.445 63.5231 227.682 63.632 227.549 63.6605V63.6605ZM227.108 63.6559C227.061 63.5561 226.9 63.5516 226.947 63.4707C226.781 63.58 226.828 63.6794 226.952 63.8362L227.108 63.6559ZM226.833 64.1872L226.914 64.1113C226.89 64.0684 226.866 64.0544 226.833 64.1872ZM226.994 64.0494C226.994 64.1872 227.018 64.0544 227.084 63.9451L226.914 64.1113C226.947 64.1777 226.971 64.3245 226.994 64.0494ZM227.203 64.002C227.312 64.0874 227.445 64.1348 227.293 64.315C227.616 64.2061 227.526 63.8976 227.203 64.002ZM228.209 65.036L228.356 65.1499L228.45 64.984C228.398 65.0694 228.18 64.8987 228.209 65.036ZM226.074 63.988C225.998 63.931 225.866 63.8881 225.837 63.7459C225.842 63.8456 225.932 63.9925 225.96 64.1158L226.074 63.988ZM225.96 64.1158L225.79 64.3056C225.965 64.301 225.989 64.2202 225.96 64.1158ZM226.866 64.6945L227.137 64.3105L226.809 64.7089L226.866 64.6945ZM225.107 63.8362L225.183 63.599L225.035 63.9595L225.107 63.8362ZM224.623 63.9405C224.68 63.7459 224.471 63.6415 224.537 63.5182C224.409 63.5705 224.319 63.7459 224.238 63.8976C224.333 63.8077 224.452 63.8123 224.623 63.9405ZM224.096 64.1348C224.144 64.0828 224.186 63.9974 224.238 63.9026C224.186 63.9546 224.139 64.021 224.096 64.1348ZM225.272 64.0494L225.386 64.3105L225.462 64.3056C225.472 64.3295 225.481 64.339 225.481 64.3056H225.462C225.439 64.2486 225.386 64.1018 225.272 64.0494ZM225.221 64.32C225.244 64.32 225.291 64.32 225.391 64.32L225.386 64.3105C225.301 64.315 225.244 64.32 225.221 64.32ZM226.283 65.074C226.34 64.8797 226.193 64.7658 226.33 64.5143C226.24 64.6805 226.027 64.8747 226.283 65.074ZM225.832 64.6615C225.818 64.5902 225.766 64.4907 225.813 64.4099L225.619 64.6281L225.538 64.6186L225.529 64.7324L225.619 64.633L225.832 64.6615ZM224.481 64.3389C224.409 64.4668 224.314 64.4907 224.21 64.5287C224.333 64.5666 224.457 64.5761 224.57 64.5617C224.575 64.4718 224.604 64.3105 224.481 64.3389ZM224.926 64.353L224.907 64.372C224.921 64.3909 224.931 64.4004 224.926 64.353ZM223.162 64.671H223.143L223.167 64.7184L223.162 64.671ZM224.775 64.4812C224.713 64.5192 224.646 64.5427 224.57 64.5571C224.566 64.5996 224.57 64.6235 224.594 64.6046C224.694 64.6471 224.737 64.5712 224.775 64.4812ZM223.817 64.301C223.868 64.353 223.93 64.3909 223.992 64.4289C223.93 64.3484 223.821 64.2297 223.817 64.301ZM224.87 64.301L224.879 64.2866C224.846 64.2346 224.851 64.2581 224.87 64.301ZM224.907 64.372C224.893 64.353 224.879 64.3295 224.87 64.301C224.827 64.3484 224.803 64.4194 224.775 64.4812C224.827 64.4528 224.87 64.4148 224.907 64.372ZM223.01 65.1024C223.1 65.2307 223.503 65.3586 223.366 65.6101C223.119 65.776 223.133 65.5532 222.986 65.4394C223.143 65.738 222.716 65.9372 222.844 66.388L223.053 66.1934C223.067 66.2647 223.001 66.388 223.072 66.4449C223.048 66.1934 223.247 65.9277 223.484 66.1698C223.65 65.9562 223.409 65.1499 223.167 64.7135C223.171 64.8273 223.185 64.9271 223.01 65.1024ZM223.295 64.3484C223.171 64.4907 223.157 64.5856 223.162 64.671L223.574 64.6471L223.551 64.6899L223.627 64.6471C223.527 64.6186 223.447 64.5287 223.295 64.3484ZM224.006 64.6281C224.077 64.5712 224.144 64.5477 224.21 64.5287C224.134 64.5048 224.058 64.4718 223.987 64.4338L223.997 64.4479V64.4528C224.016 64.4858 224.025 64.5048 224.006 64.4858L223.997 64.4907C224.001 64.5287 223.997 64.5617 223.992 64.5951C223.868 64.5571 223.963 64.5237 223.997 64.4907V64.4479L223.992 64.4433L223.622 64.6471C223.712 64.671 223.812 64.652 223.992 64.5951C223.968 64.8747 223.783 65.022 223.949 65.2971C224.191 65.2447 224.087 65.0455 224.215 64.9081C223.84 65.0315 224.314 64.7419 224.006 64.6281ZM226.155 65.6906C226.141 65.6671 226.136 65.6481 226.136 65.6291C226.112 65.6671 226.107 65.6906 226.155 65.6906ZM226.107 65.2971L226.084 65.3396C225.913 65.2686 225.666 64.9556 225.69 64.9127C225.771 65.1499 225.832 65.3206 225.97 65.5483C225.993 65.5058 226.003 65.3919 226.098 65.4109C226.188 65.4819 226.117 65.5437 226.131 65.6291C226.179 65.5483 226.302 65.406 226.107 65.2971ZM224.68 65.3206L224.879 65.5342L224.851 65.3919C225.045 65.4204 224.978 65.2542 224.988 65.1404L224.68 65.3206ZM223.081 64.2486L222.953 64.6805L223.081 64.5427V64.2486ZM222.55 64.5476L222.659 64.633L222.64 64.3814L222.55 64.5476ZM218.324 65.4344C218.186 65.3491 218.082 65.3206 217.992 65.3255C218.167 65.4534 218.328 65.6716 218.324 65.4344ZM217.996 65.3255C217.868 65.2257 217.731 65.1783 217.645 65.387C217.669 65.4109 217.693 65.4204 217.721 65.4394C217.802 65.3825 217.883 65.3255 217.996 65.3255ZM221.521 65.9372C221.516 65.8708 221.525 65.8234 221.535 65.7999C221.525 65.8329 221.516 65.8758 221.521 65.9372ZM221.089 64.8892C221.051 64.8607 221.009 64.8417 220.961 64.8273C220.98 64.8417 221.023 64.8653 221.089 64.8892ZM220.961 64.8228C220.942 64.8083 220.928 64.7943 220.933 64.7848C220.942 64.7514 221.018 64.7514 220.933 64.7848C220.904 64.7943 220.871 64.8038 220.809 64.8178C220.861 64.8038 220.909 64.8133 220.961 64.8228ZM221.54 65.7949C221.549 65.776 221.563 65.776 221.573 65.7619C221.563 65.7665 221.549 65.776 221.54 65.7949ZM222.493 64.8892C222.223 64.8083 222.038 65.2591 221.862 65.4819L222.099 65.719C222.052 66.1983 221.706 65.7145 221.573 65.7619C221.654 65.6955 221.796 65.7665 221.819 65.8663L221.706 65.4868C221.397 65.3775 221.222 65.7145 221.051 65.9372C221.26 66.037 220.861 66.2078 221.042 66.459L221.184 66.388C221.274 66.5114 221.146 66.6536 221.084 66.7815C220.572 66.5728 219.747 66.9572 219.529 66.6772C219.642 66.7626 219.804 66.6487 219.87 66.5208L219.623 66.3926C219.804 66.3501 219.998 66.6726 220.245 66.5019C220.159 66.2647 220.297 65.8993 220.041 65.5912C219.467 65.2876 219.728 66.2977 219.102 66.2977C219.059 66.3831 219.163 65.8758 218.86 66.0655C218.49 66.3831 218.29 66.9952 218.385 67.5264C218.528 67.3412 218.817 66.9667 218.936 67.3412C218.793 67.5264 218.514 67.6782 218.542 67.9294C218.286 67.5169 218.841 67.7397 218.547 67.4076C218.428 67.441 218.404 67.5974 218.362 67.6827C218.409 67.4835 218.201 67.3936 218.144 67.2938C217.755 67.3602 217.494 67.2084 217.072 67.2464C217.095 67.2843 217.1 67.2938 217.062 67.2464H217.072C217.038 67.1849 216.967 67.0521 216.958 66.9428C216.778 67.0995 216.611 67.8205 216.74 68.0812C216.507 68.143 216.45 67.9343 216.275 68.0956C216.673 68.4322 216.199 68.0387 216.246 68.475C216.052 68.565 216.132 68.2804 216.019 68.1999C215.995 68.2519 215.938 68.4086 215.957 68.5225C215.767 68.2235 216.038 67.6308 215.814 67.2843C215.663 67.0616 215.226 66.81 215.264 66.7865C214.871 67.0426 215.8 68.2709 215.639 69.0203C215.587 69.2719 215.393 68.7927 215.298 68.7881C214.956 68.4417 214.966 69.1865 214.719 69.0727L214.837 68.8116C214.78 68.7168 214.486 68.916 214.467 69.0727C214.429 68.935 214.482 68.3138 214.349 68.1715C213.941 68.181 213.737 69.0298 213.851 69.4427C213.851 69.4427 214.135 68.7312 214.211 68.9019C214.387 69.2909 214.34 69.3668 214.121 69.7367C214.05 69.8601 213.576 69.8696 213.547 69.7273C213.533 69.6559 213.803 69.5565 213.675 69.3808C213.443 69.4522 213.543 69.3478 213.348 69.215C213.519 68.7168 213.77 67.4695 213.837 66.8908C213.837 66.8908 213.694 67.1944 213.6 67.1849C213.543 67.18 213.486 66.9952 213.486 66.9952C213.168 67.3507 213.41 68.9873 213.12 69.1721C212.812 69.3668 212.793 68.3658 212.812 68.2094C212.788 68.214 212.769 68.2284 212.75 68.2379C212.765 68.3422 212.769 68.4466 212.76 68.5509C212.708 69.0298 212.456 69.4047 212.053 69.6134C212.02 69.6324 211.982 69.6464 211.944 69.6559C209.748 70.3534 207.571 70.932 205.47 71.3779C203.624 71.7763 201.68 72.1224 199.692 72.4165C198.388 72.6062 197.179 72.7011 196.083 72.7011C195.466 72.7011 194.887 72.6726 194.342 72.6111C194.318 72.6062 194.299 72.6062 194.276 72.6017C191.368 71.9991 191.112 70.2915 191.216 69.3288C191.316 68.4276 191.733 67.4456 192.459 66.407C193.137 65.4299 193.92 64.4953 194.778 63.632C195.547 62.8591 196.301 62.1711 197.017 61.5829C196.799 61.5879 196.571 61.5879 196.329 61.5879C194.75 61.6019 193.104 61.5784 191.43 61.5165C191.411 61.5165 191.396 61.5165 191.377 61.512L189.357 61.2889C189.3 61.2843 189.248 61.2748 189.195 61.2653C184.225 64.8133 176.223 68.0812 172.376 69.3334C172.371 69.3334 172.357 69.3383 172.338 69.3383C172.068 69.4377 171.788 69.5231 171.484 69.6039C170.431 69.879 169.483 70.0213 168.672 70.0213C168.667 70.0213 168.667 70.0213 168.662 70.0213C168.581 70.0213 168.505 70.0119 168.425 70.0069C168.306 70.0119 168.188 70.0213 168.074 70.0213C168.069 70.0213 168.069 70.0213 168.065 70.0213C167.158 70.0213 166.418 69.8126 165.859 69.4047C165.351 69.0348 164.939 68.6029 164.63 68.1191C164.322 67.6402 164.118 67.1515 164.009 66.6582C163.91 66.1983 163.862 65.8329 163.862 65.5483C163.862 64.9412 163.791 64.0733 164.066 62.8921C163.535 62.9395 162.989 62.9824 162.415 63.0059C160.105 63.0962 157.112 62.1855 155.495 61.5594L152.625 63.7933C152.606 63.8123 152.592 63.8362 152.568 63.8551L152.265 64.0874C152.056 64.2486 151.843 64.4148 151.62 64.5807C150.277 65.5578 148.906 66.4495 147.54 67.2323C146.094 68.0576 144.699 68.5509 143.395 68.7027C143.286 68.7168 143.177 68.7217 143.068 68.7217C142.299 68.7217 141.592 68.3992 140.966 67.7541C140.298 67.0711 139.904 66.2932 139.809 65.4534C139.71 64.5951 139.909 63.6085 140.402 62.5126C140.862 61.4976 141.441 60.4874 142.129 59.5103C142.256 59.3301 142.437 59.0834 142.645 58.7989C137.883 62.4272 132.746 65.5103 129.469 66.6916C129.464 66.6916 129.383 66.7056 129.251 66.7246C128.824 66.8624 128.402 66.9713 127.951 67.09C127.795 67.1325 127.633 67.1705 127.467 67.2133C126.362 67.5025 125.371 67.6497 124.517 67.6497C123.549 67.6497 122.767 67.4266 122.179 66.9952C121.647 66.6013 121.211 66.1459 120.888 65.6432C120.566 65.1404 120.348 64.6235 120.234 64.1018C120.129 63.618 120.082 63.2336 120.082 62.93C120.082 62.3134 120.167 61.7302 120.333 61.1845C120.068 61.3317 119.807 61.4691 119.551 61.6019C118.612 62.0857 117.957 62.3893 117.549 62.5221C117.17 62.6883 116.69 62.8731 116.131 63.0723C115.637 63.2431 115.111 63.4518 114.57 63.6939C114.476 63.7364 114.376 63.7553 114.271 63.7553C114.044 63.7553 113.617 63.6795 113.313 63.1577C113.152 62.8921 113.072 62.6219 113.072 62.3608C113.072 61.6493 113.442 61.3553 113.664 61.2464C113.688 61.2319 113.712 61.2225 113.74 61.213C114.162 61.0566 114.599 60.8859 115.159 60.6677C115.595 60.492 115.998 60.3167 116.349 60.141C117.739 59.4769 118.958 58.8129 119.973 58.1583C121.163 57.4468 122.041 56.8162 122.577 56.2755C123.084 55.7677 123.416 55.3173 123.564 54.9284C123.772 54.3782 123.976 53.9513 124.194 53.6238C124.517 53.1449 124.996 52.8793 125.551 52.8793C126.125 52.8793 126.647 53.0261 127.102 53.3202C127.491 53.5718 127.951 54.0697 127.951 55.0088C127.951 55.3363 127.828 55.6918 127.567 56.1282L126.898 57.1243C126.618 57.5417 126.338 58.035 126.073 58.5996C125.807 59.1593 125.57 59.7665 125.371 60.3971C125.181 60.9948 125.081 61.5689 125.081 62.1096C125.081 62.5885 125.247 62.9869 125.598 63.3379C125.945 63.6844 126.542 63.8597 127.382 63.8646C127.695 63.8646 128.757 63.6464 129.744 63.4188C132.201 62.6265 135.327 60.9853 139.093 58.4953C139.975 57.9117 140.976 57.2666 141.943 56.6454C143.888 55.3932 145.904 54.0981 147.057 53.2303C147.303 53.0451 147.502 52.9787 147.659 53.0261C148.133 52.9218 148.783 52.9313 149.257 53.088C150.5 53.4959 151.055 54.9568 150.908 55.8247C150.842 56.2136 150.396 56.8921 148.11 60.1175C147.322 61.2274 146.578 62.2755 146.17 62.9016L146.046 63.0867C145.914 63.2859 145.534 63.8551 145.458 64.1397C145.359 64.4763 145.994 64.4054 146.155 64.3864C147.185 64.2676 148.428 63.67 149.851 62.6219L154.641 58.4194C154.665 58.3955 154.693 58.3765 154.722 58.3575C155.082 58.1253 155.912 57.9022 156.757 58.5188L157.127 58.7939C158.066 59.5009 158.744 60.0082 161.016 60.2598C161.965 60.3641 163.373 60.2693 165.043 59.9892C165.503 58.7799 166.058 57.4897 166.575 56.5267C166.58 56.5172 166.58 56.5077 166.585 56.4982C167.68 54.1315 169.326 52.3621 171.48 51.2287C172.371 50.7638 173.472 50.5122 174.42 50.5692C176.009 50.6595 177.271 51.4134 177.878 52.6372C178.495 53.8799 178.333 55.3742 177.423 56.7259C175.578 59.4629 173.064 60.5015 170.645 61.4551C170.526 61.5025 170.355 61.5594 170.147 61.6258C170.099 61.6399 170.052 61.6588 170.004 61.6733C169.801 62.1286 169.615 62.6075 169.454 63.1103C169.269 63.6889 169.174 64.2441 169.174 64.7658C169.174 65.2352 169.34 65.6337 169.687 65.9752C169.971 66.2647 170.446 66.426 171.067 66.4685C171.437 66.421 172.068 66.2932 172.717 66.1509C176.218 65.1783 182.019 62.6978 185.429 60.6343C185.685 60.4825 185.928 60.3212 186.174 60.1649C186.127 60.122 186.074 60.0841 186.027 60.0416C186.003 60.0226 185.984 59.9987 185.966 59.9752C185.667 59.6052 185.501 59.2922 185.439 58.9837C185.425 58.9127 185.42 58.8414 185.429 58.7704C185.51 58.0494 185.961 57.2905 186.814 56.4413C187.583 55.6824 188.479 54.9898 189.485 54.3876C190.467 53.7995 191.472 53.2967 192.483 52.8933C193.574 52.457 194.432 52.2817 195.101 52.3575C195.964 52.4475 196.268 53.0026 196.372 53.3252C196.495 53.7092 196.533 54.1076 196.491 54.506C196.434 55.0373 194.878 56.7687 194.001 57.703C194.095 57.7174 194.2 57.7364 194.318 57.7504L195.694 57.9022C196.291 57.9686 196.984 57.9971 197.738 57.9925C198.507 57.9925 199.322 57.9591 200.167 57.8976C200.968 57.8358 201.742 57.7269 202.477 57.5702C202.552 57.5512 202.624 57.5512 202.7 57.5607C203.093 57.6036 203.435 57.8358 203.71 58.2392C203.966 58.6186 204.07 59.0121 204.028 59.42C203.914 60.4825 203.34 61.1655 202.41 61.3648C201.983 61.6114 201.428 61.9673 200.764 62.4227C200.053 62.916 199.36 63.4852 198.71 64.1113C198.042 64.7564 197.439 65.4155 196.927 66.0655C196.472 66.6442 196.215 67.1754 196.163 67.6543C196.126 67.9818 196.225 68.233 196.486 68.4701C196.661 68.6314 197.15 68.916 198.469 69.0632C199.996 69.229 201.537 69.215 203.046 69.0253C204.583 68.8306 205.991 68.584 207.234 68.2994C208.738 67.9768 210.161 67.5784 211.475 67.123C211.569 67.09 211.674 67.0756 211.773 67.09C211.788 67.09 211.807 67.0946 211.826 67.0995C211.854 67.0521 211.887 67.0471 211.93 67.123C211.944 67.128 211.958 67.1325 211.972 67.1375C211.996 67.0711 212.025 67.0092 212.063 66.9572C211.954 66.7436 212.466 66.6821 212.466 66.6916C212.452 66.791 212.561 66.6726 212.703 66.6442C213.31 66.5303 213.438 65.8283 214.008 66.3691C213.932 66.3167 213.832 66.3072 213.827 66.421C214.183 66.3167 214.629 66.6677 214.814 66.3926L214.743 66.1129C214.985 65.9327 215.169 65.7949 215.388 65.7665C215.388 65.7665 215.279 65.5009 215.336 65.4439C215.577 65.2068 216.246 64.8702 216.559 65.4914C216.588 65.2212 216.977 65.3111 217.166 65.368C217.228 65.387 217.256 65.6052 217.256 65.6052C217.503 65.6431 217.631 65.5293 217.755 65.4344C218.314 65.8613 218.656 65.2732 219.073 65.2402L219.087 65.3111L219.476 65.0694C219.405 65.3111 219.533 64.9032 219.671 64.9461C219.785 64.8038 220.007 64.8368 220.193 64.9696L220.458 64.9412C220.188 65.1548 220.534 65.2922 220.596 65.5722L220.728 65.3206C220.819 65.4439 220.658 65.5578 220.79 65.6006C220.88 65.4299 221.217 65.387 221.274 65.0789C221.246 65.0076 221.198 64.9506 221.136 64.9032C221.127 64.9222 221.127 64.9176 221.132 64.8987L221.117 64.8842L221.132 64.8892C221.141 64.8607 221.155 64.8083 221.16 64.7704C221.136 64.7658 221.113 64.7609 221.079 64.7564C221.151 64.6945 221.165 64.723 221.165 64.7704C221.388 64.7989 221.288 64.6945 221.265 64.5712C221.573 64.9745 221.663 64.6566 221.924 65.1453C221.587 64.5996 222.469 65.0504 222.232 64.5192C222.446 64.9461 222.322 64.5237 222.493 64.8892ZM171.631 58.1917C172.969 57.5846 173.979 56.6454 174.885 55.3363C175.066 55.0802 175.312 54.3922 174.653 54.3637C174.567 54.3592 174.397 54.4301 174.202 54.6817C173.22 55.948 172.495 56.9441 171.631 58.1917ZM219.984 65.1878C219.87 65.1453 219.813 65.1074 219.979 65.2022C219.979 65.1973 219.984 65.1878 219.984 65.1878ZM221.853 64.6805C221.838 64.6091 221.786 64.5143 221.843 64.5002L221.658 64.6091C221.753 64.5807 221.8 64.6425 221.853 64.6805ZM223.817 66.1364C223.84 66.0939 223.878 66.1224 223.897 66.0795L223.868 65.9372C223.75 65.9706 223.679 66.0939 223.817 66.1364ZM222.18 65.4819C222.237 65.738 222.341 65.6291 222.474 65.5578C222.464 65.5627 222.46 65.5627 222.45 65.5627C222.431 65.2022 222.303 65.3445 222.18 65.4819ZM222.502 65.5483C222.54 65.5293 222.583 65.5153 222.626 65.5248C222.621 65.373 222.569 65.5009 222.502 65.5483ZM220.667 65.0409C220.743 65.0979 220.658 64.7089 220.71 64.8038C220.733 64.4668 220.34 65.2686 220.667 65.0409ZM222.28 66.2693L222.413 66.3121L222.318 66.0036L222.28 66.2693ZM221.582 66.1839C221.445 66.1934 221.288 66.1554 221.312 66.2457L221.544 66.2977C221.525 66.2503 221.549 66.2123 221.582 66.1839C221.654 66.1793 221.72 66.1603 221.748 66.1034C221.711 66.1129 221.63 66.1364 221.582 66.1839ZM221.905 66.3975L222.137 66.4544L222.062 66.3975H221.905ZM218.898 66.8005C218.94 66.7151 219.021 66.6582 218.969 66.5588L218.751 66.6916C218.741 66.8054 218.817 66.8574 218.898 66.8005ZM219.737 67.474L219.823 67.3033C219.747 67.2464 219.732 67.18 219.68 67.0805L219.737 67.474ZM219.154 67.5074C219.149 67.6213 218.869 67.882 219.159 67.8015C219.163 67.6922 219.386 67.5594 219.154 67.5074ZM212.831 69.3144C212.618 69.2195 212.594 69.4427 212.765 69.8411C213.073 69.936 212.741 69.4332 213.03 69.5705C213.063 69.4047 212.969 69.3763 212.831 69.3144ZM121.401 45.6267C117.772 48.857 114.243 51.8358 110.913 54.4776C107.731 57.001 105.036 59.069 102.907 60.6203C102.024 64.4718 101.64 68.0007 101.764 71.1074L101.811 72.3076C101.835 72.8388 101.754 73.3321 101.574 73.778C101.341 74.3422 100.806 74.7361 99.9753 74.9494C99.7286 75.0348 99.4205 75.0871 99.06 75.1012C99.0077 75.1061 98.9507 75.1061 98.8988 75.1061C97.8363 75.1061 97.2716 74.6507 96.9825 74.2663C96.5981 73.759 96.3943 73.1754 96.3659 72.5303C96.3279 68.3327 97.1009 63.618 98.6711 58.5188C99.8379 54.7337 101.308 50.8587 103.063 46.9643C102.968 47.0546 102.874 47.1495 102.779 47.2394C99.2498 50.6025 95.8202 53.6951 92.5903 56.4367C89.4927 59.069 86.8699 61.2225 84.7969 62.8446C84.043 66.7295 83.7773 70.268 84.005 73.3606L84.0949 74.5559C84.1329 75.0871 84.0665 75.585 83.9052 76.0358C83.692 76.6095 83.1653 77.0224 82.3449 77.2546C82.1028 77.3494 81.7992 77.4113 81.4342 77.4398C81.3344 77.4443 81.2444 77.4492 81.1591 77.4492C80.1675 77.4492 79.6173 77.0224 79.3327 76.6664C78.9343 76.1731 78.7066 75.5945 78.6592 74.9543C78.5359 72.1368 78.7825 69.0632 79.3756 65.7949L79.11 65.9372C78.5359 66.2503 77.7914 66.6677 76.9042 67.18C75.9984 67.7066 74.9929 68.2329 73.9209 68.7502C72.863 69.2575 71.81 69.7223 70.7809 70.1352C69.7229 70.5621 68.7508 70.8277 67.8921 70.932C66.9434 71.0459 66.142 70.9176 65.5015 70.5571C64.9228 70.23 64.439 69.8267 64.0595 69.3618C63.6755 68.897 63.3955 68.4086 63.2297 67.9104C63.0684 67.441 62.9735 67.0661 62.9401 66.772C62.8692 66.1459 62.8832 65.5293 62.983 64.9366C62.8597 65.0504 62.7269 65.1643 62.5941 65.2876C61.5411 66.2268 60.3363 67.1944 59.0127 68.162C57.6751 69.1391 56.2996 70.0354 54.929 70.8182C53.4776 71.6435 52.0781 72.1414 50.7644 72.2932C50.6552 72.3076 50.5413 72.3121 50.4324 72.3121C49.6496 72.3121 48.9335 71.9801 48.298 71.3305C47.6195 70.638 47.226 69.8551 47.1262 69.0014C47.0268 68.1381 47.226 67.142 47.7193 66.037C48.1792 65.017 48.7628 64.002 49.4504 63.0249C50.1144 62.0762 50.7834 61.175 51.4425 60.3451C52.0356 59.5957 52.5005 59.0645 52.8609 58.723C52.8845 58.6801 52.9084 58.6471 52.9368 58.6137C53.0742 58.4384 53.2784 58.3291 53.506 58.3056L53.8616 58.2627C54.3644 58.2012 54.8197 58.3196 55.1756 58.6091C55.332 58.7324 55.5266 58.9696 55.5741 59.368C55.6261 59.8185 55.4223 60.3307 54.9195 61.0232C54.5446 61.531 54.1321 62.1096 53.6908 62.7357C53.2639 63.3429 52.8799 63.9974 52.5524 64.6755C52.2633 65.2732 52.159 65.8568 52.2299 66.4544C52.2823 66.9003 52.453 67.2559 52.7517 67.5549C53.0932 67.8914 53.3448 67.9009 53.506 67.882C54.5306 67.7636 55.7778 67.1659 57.2057 66.108C58.7187 64.9886 60.1985 63.7223 61.6075 62.3468C63.2627 60.7386 64.9797 58.9552 66.7112 57.0389C66.8296 56.9061 66.9958 56.8207 67.1711 56.8018C67.7167 56.7354 68.2006 56.7877 68.618 56.9585C69.002 57.1198 69.4858 57.5132 69.5996 58.4714C69.6376 58.7939 69.5571 59.1734 69.3484 59.6287C69.3389 59.6477 69.3294 59.6716 69.315 59.6906C69.2581 59.79 69.0733 60.1839 68.6464 61.5784C68.3429 62.5695 68.2431 63.5421 68.3523 64.4718C68.3713 64.6376 68.4138 64.8747 68.4802 65.1783C68.5326 65.4344 68.6415 65.7096 68.7982 65.9896C68.9451 66.2457 69.1397 66.4639 69.3909 66.6487C69.5666 66.777 69.8797 66.8244 70.2921 66.772C70.9042 66.7011 71.5823 66.5159 72.3128 66.2268C73.1001 65.9137 73.8924 65.5722 74.6559 65.2068C75.4148 64.8512 76.1453 64.4858 76.8188 64.1253C77.4639 63.7838 78.0046 63.5041 78.3841 63.3239L80.1061 62.3893C80.2294 61.8865 80.3527 61.3837 80.4901 60.8715C81.88 55.7537 83.8153 50.4648 86.2389 45.1573C88.6629 39.8449 91.5513 34.5892 94.8241 29.533C98.0924 24.4767 101.55 19.8805 105.093 15.8772C108.651 11.8597 112.284 8.53467 115.894 6.00178C119.57 3.42146 123.08 1.98901 126.329 1.75185C128.108 1.61904 129.478 1.92735 130.413 2.66255C131.38 3.42621 131.935 4.98673 132.115 7.43898C132.12 7.49115 132.115 7.54807 132.12 7.60025C133.382 6.60417 134.644 5.68398 135.896 4.8634C139.657 2.40641 143.215 1.09728 146.468 0.964468C148.257 0.89332 149.613 1.24906 150.524 2.01747C151.458 2.80959 151.961 4.37011 152.061 6.79864V6.84133C152.151 9.12757 151.259 11.8786 149.4 15.0139C147.597 18.0638 145.202 21.3604 142.275 24.8182C139.373 28.2523 136.043 31.805 132.391 35.3766C128.734 38.9437 125.039 42.3918 121.401 45.6267ZM107.18 38.7206C109.248 34.964 111.539 31.2642 114.039 27.6736C117.478 22.7312 121.088 18.2535 124.763 14.3688C125.129 13.9846 125.494 13.6099 125.859 13.24C126.694 11.2478 127.069 9.54972 126.969 8.18367C126.922 7.53859 126.699 6.98363 126.291 6.49033C125.997 6.13459 125.48 5.95435 124.763 5.95435C124.65 5.95435 124.526 5.95909 124.403 5.96858C122.084 6.13933 119.612 7.08324 117.056 8.77183C114.442 10.4984 111.791 12.7941 109.182 15.5879C106.554 18.4006 103.955 21.6782 101.455 25.3305C98.9413 29.0065 96.5981 32.9054 94.4875 36.9229C92.3671 40.9594 90.4938 45.105 88.9095 49.2411C87.6099 52.6327 86.533 55.9575 85.7031 59.1214C87.4296 57.7459 89.4313 56.0478 91.6557 54.0602C94.6344 51.3994 97.7839 48.4062 101.014 45.1619C103.073 43.0893 105.136 40.9309 107.18 38.7206ZM119.717 43.5017C123.032 40.3856 126.391 37.0462 129.687 33.5742C132.955 30.1306 135.924 26.706 138.519 23.3905C141.095 20.0987 143.186 17.0013 144.737 14.1839C146.246 11.4518 146.971 9.175 146.9 7.41526C146.876 6.77018 146.673 6.20574 146.279 5.69821C145.975 5.30927 145.42 5.11005 144.624 5.11005C144.557 5.11005 144.486 5.11005 144.415 5.11479C142.095 5.20492 139.596 6.06344 136.977 7.6714C135.151 8.79554 133.297 10.1853 131.447 11.8122C131.048 13.0265 130.479 14.3214 129.73 15.6969C128.036 18.799 125.75 22.1762 122.937 25.7336C120.139 29.2721 116.937 32.9339 113.413 36.6146C112.815 37.236 112.218 37.8526 111.615 38.4692C110.107 41.3388 108.722 44.2512 107.493 47.1684C106.08 50.5122 104.889 53.7995 103.955 56.9346C105.734 55.616 107.792 53.9843 110.074 52.0775C113.142 49.5116 116.387 46.6228 119.717 43.5017ZM131.172 41.4147C130.612 41.7612 130.119 42.2021 129.701 42.7193C129.298 43.2221 128.956 43.7674 128.691 44.332C128.402 44.9437 128.254 45.5273 128.25 46.0585C128.25 46.7556 128.468 47.3013 128.895 47.6853C129.303 48.0458 129.877 48.2309 130.603 48.2309H130.607C131.233 48.2309 131.845 48.0363 132.414 47.6568C132.931 47.3153 133.406 46.8789 133.823 46.3572C134.221 45.8544 134.563 45.3137 134.833 44.7445C135.123 44.1278 135.27 43.5492 135.27 43.0179C135.27 41.6378 134.411 40.8455 132.917 40.8455C132.391 40.855 131.774 41.0402 131.172 41.4147ZM54.4357 51.4374L54.4452 51.4279C54.943 50.7164 55.4602 49.981 55.9156 49.227C56.333 48.5345 57.1439 47.0641 57.4714 46.4664C57.8744 45.6696 58.7046 43.6915 57.7226 42.5436C57.049 41.7562 55.8397 41.6568 54.0183 42.2355C53.5865 42.3728 52.9843 42.5816 52.2443 42.8377C49.2656 43.8717 44.2803 45.6032 38.8969 46.6797C38.432 46.7746 37.9624 46.8694 37.5118 46.9643L37.4359 46.9787C35.9323 47.2918 34.5141 47.5904 33.0816 47.7471C29.1685 48.174 26.1091 48.1975 24.2829 48.207C23.7754 48.212 23.339 48.212 23.026 48.226C21.6742 48.2734 20.5785 48.2594 19.7769 48.1835C19.6061 48.1645 19.4448 48.1501 19.3215 48.1456C19.146 48.1406 18.9753 48.1501 18.8235 48.1881C18.3397 48.2878 18.0835 48.5485 17.9555 48.7478C17.7563 49.0563 17.7041 49.4308 17.7942 49.8626C18.0124 50.9012 18.5768 51.7739 19.478 52.4664C20.365 53.1449 21.7501 53.4769 23.7185 53.4769C23.7517 53.4769 23.7849 53.4769 23.8181 53.4769C24.5011 53.439 26.1138 53.2967 28.7463 53.0406C31.3504 52.7844 34.4809 52.2722 38.0525 51.5178C41.2685 50.8397 44.0955 50.1851 46.4621 49.5826C47.1641 49.4023 47.8616 49.227 48.5397 49.0563L48.649 49.0278C50.1334 48.6578 51.6702 48.2734 53.1406 47.8465C53.1786 47.8371 53.2165 47.823 53.2544 47.8135C51.8979 50.0284 50.2617 52.3242 48.1128 55.0422C45.4281 58.4384 38.8969 65.1643 31.4357 68.864C29.1115 70.0119 26.5692 70.8322 23.6568 71.3684C21.6979 71.7289 19.829 71.8188 18.093 71.634C16.3807 71.4538 14.787 70.965 13.364 70.1777C11.9505 69.3952 10.741 68.3088 9.77339 66.9523C8.80103 65.5957 8.12749 63.9026 7.76226 61.9199C7.15987 58.6566 7.30691 55.2604 8.19389 51.8214C9.09037 48.3398 10.5086 44.9247 12.4059 41.6709C14.3127 38.3981 16.6416 35.2343 19.3215 32.2698C20.9295 30.4958 22.637 28.7788 24.4015 27.1661C25.7771 26.0087 27.0198 25.0269 28.2008 24.1636C31.6302 21.6497 35.2967 19.4299 39.1056 17.5563C42.9096 15.6875 46.7183 14.2503 50.437 13.2779C52.0117 12.8652 53.6768 12.5142 55.3843 12.2249C57.0634 11.945 58.8279 11.7458 60.6254 11.6367C60.9575 11.6462 61.3039 11.6652 61.6454 11.7031C61.617 11.7506 61.5741 11.8122 61.5031 11.8929C61.1282 12.2249 60.7916 12.5949 60.507 13.0028C60.1276 13.5435 59.9948 14.0605 60.1181 14.5301C60.2509 15.0234 60.7252 15.5214 61.631 15.2843C61.6879 15.2701 61.7448 15.2463 61.7972 15.2179C62.7883 14.6724 63.666 14.0416 64.401 13.3301C65.051 12.6945 65.5869 11.9925 66.0043 11.2431C66.4835 10.3845 66.5924 9.45011 66.3317 8.45877C66.0566 7.41052 65.3402 6.68006 64.2542 6.34803C63.315 6.0587 62.2381 5.95435 61.0523 6.03498C59.9045 6.11087 58.6951 6.28637 57.4475 6.56148C56.2142 6.8271 55.0808 7.09747 54.0703 7.36309C50.0575 8.41134 45.841 10.0478 41.5341 12.2296C37.232 14.4068 32.9963 16.9918 28.936 19.9137C27.6506 20.8386 26.3462 21.8394 24.8237 23.0774C24.7146 23.1011 24.6055 23.1581 24.5201 23.2292C23.7422 23.8885 22.9453 24.5858 22.0868 25.3637L21.8117 25.5866C21.769 25.6245 21.7311 25.6672 21.7026 25.7099C19.8148 27.4364 18.0029 29.2246 16.3191 31.0176C12.9656 34.5845 10.039 38.3317 7.61996 42.1501C5.18669 45.9826 3.34158 49.8861 2.14154 53.7521C0.927273 57.665 0.633193 61.4171 1.27353 64.8987C2.10359 69.3998 4.1669 72.8578 7.41126 75.1865C9.76865 76.8801 12.5814 77.7384 15.7688 77.7384C16.9594 77.7384 18.2211 77.6151 19.516 77.3779C21.9256 76.937 24.4632 76.1257 27.0577 74.9733C29.6191 73.8349 32.2516 72.5113 34.8888 71.0315C39.6084 67.9438 43.735 64.723 45.9309 62.4132C48.9002 59.2921 51.4046 55.7916 54.1416 51.8642L54.4357 51.4374Z" fill="white"/>
</g>
</svg>
