<svg width="207" height="54" viewBox="0 0 207 54" fill="none" xmlns="http://www.w3.org/2000/svg">
<path d="M80.2961 21.1478C80.2961 20.048 79.879 19.0328 79.0449 18.2714C78.1273 17.4254 77.2098 17.087 75.9586 17.087C73.5396 17.087 71.8714 18.5252 71.6211 21.0632C71.2041 24.6164 71.2041 26.3085 71.2041 30.4539L71.2875 36.376C71.2875 36.376 71.4543 39.2524 71.4543 40.7752C69.4524 42.8903 66.7832 44.6669 64.0306 44.4977C62.2789 44.4131 59.7766 42.9749 59.6931 37.8988L59.86 30.0309L60.277 24.7857L60.6941 21.317C60.6941 20.1326 60.277 19.1174 59.4429 18.2714C58.5254 17.51 57.441 17.087 56.2732 17.087C53.9377 17.087 52.4362 18.4406 52.0192 20.894C51.3519 24.8702 51.3519 27.9159 51.3519 30.5385C51.3519 34.684 51.1016 38.1526 51.9358 43.7363C52.3528 46.6973 53.7708 48.7277 55.9396 50.7581C57.8581 52.0272 59.6097 53.2116 63.6969 53.2116C66.7832 53.2116 70.0363 51.6041 72.1216 49.7429C72.4553 51.858 73.1226 53.127 75.7918 53.2116C76.9596 53.2116 78.0439 52.7886 78.878 52.0272C79.7956 51.0965 80.2126 50.0813 80.2126 48.8969L80.1292 47.3741L80.0458 46.0205L79.9624 44.7515L79.7956 38.1526L79.879 31.6383L80.3795 21.6554C80.2961 21.4016 80.2961 21.2324 80.2961 21.1478Z" fill="white"/>
<path d="M205.582 17.51C204.831 16.7485 203.663 16.3255 202.746 16.3255C201.912 16.2409 201.411 16.2409 200.577 16.4101C198.408 16.8331 195.572 17.7638 192.736 20.7248C191.986 17.51 190.067 16.9177 188.649 16.9177C187.148 16.9177 184.478 17.3408 184.478 21.1478V48.7277C184.478 51.5195 185.98 53.2116 188.566 53.2116C191.402 53.2116 192.987 51.6041 192.987 48.7277C192.987 48.7277 192.903 34.5993 192.903 32.8227C192.82 29.8617 195.739 26.8161 198.492 26.0547C199.743 25.7162 200.41 25.547 201.578 25.4624C201.661 25.4624 202.496 25.3778 202.579 25.3778C203.747 25.2932 204.664 25.124 205.665 24.1934C206.583 23.3474 207 22.0784 207 20.7248C206.833 19.3712 206.583 18.4406 205.582 17.51Z" fill="white"/>
<path d="M87.553 0.589776C84.8004 0.589776 83.2155 2.19719 83.2989 4.98903L83.4658 14.1259V15.5641L83.6326 26.6469V37.4758L83.5492 48.6431C83.6326 51.4349 85.3008 53.0424 88.0535 53.0424C90.5558 53.0424 92.0573 51.5196 92.3075 48.8123C92.3075 48.7277 92.3909 41.6212 92.3909 41.6212V26.5623L92.2241 16.8332L92.1407 4.81982C92.0573 2.19719 90.389 0.589776 87.553 0.589776Z" fill="white"/>
<path d="M100.565 0.589776C97.8128 0.589776 96.2279 2.19719 96.3113 4.98903L96.4782 14.3797L96.5616 26.6469V37.5604L96.4782 48.6431C96.5616 51.4349 98.2298 53.0424 100.982 53.0424C103.485 53.0424 104.986 51.5196 105.236 48.8123C105.236 48.7277 105.32 41.6212 105.32 41.6212V26.5623L105.153 17.3408V15.4795L104.986 4.81982C104.986 2.19719 103.318 0.589776 100.565 0.589776Z" fill="white"/>
<path d="M47.1813 24.0242C46.2637 23.1782 45.096 22.7552 43.6779 22.7552C31.9168 22.7552 21.4068 21.2324 16.6522 24.0242C14.7338 25.2087 14.4835 26.7315 14.5669 27.9159C14.6503 29.0157 15.1508 30.3693 15.9849 31.2999C17.1527 32.3997 18.3205 32.9919 19.6551 32.9919L21.657 32.4843C25.2437 30.8769 33.1679 31.8921 38.0059 31.4691C38.1727 34.0072 39.0068 37.0528 33.5016 41.6212C30.9992 43.7363 27.0788 44.4131 23.4921 44.2439C13.8162 43.7363 10.8134 36.376 9.97923 32.9919C8.47781 26.3931 8.72804 21.74 12.9821 15.3949C15.2342 12.0955 20.1556 8.96527 26.2447 9.47288C32.3338 9.89588 34.0021 13.4491 37.3386 15.2257C38.5064 15.9026 39.3405 16.241 40.0912 16.241C41.3424 16.241 42.4268 15.3949 43.3443 14.4643C44.1784 13.7029 44.5955 12.6031 44.4287 11.3341C44.4287 8.79607 41.8429 5.41203 38.5064 3.72001C35.0864 1.9434 31.4997 0.335977 26.1613 0.251376C22.658 0.166775 15.8181 1.68959 10.7299 5.41203C6.4759 8.62687 3.89011 11.8417 1.80479 17.7638C-0.113699 23.0936 -0.197111 28.5081 0.803841 33.9226C2.13844 41.1136 6.30908 45.8513 9.81241 48.7277C13.3157 51.5196 18.5707 53.2962 24.4096 53.2962C30.6656 53.2962 36.421 51.3503 40.7585 47.3741C46.2637 42.298 47.4315 37.3066 47.2647 30.7923C48.4325 29.9463 49.0998 28.8465 48.9329 27.2391C48.7661 26.0547 48.1822 24.9549 47.1813 24.0242Z" fill="white"/>
<path d="M165.46 25.124C166.545 24.9548 167.796 24.8702 168.964 25.0394C170.132 25.2086 172.133 26.1392 173.134 26.9853C171.299 27.9159 168.38 28.9311 165.877 29.9463C163.292 30.9615 161.373 31.6383 158.621 32.9919C159.204 30.2001 160.122 28.8465 161.29 27.5775C162.458 26.2238 164.376 25.2932 165.46 25.124ZM180.808 40.9444C180.058 40.183 179.14 39.76 177.972 39.76C176.721 39.76 175.637 40.7752 174.636 42.298C174.302 42.8056 173.134 44.0746 170.549 44.7515C163.876 46.5281 161.04 43.567 161.04 43.567C159.955 43.0594 159.371 41.875 158.787 40.606C161.123 39.76 165.294 38.2372 169.631 36.4606C173.969 34.7685 177.805 33.2457 178.973 32.4843C181.142 31.1307 181.976 29.3541 181.893 27.4083C181.726 23.855 178.806 20.6402 175.72 19.1174C173.385 17.8483 170.382 17.1715 166.712 17.1715C162.04 17.2561 156.869 20.3018 154.2 23.6012C151.531 26.9007 150.029 32.0613 150.029 37.645C150.029 42.721 152.031 47.2895 155.284 49.5737C158.787 52.0271 162.207 53.1269 166.128 53.2962C169.881 53.4654 172.717 52.5347 175.887 51.0965C180.141 49.2353 182.31 46.6973 182.31 43.9054C182.143 42.6364 181.726 41.7058 180.808 40.9444Z" fill="white"/>
<path d="M150.196 18.1868C149.278 17.3408 148.277 16.9177 147.11 16.9177C145.441 16.9177 144.023 17.933 143.189 19.625C143.106 19.7096 140.52 26.3931 140.52 26.3931C138.768 30.8769 136.516 34.9378 135.182 37.8988C133.513 33.4995 128.342 19.625 128.342 19.625C127.591 17.8484 126.256 16.9177 124.421 16.9177C123.254 16.9177 122.169 17.3408 121.252 18.1022C120.334 18.9482 119.75 19.9634 119.834 21.2324C119.917 22.5014 120.751 24.4472 120.751 24.4472L125.756 36.9682L130.594 49.3199C131.762 52.1963 133.764 52.8732 135.182 52.8732C137.517 52.8732 139.019 51.5195 139.269 49.2353C139.352 49.0661 146.442 34.5147 146.442 34.5147C150.196 26.3931 151.697 21.5708 151.697 21.2324C151.614 20.048 151.113 18.9482 150.196 18.1868Z" fill="white"/>
<path d="M117.164 5.07359C116.247 4.14297 115.079 3.71997 113.661 3.71997C112.243 3.71997 111.075 4.22758 110.158 5.15819C109.24 6.0042 108.74 7.18861 108.823 8.54222C108.823 9.89584 109.407 11.1649 110.491 12.0955C111.492 13.0261 112.744 13.4491 113.995 13.4491C115.246 13.4491 116.414 13.0261 117.415 12.0955C118.332 11.1649 118.916 9.98044 118.833 8.54222C118.749 7.18861 118.165 5.91959 117.164 5.07359Z" fill="white"/>
<path d="M117.832 21.4862C117.748 19.7942 116.998 18.779 116.414 18.2714C115.663 17.51 114.579 17.087 113.327 17.087C112.076 17.087 110.992 17.51 110.158 18.356C109.407 19.1174 108.99 20.2172 109.073 21.4862C109.073 21.4862 108.907 24.9548 108.99 30.0309C109.073 35.953 109.324 48.7277 109.324 48.7277C109.324 49.9967 109.824 51.0119 110.658 51.858C111.576 52.704 112.66 53.0424 113.828 53.0424C115.079 53.0424 116.08 52.6194 116.914 51.858C117.748 50.8427 118.082 49.8275 118.082 48.6431C118.082 48.6431 117.665 35.6146 117.665 29.5233C117.665 24.278 117.832 21.4862 117.832 21.4862Z" fill="white"/>
</svg>
