<svg width="66" height="18" viewBox="0 0 66 18" fill="none" xmlns="http://www.w3.org/2000/svg">
<path d="M25.2809 7.22231C25.2809 6.8753 25.1493 6.55498 24.8861 6.31474C24.5966 6.04781 24.3071 5.94104 23.9123 5.94104C23.1491 5.94104 22.6227 6.39482 22.5438 7.19561C22.4122 8.31673 22.4122 8.85059 22.4122 10.1586L22.4385 12.0271C22.4385 12.0271 22.4911 12.9346 22.4911 13.4151C21.8595 14.0824 21.0173 14.643 20.1488 14.5896C19.5961 14.5629 18.8066 14.1091 18.7803 12.5075L18.8329 10.0251L18.9645 8.37011L19.0961 7.27569C19.0961 6.90199 18.9645 6.58167 18.7013 6.31474C18.4118 6.0745 18.0697 5.94104 17.7012 5.94104C16.9643 5.94104 16.4906 6.36813 16.359 7.14223C16.1485 8.3968 16.1485 9.35776 16.1485 10.1852C16.1485 11.4932 16.0695 12.5876 16.3327 14.3494C16.4643 15.2836 16.9117 15.9243 17.596 16.5649C18.2013 16.9653 18.754 17.339 20.0436 17.339C21.0173 17.339 22.0437 16.8318 22.7017 16.2446C22.807 16.9119 23.0175 17.3123 23.8597 17.339C24.2281 17.339 24.5703 17.2055 24.8335 16.9653C25.123 16.6717 25.2546 16.3514 25.2546 15.9777L25.2282 15.4972L25.2019 15.0701L25.1756 14.6697L25.123 12.5876L25.1493 10.5323L25.3072 7.38247C25.2809 7.30239 25.2809 7.249 25.2809 7.22231Z" fill="#B0B2B5"/>
<path d="M64.8108 6.0745C64.574 5.83426 64.2055 5.70079 63.916 5.70079C63.6528 5.6741 63.4949 5.6741 63.2318 5.72749C62.5475 5.86095 61.6527 6.15458 60.7578 7.08884C60.521 6.0745 59.9157 5.88765 59.4682 5.88765C58.9945 5.88765 58.1523 6.02111 58.1523 7.2223V15.9243C58.1523 16.8051 58.6261 17.339 59.4419 17.339C60.3367 17.339 60.8368 16.8318 60.8368 15.9243C60.8368 15.9243 60.8105 11.4665 60.8105 10.906C60.7842 9.9717 61.7053 9.01074 62.5738 8.77051C62.9686 8.66373 63.1791 8.61035 63.5476 8.58365C63.5739 8.58365 63.8371 8.55696 63.8634 8.55696C64.2318 8.53027 64.5213 8.47688 64.8372 8.18326C65.1267 7.91632 65.2583 7.51593 65.2583 7.08884C65.2056 6.66175 65.1267 6.36812 64.8108 6.0745Z" fill="#B0B2B5"/>
<path d="M27.5706 0.735872C26.7021 0.735872 26.202 1.24304 26.2283 2.12392L26.281 5.00678V5.46056L26.3336 8.95736V12.3741L26.3073 15.8976C26.3336 16.7785 26.86 17.2856 27.7285 17.2856C28.518 17.2856 28.9918 16.8051 29.0707 15.951C29.0707 15.9243 29.097 13.682 29.097 13.682V8.93067L29.0444 5.86096L29.0181 2.07053C28.9918 1.24304 28.4654 0.735872 27.5706 0.735872Z" fill="#B0B2B5"/>
<path d="M31.6762 0.735872C30.8077 0.735872 30.3077 1.24304 30.334 2.12392L30.3866 5.08685L30.4129 8.95736V12.4008L30.3866 15.8976C30.4129 16.7785 30.9393 17.2856 31.8078 17.2856C32.5974 17.2856 33.0711 16.8051 33.15 15.951C33.15 15.9243 33.1764 13.682 33.1764 13.682V8.93067L33.1237 6.02112V5.43387L33.0711 2.07053C33.0711 1.24304 32.5447 0.735872 31.6762 0.735872Z" fill="#B0B2B5"/>
<path d="M14.8326 8.12987C14.5431 7.86294 14.1746 7.72948 13.7272 7.72948C10.0163 7.72948 6.70023 7.249 5.20009 8.12987C4.59477 8.50358 4.51581 8.98406 4.54213 9.35776C4.56845 9.70477 4.72636 10.1319 4.98954 10.4255C5.358 10.7725 5.72645 10.9593 6.14754 10.9593L6.77918 10.7992C7.91086 10.292 10.4111 10.6123 11.9376 10.4789C11.9902 11.2797 12.2534 12.2406 10.5164 13.682C9.72682 14.3494 8.48987 14.5629 7.35818 14.5095C4.30527 14.3494 3.35781 12.0271 3.09463 10.9593C2.6209 8.87728 2.69986 7.40916 4.04209 5.40717C4.75268 4.36614 6.30545 3.37849 8.22668 3.53865C10.1479 3.67212 10.6743 4.79323 11.727 5.35379C12.0955 5.56733 12.3586 5.6741 12.5955 5.6741C12.9903 5.6741 13.3324 5.40717 13.6219 5.11355C13.8851 4.87331 14.0167 4.5263 13.9641 4.1259C13.9641 3.32511 13.1482 2.25738 12.0955 1.72352C11.0164 1.16296 9.88473 0.655793 8.20037 0.6291C7.095 0.602407 4.93691 1.08288 3.3315 2.25738C1.98927 3.27172 1.1734 4.28606 0.515446 6.15458C-0.0898726 7.83625 -0.116191 9.54461 0.199628 11.253C0.620719 13.5219 1.93663 15.0167 3.042 15.9243C4.14736 16.8051 5.80541 17.3657 7.64768 17.3657C9.62155 17.3657 11.4375 16.7518 12.8061 15.4972C14.5431 13.8956 14.9115 12.3207 14.8589 10.2653C15.2273 9.99839 15.4379 9.65138 15.3852 9.14421C15.3326 8.77051 15.1484 8.4235 14.8326 8.12987Z" fill="#B0B2B5"/>
<path d="M52.1518 8.47688C52.4939 8.42349 52.8887 8.3968 53.2572 8.45018C53.6256 8.50357 54.2572 8.7972 54.5731 9.06413C53.9941 9.35775 53.0729 9.67807 52.2834 9.99839C51.4675 10.3187 50.8622 10.5323 49.9937 10.9593C50.1779 10.0785 50.4674 9.65138 50.8359 9.25098C51.2043 8.82389 51.8096 8.53026 52.1518 8.47688ZM56.9943 13.4685C56.7575 13.2283 56.468 13.0948 56.0995 13.0948C55.7047 13.0948 55.3626 13.4151 55.0468 13.8956C54.9415 14.0557 54.5731 14.4561 53.7572 14.6697C51.6517 15.2302 50.7569 14.296 50.7569 14.296C50.4148 14.1358 50.2306 13.7621 50.0463 13.3617C50.7832 13.0948 52.0991 12.6143 53.4677 12.0538C54.8362 11.5199 56.0469 11.0394 56.4153 10.7992C57.0996 10.3721 57.3628 9.81153 57.3365 9.19759C57.2838 8.07648 56.3627 7.06214 55.3889 6.58166C54.652 6.18127 53.7046 5.96772 52.5466 5.96772C51.0727 5.99442 49.441 6.95537 48.5988 7.9964C47.7566 9.03743 47.2829 10.6657 47.2829 12.4275C47.2829 14.0291 47.9146 15.4705 48.941 16.1912C50.0463 16.9653 51.1254 17.3123 52.3623 17.3657C53.5466 17.4191 54.4415 17.1255 55.4416 16.6717C56.7838 16.0844 57.4681 15.2836 57.4681 14.4028C57.4154 14.0024 57.2838 13.7087 56.9943 13.4685Z" fill="#B0B2B5"/>
<path d="M47.3356 6.28804C47.0461 6.02111 46.7302 5.88765 46.3618 5.88765C45.8354 5.88765 45.388 6.20796 45.1248 6.74183C45.0985 6.76852 44.2826 8.87728 44.2826 8.87728C43.73 10.292 43.0194 11.5733 42.5983 12.5075C42.0719 11.1195 40.4402 6.74183 40.4402 6.74183C40.2033 6.18127 39.7822 5.88765 39.2032 5.88765C38.8348 5.88765 38.4926 6.02111 38.2031 6.26135C37.9136 6.52828 37.7294 6.8486 37.7557 7.249C37.782 7.64939 38.0452 8.26334 38.0452 8.26334L39.6243 12.2139L41.1508 16.1111C41.5192 17.0187 42.1509 17.2322 42.5983 17.2322C43.3352 17.2322 43.8089 16.8051 43.8879 16.0844C43.9142 16.031 46.1512 11.4398 46.1512 11.4398C47.3355 8.87728 47.8093 7.35577 47.8093 7.249C47.783 6.87529 47.6251 6.52828 47.3356 6.28804Z" fill="#B0B2B5"/>
<path d="M36.9135 2.1506C36.624 1.85697 36.2556 1.72351 35.8082 1.72351C35.3608 1.72351 34.9923 1.88366 34.7028 2.17729C34.4133 2.44422 34.2554 2.81792 34.2817 3.24501C34.2817 3.6721 34.4659 4.0725 34.8081 4.36613C35.1239 4.65975 35.5187 4.79322 35.9134 4.79322C36.3082 4.79322 36.6767 4.65975 36.9925 4.36613C37.282 4.0725 37.4662 3.6988 37.4399 3.24501C37.4136 2.81792 37.2293 2.41753 36.9135 2.1506Z" fill="#B0B2B5"/>
<path d="M37.1241 7.32908C37.0978 6.79522 36.8609 6.4749 36.6767 6.31474C36.4398 6.0745 36.0977 5.94104 35.7029 5.94104C35.3081 5.94104 34.966 6.0745 34.7028 6.34143C34.4659 6.58167 34.3343 6.92868 34.3607 7.32908C34.3607 7.32908 34.308 8.4235 34.3343 10.0251C34.3607 11.8936 34.4396 15.9243 34.4396 15.9243C34.4396 16.3247 34.5975 16.645 34.8607 16.9119C35.1502 17.1789 35.4923 17.2856 35.8608 17.2856C36.2556 17.2856 36.5714 17.1522 36.8346 16.9119C37.0978 16.5916 37.203 16.2713 37.203 15.8976C37.203 15.8976 37.0714 11.7868 37.0714 9.86493C37.0714 8.20995 37.1241 7.32908 37.1241 7.32908Z" fill="#B0B2B5"/>
</svg>
