<svg width="846" height="166" viewBox="0 0 846 166" fill="none" xmlns="http://www.w3.org/2000/svg">
<path d="M48.0542 60.7314H67.3706C66.6785 65.1927 65.1684 68.5575 62.8656 70.8386C59.3924 74.2916 54.6734 76.0182 48.7338 76.0182C42.0517 76.0182 36.6909 73.901 32.6766 69.6539C27.2529 63.9576 24.5473 56.8498 24.5473 48.3053C24.5473 44.1969 25.2898 40.2397 26.7999 36.3834C30.789 25.9233 37.8738 20.6933 48.0291 20.6933C52.9997 20.6933 57.3034 22.1552 60.9025 25.0663C63.4067 27.1458 65.6089 30.2334 67.4965 34.3544L89.6443 25.2932C85.9068 17.7443 81.4018 12.0354 76.1417 8.15381C68.7549 2.73474 59.7573 0 49.1239 0C33.2051 0 20.8225 5.0788 11.9634 15.2364C4.14872 24.1716 0.235107 35.1987 0.235107 48.3179C0.235107 60.1517 3.56986 70.3471 10.252 78.8916C19.0985 90.1456 31.7706 95.7789 48.2933 95.7789C58.4486 95.7789 67.2448 93.3466 74.6567 88.4947C82.3581 83.4411 87.8699 76.2072 91.2298 66.831C93.4195 60.6558 94.5143 52.6784 94.5143 42.8863H48.0542V60.744V60.7314Z" fill="white"/>
<path d="M195.739 51.4433C195.739 59.8744 194.657 65.5833 192.492 68.5323C189.585 72.5273 185.294 74.5311 179.569 74.5311C177.001 74.5311 174.686 74.0396 172.572 73.0188C167.412 70.5865 164.631 66.3269 164.204 60.2147C164.065 58.2739 164.002 55.3627 164.002 51.4433V2.7095H140.634V54.72C140.634 61.4119 141.112 66.7553 142.081 70.6999C143.453 76.308 145.969 80.9583 149.669 84.6509C156.653 91.7083 166.355 95.2244 178.801 95.2244C191.247 95.2244 200.747 91.7713 208.046 84.8525C213.206 79.9628 216.44 74.5311 217.811 68.5953C218.692 64.7642 219.12 60.1138 219.12 54.7074V2.7095H195.752V51.4559L195.739 51.4433Z" fill="white"/>
<path d="M298.79 2.7095H275.422V92.9307H326.89V73.4473H298.79V2.7095Z" fill="white"/>
<path d="M399.688 2.7095H376.319V92.9307H427.788V73.4473H399.688V2.7095Z" fill="white"/>
<path d="M498.51 2.7095H475.142V92.9307H498.51V2.7095Z" fill="white"/>
<path d="M586.447 57.5555L564.764 2.7095H539.307L577.147 92.9307H595.344L633.725 2.7095H608.33L586.447 57.5555Z" fill="white"/>
<path d="M668.368 92.9307H719.56V73.4473H691.737V57.2153H718.075V37.7444H691.737V22.1803H719.56V2.7095H668.368V92.9307Z" fill="white"/>
<path d="M817.615 56.0054C822.925 54.8082 827.116 52.691 830.149 49.6538C834.893 44.89 837.259 38.5132 837.259 30.5106C837.259 23.5414 835.182 17.4796 831.067 12.3126C825.958 5.91054 818.106 2.7095 807.447 2.7095H771.067V92.9307H794.435V58.4377L816.722 92.9307H845.765L817.602 56.0054H817.615ZM809.448 40.0381C807.309 42.1175 803.747 43.1509 798.815 43.1509H794.448V20.5672H798.815C803.697 20.5672 807.258 21.6006 809.448 23.68C811.789 25.8855 812.959 28.595 812.959 31.8212C812.959 35.0475 811.789 37.7948 809.448 40.0507V40.0381Z" fill="white"/>
<path d="M227.967 166H231.44V156.296H240.979V153.158H231.44V146.164H242.653V143.026H227.967V166Z" fill="white"/>
<path d="M308.53 143.026L300.124 166H303.798L305.409 161.387H314.457L316.067 166H319.704L311.323 143.026H308.517H308.53ZM306.403 158.426L310.015 148.23L313.525 158.426H306.403Z" fill="white"/>
<path d="M391.131 157.329L384.436 143.026H380.988V166H384.461V150.65L389.847 161.841H392.427L397.712 150.65V166H401.223V143.026H397.738L391.131 157.329Z" fill="white"/>
<path d="M468.648 143.026H465.163V166H468.648V143.026Z" fill="white"/>
<path d="M536.098 143.026H532.625V166H547.146V162.875H536.098V143.026Z" fill="white"/>
<path d="M612.319 153.133L607.487 143.026H603.687L610.545 156.548V166H614.031V156.548L620.864 143.026H617.088L612.319 153.133Z" fill="white"/>
</svg>
