<svg width="360" height="80" viewBox="0 0 360 80" fill="none" xmlns="http://www.w3.org/2000/svg">
<path d="M158.248 34.738C158.248 33.7108 157.859 32.7626 157.08 32.0515C156.223 31.2613 155.366 30.9453 154.197 30.9453C151.938 30.9453 150.38 32.2885 150.146 34.6589C149.757 37.9775 149.757 39.5578 149.757 43.4295L149.835 48.9606C149.835 48.9606 149.99 51.6471 149.99 53.0693C148.121 55.0447 145.628 56.704 143.057 56.546C141.421 56.4669 139.084 55.1237 139.006 50.3828L139.162 43.0345L139.551 38.1356L139.941 34.896C139.941 33.7898 139.551 32.8416 138.772 32.0515C137.915 31.3403 136.902 30.9453 135.812 30.9453C133.63 30.9453 132.228 32.2095 131.839 34.5009C131.215 38.2146 131.215 41.0591 131.215 43.5086C131.215 47.3803 130.982 50.6199 131.761 55.8348C132.15 58.6003 133.475 60.4967 135.5 62.393C137.292 63.5782 138.928 64.6844 142.745 64.6844C145.628 64.6844 148.666 63.1832 150.614 61.4449C150.925 63.4202 151.549 64.6054 154.041 64.6844C155.132 64.6844 156.145 64.2894 156.924 63.5783C157.781 62.7091 158.17 61.7609 158.17 60.6547L158.093 59.2325L158.015 57.9682L157.937 56.783L157.781 50.6199L157.859 44.5357L158.326 35.212C158.248 34.975 158.248 34.817 158.248 34.738Z" fill="#909092"/>
<path d="M275.261 31.3403C274.56 30.6292 273.469 30.2341 272.612 30.2341C271.833 30.1551 271.366 30.1551 270.587 30.3131C268.561 30.7082 265.913 31.5774 263.264 34.3429C262.563 31.3403 260.771 30.7872 259.447 30.7872C258.044 30.7872 255.551 31.1823 255.551 34.7379V60.4967C255.551 63.1041 256.954 64.6844 259.369 64.6844C262.017 64.6844 263.498 63.1832 263.498 60.4967C263.498 60.4967 263.42 47.3013 263.42 45.6419C263.342 42.8764 266.068 40.0319 268.639 39.3208C269.808 39.0047 270.431 38.8467 271.522 38.7677C271.6 38.7677 272.379 38.6887 272.457 38.6887C273.547 38.6097 274.404 38.4516 275.339 37.5825C276.196 36.7923 276.586 35.6071 276.586 34.3429C276.43 33.0786 276.196 32.2095 275.261 31.3403Z" fill="#909092"/>
<path d="M165.026 15.5374C162.455 15.5374 160.975 17.0387 161.053 19.6462L161.209 28.1797V29.523L161.365 39.8739V49.9878L161.287 60.4177C161.365 63.0251 162.923 64.5264 165.493 64.5264C167.831 64.5264 169.233 63.1042 169.467 60.5757C169.467 60.4967 169.545 53.8595 169.545 53.8595V39.7949L169.389 30.7082L169.311 19.4882C169.233 17.0387 167.675 15.5374 165.026 15.5374Z" fill="#909092"/>
<path d="M177.179 15.5374C174.608 15.5374 173.128 17.0387 173.206 19.6462L173.362 28.4168L173.44 39.8739V50.0668L173.362 60.4177C173.44 63.0251 174.998 64.5264 177.569 64.5264C179.906 64.5264 181.308 63.1042 181.542 60.5757C181.542 60.4967 181.62 53.8595 181.62 53.8595V39.7949L181.464 31.1823V29.444L181.308 19.4882C181.308 17.0387 179.75 15.5374 177.179 15.5374Z" fill="#909092"/>
<path d="M127.32 37.4244C126.463 36.6343 125.373 36.2392 124.048 36.2392C113.064 36.2392 103.248 34.817 98.8071 37.4244C97.0153 38.5307 96.7816 39.9529 96.8595 41.0591C96.9374 42.0863 97.4048 43.3505 98.1839 44.2197C99.2745 45.2469 100.365 45.8 101.612 45.8L103.481 45.3259C106.831 43.8246 114.232 44.7728 118.751 44.3777C118.907 46.7482 119.686 49.5927 114.544 53.8595C112.207 55.8348 108.545 56.4669 105.195 56.3089C96.1584 55.8348 93.3538 48.9606 92.5747 45.8C91.1725 39.6369 91.4062 35.2911 95.3793 29.365C97.4827 26.2834 102.079 23.3599 107.766 23.834C113.453 24.229 115.011 27.5476 118.127 29.2069C119.218 29.8391 119.997 30.1551 120.698 30.1551C121.867 30.1551 122.88 29.365 123.737 28.4958C124.516 27.7847 124.905 26.7575 124.749 25.5723C124.749 23.2018 122.334 20.0413 119.218 18.461C116.024 16.8017 112.674 15.3004 107.688 15.2214C104.416 15.1424 98.0281 16.5646 93.2759 20.0413C89.3027 23.0438 86.8877 26.0464 84.9401 31.5774C83.1483 36.5553 83.0704 41.6122 84.0052 46.6691C85.2517 53.3854 89.1469 57.8102 92.4189 60.4967C95.6909 63.1042 100.599 64.7635 106.052 64.7635C111.895 64.7635 117.271 62.9461 121.322 59.2325C126.463 54.4916 127.554 49.8297 127.398 43.7456C128.489 42.9555 129.112 41.9283 128.956 40.427C128.8 39.3208 128.255 38.2936 127.32 37.4244Z" fill="#909092"/>
<path d="M237.789 38.4516C238.802 38.2936 239.97 38.2146 241.061 38.3726C242.152 38.5306 244.021 39.3998 244.956 40.1899C243.242 41.0591 240.516 42.0073 238.179 42.9554C235.764 43.9036 233.972 44.5357 231.401 45.8C231.946 43.1925 232.803 41.9283 233.894 40.743C234.984 39.4788 236.776 38.6096 237.789 38.4516ZM252.124 53.2273C251.422 52.5162 250.565 52.1211 249.475 52.1211C248.306 52.1211 247.293 53.0693 246.359 54.4916C246.047 54.9656 244.956 56.1509 242.541 56.783C236.309 58.4423 233.66 55.6768 233.66 55.6768C232.647 55.2027 232.102 54.0965 231.557 52.9113C233.738 52.1211 237.633 50.6989 241.684 49.0396C245.735 47.4593 249.319 46.037 250.41 45.3259C252.435 44.0616 253.214 42.4023 253.136 40.585C252.98 37.2664 250.254 34.2638 247.371 32.8416C245.19 31.6564 242.385 31.0243 238.958 31.0243C234.595 31.1033 229.765 33.9478 227.272 37.0294C224.779 40.1109 223.377 44.9308 223.377 50.1458C223.377 54.8866 225.246 59.1534 228.285 61.2868C231.557 63.5782 234.751 64.6054 238.412 64.7634C241.918 64.9215 244.567 64.0523 247.527 62.7091C251.5 60.9707 253.526 58.6003 253.526 55.9928C253.37 54.8076 252.98 53.9385 252.124 53.2273Z" fill="#909092"/>
<path d="M223.532 31.9724C222.676 31.1823 221.741 30.7872 220.65 30.7872C219.092 30.7872 217.768 31.7354 216.988 33.3157C216.911 33.3947 214.496 39.6368 214.496 39.6368C212.86 43.8246 210.756 47.6173 209.51 50.3828C207.952 46.2741 203.121 33.3157 203.121 33.3157C202.42 31.6564 201.174 30.7872 199.46 30.7872C198.369 30.7872 197.357 31.1823 196.5 31.8934C195.643 32.6836 195.097 33.6317 195.175 34.817C195.253 36.0022 196.032 37.8195 196.032 37.8195L200.706 49.5137L205.225 61.0498C206.316 63.7363 208.185 64.3684 209.51 64.3684C211.691 64.3684 213.093 63.1042 213.327 60.9708C213.405 60.8127 220.027 47.2222 220.027 47.2222C223.532 39.6368 224.935 35.133 224.935 34.817C224.857 33.7108 224.389 32.6836 223.532 31.9724Z" fill="#909092"/>
<path d="M192.682 19.7252C191.825 18.856 190.735 18.4609 189.41 18.4609C188.086 18.4609 186.995 18.935 186.138 19.8042C185.281 20.5943 184.814 21.7005 184.892 22.9648C184.892 24.229 185.437 25.4142 186.45 26.2834C187.385 27.1525 188.553 27.5476 189.722 27.5476C190.89 27.5476 191.981 27.1525 192.916 26.2834C193.773 25.4142 194.318 24.308 194.24 22.9648C194.162 21.7005 193.617 20.5153 192.682 19.7252Z" fill="#909092"/>
<path d="M193.305 35.054C193.228 33.4737 192.526 32.5255 191.981 32.0515C191.28 31.3403 190.267 30.9453 189.099 30.9453C187.93 30.9453 186.917 31.3403 186.138 32.1305C185.437 32.8416 185.048 33.8688 185.125 35.054C185.125 35.054 184.97 38.2936 185.048 43.0345C185.125 48.5655 185.359 60.4967 185.359 60.4967C185.359 61.6819 185.827 62.6301 186.606 63.4202C187.463 64.2104 188.475 64.5264 189.566 64.5264C190.735 64.5264 191.669 64.1313 192.449 63.4202C193.228 62.472 193.539 61.5239 193.539 60.4177C193.539 60.4177 193.15 48.2494 193.15 42.5604C193.15 37.6615 193.305 35.054 193.305 35.054Z" fill="#909092"/>
</svg>
