<svg width="360" height="80" viewBox="0 0 360 80" fill="none" xmlns="http://www.w3.org/2000/svg">
<path d="M20 59.169V20.2803H23.8223V37.7107C25.899 34.4433 29.4842 32.8034 33.2738 32.8034C40.714 32.8034 45.8404 39.0054 45.8404 46.317C45.8404 53.5465 40.7835 59.7197 33.2738 59.7197C29.6068 59.7197 26.2792 58.2237 24.1207 55.1864C24.0144 55.0384 23.9163 54.8905 23.8182 54.7384V59.169H20ZM32.6197 56.0371C38.2489 56.0371 41.8546 51.8737 41.8546 46.2595C41.8546 40.822 38.3716 36.4284 32.6769 36.4284C27.0682 36.4284 23.6097 40.7439 23.6097 46.2595C23.6056 51.6518 26.9292 56.0371 32.6197 56.0371Z" fill="#586E8B"/>
<path d="M69.4375 59.7152C62.8885 59.7152 58.6206 54.7791 58.6206 48.3469V33.3496H62.5001V48.1784C62.5001 52.4816 64.8671 56.0326 69.4375 56.0326C74.0815 56.0326 76.4321 52.572 76.4321 48.1784V33.3496H80.2544V48.3469C80.2544 54.8736 76.0846 59.7152 69.4375 59.7152Z" fill="#586E8B"/>
<path d="M98.7109 59.1688V36.8146H92.2109V33.354H98.7109V22.479H102.59V33.354H113.788V22.479H117.667V33.354H124.114V36.8146H117.667V59.1688H113.788V36.8146H102.59V59.1688H98.7109Z" fill="#586E8B"/>
<path d="M147.379 59.7154C139.836 59.7154 134.048 53.6819 134.048 46.1483C134.048 38.6435 139.931 32.8032 147.379 32.8032C154.889 32.8032 160.71 38.586 160.71 46.1483C160.71 53.7148 154.95 59.7154 147.379 59.7154ZM147.379 55.9835C152.979 55.9835 156.777 51.6639 156.777 46.1524C156.777 40.6862 152.885 36.4858 147.379 36.4858C141.856 36.4858 138.038 40.6862 138.038 46.1524C138.038 51.6763 141.75 55.9835 147.379 55.9835Z" fill="#586E8B"/>
<path d="M174.085 59.1688V33.354H177.908V37.1475C179.915 34.2294 183.05 32.8032 186.542 32.8032C192.428 32.8032 196.647 37.4722 196.647 43.3494V59.1688H192.768V44.007C192.768 39.5765 190.016 36.3707 185.503 36.3707C181.154 36.3707 177.908 39.4902 177.908 43.9495V59.1647H174.085V59.1688Z" fill="#586E8B"/>
<path d="M226.691 59.1689H222.869V20.2803H226.691V37.7107C226.798 37.5463 226.904 37.386 227.018 37.2257C228.036 35.816 229.34 34.7269 230.927 33.9583C232.513 33.1897 234.25 32.8034 236.143 32.8034C238.51 32.8034 240.64 33.3993 242.537 34.5871C244.429 35.779 245.934 37.3901 247.046 39.4205C248.158 41.4549 248.714 43.7524 248.714 46.3129C248.714 48.8406 248.166 51.1093 247.074 53.1232C245.983 55.137 244.478 56.7399 242.565 57.9277C240.652 59.1196 238.514 59.7115 236.147 59.7115C234.181 59.7115 232.415 59.3087 230.849 58.5031C229.283 57.6976 228 56.5879 226.998 55.1781C226.892 55.0302 226.794 54.8822 226.7 54.7302V59.1689H226.691ZM235.485 56.0371C237.308 56.0371 238.911 55.6261 240.292 54.8C241.678 53.9739 242.761 52.8231 243.542 51.3394C244.327 49.8557 244.716 48.1624 244.716 46.2595C244.716 44.3196 244.323 42.618 243.542 41.1508C242.757 39.6876 241.674 38.5327 240.292 37.6902C238.906 36.8476 237.324 36.4284 235.538 36.4284C233.751 36.4284 232.178 36.8476 230.812 37.6902C229.447 38.5327 228.38 39.6876 227.615 41.1508C226.851 42.6139 226.467 44.3196 226.467 46.2595C226.467 48.1624 226.851 49.8557 227.615 51.3394C228.38 52.8231 229.434 53.9739 230.784 54.8C232.137 55.6261 233.702 56.0371 235.485 56.0371Z" fill="#586E8B"/>
<path d="M262.137 59.1689V20.2803H265.959V59.1689H262.137Z" fill="#586E8B"/>
<path d="M291.194 59.7152C284.645 59.7152 280.377 54.7791 280.377 48.3469V33.3496H284.256V48.1784C284.256 52.4816 286.623 56.0326 291.194 56.0326C295.838 56.0326 298.188 52.572 298.188 48.1784V33.3496H302.011V48.3469C302.011 54.8736 297.841 59.7152 291.194 59.7152Z" fill="#586E8B"/>
<path fill-rule="evenodd" clip-rule="evenodd" d="M336.036 52.6875C334.274 54.8165 331.792 56.0413 328.387 56.0906C323.203 56.0783 319.418 52.9218 318.707 47.6857H339.752C341.211 39.6959 336.097 32.8075 328.007 32.7993C320.771 32.7993 314.786 38.3067 314.786 46.202C314.786 53.3533 320.096 59.6992 328.334 59.7156C332.671 59.7156 336.093 57.9237 338.497 55.2111L336.036 52.6875ZM318.723 44.3936L336.285 44.3977C335.929 39.4698 332.839 36.3709 327.896 36.375C322.643 36.3791 319.475 39.5726 318.723 44.3936Z" fill="#586E8B"/>
</svg>
