<svg width="360" height="80" viewBox="0 0 360 80" fill="none" xmlns="http://www.w3.org/2000/svg">
<path d="M117.265 37.77C117.265 42.1231 116.747 45.681 115.722 48.4354C114.153 52.6082 111.558 55.8381 107.955 58.0843C104.482 60.2404 100.353 61.3307 95.5947 61.3307C87.8456 61.3307 81.9066 58.8221 77.7519 53.8132C74.6144 50.0094 73.0542 45.4678 73.0542 40.1966C73.0542 34.3515 74.8902 29.441 78.5536 25.465C82.7169 20.9316 88.5179 18.6689 95.9826 18.6689C100.965 18.6689 105.188 19.8822 108.654 22.3006C111.127 24.0304 113.239 26.5635 114.989 29.9328L104.602 33.9662C103.714 32.1299 102.68 30.7526 101.508 29.8263C99.8183 28.531 97.8013 27.8752 95.4654 27.8752C90.7073 27.8752 87.3801 30.2034 85.5097 34.8598C84.8028 36.5731 84.458 38.3438 84.458 40.172C84.458 43.9758 85.7251 47.1402 88.268 49.6815C90.147 51.567 92.6554 52.5098 95.7929 52.5098C98.5771 52.5098 100.801 51.7392 102.421 50.198C103.499 49.1814 104.206 47.6894 104.533 45.6973H95.4826V37.7454H117.265V37.77ZM165.897 60.0518H141.762V19.874H152.717V51.3785H165.897V60.0518ZM229.425 19.874L211.427 60.0518H202.894L185.155 19.874H197.093L207.256 44.3037L217.513 19.874H229.425ZM286.946 60.0518H273.327L262.871 44.689V60.0518H251.916V19.874H268.974C273.965 19.874 277.654 21.3005 280.05 24.1533C281.981 26.4487 282.955 29.154 282.955 32.2528C282.955 35.8189 281.843 38.6554 279.619 40.7786C278.197 42.1313 276.232 43.074 273.741 43.6069L286.946 60.0518ZM271.551 32.8349C271.551 31.4002 271 30.1952 269.905 29.2114C268.879 28.2851 267.216 27.826 264.923 27.826H262.871V37.8848H264.923C267.233 37.8848 268.905 37.4257 269.905 36.4993C271 35.4992 271.551 34.2695 271.551 32.8349Z" fill="#211E1F"/>
</svg>
