<svg width="204" height="40" viewBox="0 0 204 40" fill="none" xmlns="http://www.w3.org/2000/svg">
<path d="M11.6516 14.6341H16.3061C16.1394 15.7091 15.7755 16.5199 15.2206 17.0695C14.3837 17.9016 13.2466 18.3176 11.8153 18.3176C10.2052 18.3176 8.91343 17.8075 7.94614 16.7841C6.63922 15.4115 5.98728 13.6988 5.98728 11.6398C5.98728 10.6499 6.16618 9.69632 6.53006 8.76708C7.49129 6.24658 9.19847 4.98633 11.6455 4.98633C12.8433 4.98633 13.8803 5.33859 14.7475 6.04008C15.351 6.54115 15.8816 7.28515 16.3365 8.27816L21.6733 6.09474C20.7727 4.27573 19.6871 2.90009 18.4196 1.96477C16.6397 0.658973 14.4716 0 11.9093 0C8.07349 0 5.08972 1.22381 2.955 3.67142C1.07195 5.82447 0.128906 8.48162 0.128906 11.6429C0.128906 14.4944 0.932462 16.9511 2.5426 19.01C4.6743 21.7218 7.72781 23.0793 11.7092 23.0793C14.1563 23.0793 16.2758 22.4932 18.0618 21.324C19.9176 20.1063 21.2457 18.3632 22.0554 16.1038C22.583 14.6158 22.8468 12.6936 22.8468 10.334H11.6516V14.6371V14.6341Z" fill="#808285"/>
<path d="M47.2383 12.396C47.2383 14.4276 46.9776 15.8032 46.456 16.5138C45.7555 17.4765 44.7215 17.9593 43.3418 17.9593C42.7233 17.9593 42.1653 17.8409 41.6559 17.5949C40.4127 17.0088 39.7425 15.9824 39.6394 14.5096C39.6061 14.0419 39.5909 13.3404 39.5909 12.396V0.652903H33.96V13.1855C33.96 14.7981 34.0752 16.0856 34.3087 17.0361C34.6392 18.3875 35.2456 19.508 36.1371 20.3978C37.8201 22.0984 40.1579 22.9456 43.1569 22.9456C46.1558 22.9456 48.4452 22.1136 50.2039 20.4464C51.4471 19.2681 52.2264 17.9593 52.557 16.529C52.7692 15.6058 52.8723 14.4853 52.8723 13.1825V0.652903H47.2414V12.399L47.2383 12.396Z" fill="#808285"/>
<path d="M72.0699 0.652903H66.439V22.393H78.841V17.6981H72.0699V0.652903Z" fill="#808285"/>
<path d="M96.3824 0.652903H90.7515V22.393H103.154V17.6981H96.3824V0.652903Z" fill="#808285"/>
<path d="M120.195 0.652903H114.564V22.393H120.195V0.652903Z" fill="#808285"/>
<path d="M141.385 13.8688L136.16 0.652903H130.026L139.144 22.393H143.529L152.777 0.652903H146.658L141.385 13.8688Z" fill="#808285"/>
<path d="M161.125 22.393H173.46V17.6981H166.756V13.7868H173.103V9.09505H166.756V5.34467H173.46V0.652903H161.125V22.393Z" fill="#808285"/>
<path d="M197.088 13.4953C198.368 13.2068 199.377 12.6966 200.108 11.9648C201.251 10.8169 201.821 9.28029 201.821 7.35196C201.821 5.67264 201.321 4.21197 200.33 2.9669C199.098 1.42424 197.206 0.652903 194.638 0.652903H185.872V22.393H191.503V14.0814L196.873 22.393H203.871L197.085 13.4953H197.088ZM195.12 9.64774C194.605 10.1488 193.746 10.3978 192.558 10.3978H191.506V4.95597H192.558C193.734 4.95597 194.592 5.20498 195.12 5.70605C195.684 6.23748 195.966 6.89038 195.966 7.66778C195.966 8.44519 195.684 9.1072 195.12 9.65077V9.64774Z" fill="#808285"/>
<path d="M55.0039 40H55.8408V37.6617H58.1393V36.9056H55.8408V35.2202H58.5426V34.464H55.0039V40Z" fill="#808285"/>
<path d="M74.4167 34.464L72.3911 40H73.2765L73.6647 38.8885H75.8449L76.233 40H77.1093L75.0898 34.464H74.4136H74.4167ZM73.9042 38.1749L74.7745 35.7182L75.6205 38.1749H73.9042Z" fill="#808285"/>
<path d="M94.321 37.9107L92.7078 34.464H91.877V40H92.7139V36.3012L94.0117 38.9979H94.6333L95.9069 36.3012V40H96.7529V34.464H95.9129L94.321 37.9107Z" fill="#808285"/>
<path d="M113 34.464H112.16V40H113V34.464Z" fill="#808285"/>
<path d="M129.252 34.464H128.416V40H131.915V39.2469H129.252V34.464Z" fill="#808285"/>
<path d="M147.619 36.8995L146.455 34.464H145.539L147.192 37.7224V40H148.032V37.7224L149.678 34.464H148.768L147.619 36.8995Z" fill="#808285"/>
</svg>
