<svg width="360" height="80" viewBox="0 0 360 80" fill="none" xmlns="http://www.w3.org/2000/svg">
<mask id="mask0_7076_347" style="mask-type:luminance" maskUnits="userSpaceOnUse" x="75" y="4" width="210" height="72">
<path d="M284.971 4.6582H75.0298V75.3415H284.971V4.6582Z" fill="white"/>
</mask>
<g mask="url(#mask0_7076_347)">
<path d="M231.535 31.4728H228.632V29.9969H236.129V31.4728H233.221V39.4807H231.535V31.4728ZM259.328 38.2843C258.577 38.2843 257.721 37.8826 257.249 37.2408L256.044 38.3673C256.791 39.2493 258.066 39.7165 259.297 39.7165C261.157 39.7165 262.751 38.7253 262.751 36.6906C262.751 34.8305 261.197 34.2935 259.978 33.9179C258.909 33.5817 258.17 33.3285 258.17 32.4596C258.17 31.5382 259.066 31.1627 259.843 31.1627C260.515 31.1627 261.223 31.5121 261.585 31.9793L262.685 30.7741C261.96 30.093 260.878 29.7568 259.926 29.7568C258.21 29.7568 256.459 30.6126 256.459 32.5425C256.459 34.3109 257.703 34.8698 258.852 35.2322C260.044 35.6077 261.035 35.8916 261.035 36.8827C261.039 37.8957 260.114 38.2843 259.328 38.2843ZM250.586 39.4764H252.272V35.3632L255.83 29.9925H253.874L251.464 33.9834L249.08 29.9925H247.019L250.577 35.3632V39.4764H250.586ZM236.714 34.7083C236.714 31.6692 238.867 29.7568 241.788 29.7568C244.744 29.7568 246.901 31.6692 246.901 34.7083C246.901 37.6687 244.744 39.7165 241.788 39.7165C238.871 39.721 236.714 37.6687 236.714 34.7083ZM238.548 34.7083C238.548 36.7299 239.871 38.2057 241.801 38.2057C243.744 38.2057 245.067 36.7299 245.067 34.7083C245.067 32.7521 243.77 31.2413 241.801 31.2413C239.849 31.2457 238.548 32.7565 238.548 34.7083ZM284.247 63.2165C284.408 63.6182 284.653 63.0988 284.875 63.221L284.919 63.3125L284.971 62.9678C284.731 63.0464 284.435 63.3125 284.247 63.2165ZM283.518 62.3914C283.574 62.5486 283.404 62.5486 283.666 62.4218C283.653 62.4043 283.644 62.3956 283.635 62.3827C283.609 62.3914 283.579 62.3956 283.518 62.3914ZM283.635 62.3869C283.539 62.2604 283.758 62.3607 283.635 62.3869V62.3869ZM283.229 62.3827C283.186 62.2908 283.037 62.2866 283.081 62.2122C282.928 62.3128 282.972 62.4043 283.085 62.5486L283.229 62.3827ZM282.976 62.8717L283.05 62.8018C283.029 62.7624 283.007 62.7494 282.976 62.8717ZM283.125 62.7449C283.125 62.8717 283.146 62.7494 283.207 62.6488L283.05 62.8018C283.081 62.863 283.103 62.9981 283.125 62.7449ZM283.317 62.7012C283.417 62.7798 283.539 62.8235 283.4 62.9894C283.696 62.8892 283.614 62.6052 283.317 62.7012ZM284.242 63.6531L284.378 63.7579L284.465 63.6053C284.417 63.6838 284.216 63.5267 284.242 63.6531ZM282.278 62.6883C282.208 62.6359 282.085 62.5964 282.059 62.4655C282.063 62.5573 282.147 62.6925 282.173 62.806L282.278 62.6883ZM282.173 62.806L282.016 62.9807C282.177 62.9765 282.199 62.9021 282.173 62.806ZM283.007 63.3387L283.256 62.9852L282.954 63.352L283.007 63.3387ZM281.387 62.5486L281.457 62.3303L281.321 62.6621L281.387 62.5486ZM280.941 62.6446C280.994 62.4655 280.802 62.3694 280.863 62.2559C280.745 62.3041 280.662 62.4655 280.588 62.6052C280.675 62.5224 280.784 62.5266 280.941 62.6446ZM280.457 62.8235C280.5 62.7756 280.54 62.697 280.588 62.6097C280.54 62.6576 280.496 62.7187 280.457 62.8235ZM281.539 62.7449L281.644 62.9852L281.714 62.9807C281.723 63.0027 281.732 63.0114 281.732 62.9807H281.714C281.692 62.9283 281.644 62.7931 281.539 62.7449ZM281.492 62.994C281.513 62.994 281.557 62.994 281.649 62.994L281.644 62.9852C281.566 62.9894 281.513 62.994 281.492 62.994ZM282.47 63.688C282.522 63.5092 282.387 63.4044 282.513 63.1728C282.43 63.3258 282.234 63.5047 282.47 63.688ZM282.055 63.3083C282.042 63.2427 281.994 63.1512 282.037 63.0768L281.858 63.2776L281.784 63.2689L281.775 63.3737L281.858 63.2821L282.055 63.3083ZM280.81 63.0114C280.745 63.1291 280.657 63.1512 280.561 63.1861C280.675 63.221 280.788 63.2297 280.893 63.2165C280.898 63.1337 280.924 62.9852 280.81 63.0114ZM281.221 63.0243L281.203 63.0418C281.216 63.0593 281.225 63.068 281.221 63.0243ZM279.597 63.3171H279.579L279.601 63.3607L279.597 63.3171ZM281.081 63.1424C281.024 63.1773 280.963 63.199 280.893 63.2123C280.889 63.2514 280.893 63.2734 280.915 63.2559C281.007 63.2951 281.046 63.2252 281.081 63.1424ZM280.199 62.9765C280.247 63.0244 280.304 63.0593 280.361 63.0942C280.304 63.0202 280.203 62.9108 280.199 62.9765ZM281.168 62.9765L281.177 62.9632C281.146 62.9154 281.151 62.937 281.168 62.9765ZM281.203 63.0418C281.19 63.0244 281.177 63.0027 281.168 62.9765C281.129 63.0202 281.107 63.0855 281.081 63.1424C281.129 63.1162 281.168 63.0813 281.203 63.0418ZM279.457 63.7142C279.54 63.8323 279.911 63.95 279.784 64.1816C279.557 64.3343 279.57 64.1292 279.435 64.0244C279.579 64.2993 279.186 64.4827 279.304 64.8977L279.496 64.7185C279.509 64.7842 279.448 64.8977 279.513 64.9501C279.492 64.7185 279.675 64.474 279.893 64.6969C280.046 64.5002 279.824 63.7579 279.601 63.3562C279.605 63.461 279.618 63.5529 279.457 63.7142ZM279.719 63.0202C279.605 63.1511 279.592 63.2385 279.597 63.3171L279.976 63.2951L279.955 63.3345L280.024 63.2951C279.933 63.2689 279.859 63.1861 279.719 63.0202ZM280.374 63.2776C280.439 63.2252 280.5 63.2035 280.561 63.1861C280.492 63.1641 280.422 63.1337 280.356 63.0988L280.365 63.1117V63.1162C280.383 63.1466 280.391 63.1641 280.374 63.1466L280.365 63.1512C280.369 63.1861 280.365 63.2165 280.361 63.2472C280.247 63.2123 280.334 63.1815 280.365 63.1512V63.1117L280.361 63.1075L280.02 63.2951C280.103 63.3171 280.195 63.2996 280.361 63.2472C280.339 63.5047 280.168 63.6402 280.321 63.8934C280.544 63.8452 280.448 63.6618 280.566 63.5354C280.221 63.6489 280.657 63.3824 280.374 63.2776ZM282.352 64.2557C282.339 64.234 282.334 64.2166 282.334 64.1991C282.312 64.234 282.308 64.2557 282.352 64.2557ZM282.308 63.8934L282.286 63.9326C282.129 63.8672 281.902 63.5791 281.924 63.5396C281.998 63.7579 282.055 63.9151 282.181 64.1247C282.203 64.0856 282.212 63.9808 282.299 63.9982C282.382 64.0636 282.317 64.1205 282.33 64.1991C282.374 64.1247 282.487 63.9937 282.308 63.8934ZM280.994 63.9151L281.177 64.1118L281.151 63.9808C281.33 64.007 281.269 63.854 281.277 63.7492L280.994 63.9151ZM279.522 62.9283L279.404 63.3258L279.522 63.199V62.9283ZM279.033 63.2035L279.134 63.2821L279.116 63.0505L279.033 63.2035ZM275.143 64.0199C275.016 63.9413 274.92 63.9151 274.837 63.9196C274.999 64.0374 275.147 64.2382 275.143 64.0199ZM274.841 63.9196C274.724 63.8278 274.597 63.7841 274.518 63.9762C274.54 63.9982 274.562 64.007 274.588 64.0244C274.663 63.972 274.737 63.9196 274.841 63.9196ZM278.086 64.4827C278.081 64.4216 278.09 64.3779 278.099 64.3563C278.09 64.3867 278.081 64.4261 278.086 64.4827ZM277.688 63.5179C277.653 63.4917 277.614 63.4743 277.571 63.461C277.588 63.4743 277.627 63.4959 277.688 63.5179ZM277.571 63.4568C277.553 63.4435 277.54 63.4306 277.544 63.4219C277.553 63.3911 277.623 63.3911 277.544 63.4219C277.518 63.4306 277.487 63.4393 277.431 63.4523C277.479 63.4393 277.522 63.4481 277.571 63.4568ZM278.103 64.3517C278.112 64.3343 278.125 64.3343 278.134 64.3213C278.125 64.3255 278.112 64.3343 278.103 64.3517ZM278.981 63.5179C278.732 63.4435 278.562 63.8585 278.4 64.0636L278.618 64.2819C278.575 64.7231 278.256 64.2777 278.134 64.3213C278.208 64.2602 278.339 64.3255 278.361 64.4174L278.256 64.0681C277.972 63.9675 277.811 64.2777 277.653 64.4827C277.845 64.5746 277.479 64.7318 277.645 64.963L277.776 64.8977C277.859 65.0112 277.741 65.1422 277.684 65.26C277.213 65.0678 276.453 65.4217 276.252 65.1639C276.357 65.2425 276.505 65.1377 276.566 65.02L276.339 64.9019C276.505 64.8628 276.684 65.1597 276.911 65.0025C276.832 64.7842 276.959 64.4478 276.723 64.1642C276.195 63.8847 276.435 64.8146 275.859 64.8146C275.819 64.8932 275.916 64.4261 275.636 64.6008C275.295 64.8932 275.112 65.4566 275.199 65.9456C275.33 65.7752 275.597 65.4304 275.706 65.7752C275.575 65.9456 275.318 66.0854 275.344 66.3166C275.108 65.9369 275.619 66.142 275.348 65.8363C275.239 65.8671 275.217 66.011 275.178 66.0896C275.221 65.9062 275.029 65.8234 274.977 65.7315C274.619 65.7927 274.379 65.6529 273.99 65.6879C274.012 65.7228 274.016 65.7315 273.981 65.6879H273.99C273.959 65.6313 273.894 65.509 273.885 65.4084C273.719 65.5527 273.566 66.2164 273.684 66.4563C273.47 66.5133 273.418 66.3212 273.257 66.4696C273.623 66.7795 273.187 66.4172 273.23 66.8189C273.051 66.9017 273.126 66.6397 273.021 66.5657C272.999 66.6135 272.946 66.7578 272.964 66.8626C272.789 66.5873 273.038 66.0417 272.833 65.7228C272.693 65.5177 272.291 65.2861 272.326 65.2645C271.964 65.5003 272.82 66.631 272.671 67.3209C272.623 67.5525 272.444 67.1113 272.357 67.1071C272.043 66.7882 272.051 67.4739 271.824 67.3691L271.933 67.1288C271.881 67.0414 271.61 67.2248 271.593 67.3691C271.558 67.2423 271.606 66.6705 271.484 66.5395C271.108 66.5482 270.92 67.3296 271.025 67.7097C271.025 67.7097 271.287 67.0547 271.357 67.2119C271.519 67.57 271.475 67.6398 271.274 67.9804C271.209 68.0939 270.772 68.1026 270.746 67.9717C270.733 67.906 270.981 67.8145 270.864 67.6527C270.65 67.7184 270.742 67.6224 270.562 67.5001C270.719 67.0414 270.951 65.8933 271.012 65.3605C271.012 65.3605 270.881 65.64 270.794 65.6313C270.742 65.6267 270.689 65.4566 270.689 65.4566C270.396 65.7839 270.619 67.2905 270.353 67.4606C270.069 67.6398 270.052 66.7183 270.069 66.5744C270.047 66.5786 270.03 66.5919 270.012 66.6006C270.025 66.6967 270.03 66.7927 270.021 66.8888C269.973 67.3296 269.741 67.6747 269.37 67.8669C269.34 67.8843 269.305 67.8973 269.27 67.906C267.248 68.548 265.244 69.0807 263.31 69.4912C261.611 69.8579 259.821 70.1765 257.992 70.4472C256.791 70.6219 255.677 70.7092 254.669 70.7092C254.101 70.7092 253.568 70.683 253.066 70.6264C253.044 70.6219 253.027 70.6219 253.005 70.6177C250.328 70.063 250.093 68.4911 250.189 67.6049C250.281 66.7753 250.665 65.8712 251.333 64.9152C251.957 64.0157 252.678 63.1553 253.468 62.3607C254.175 61.6491 254.869 61.0158 255.529 60.4744C255.328 60.4789 255.119 60.4789 254.896 60.4789C253.442 60.4918 251.926 60.4702 250.385 60.4132C250.368 60.4132 250.355 60.4132 250.337 60.409L248.477 60.2037C248.425 60.1995 248.377 60.1907 248.329 60.182C243.753 63.4481 236.387 66.4563 232.845 67.6091C232.841 67.6091 232.828 67.6136 232.81 67.6136C232.562 67.7051 232.304 67.7837 232.024 67.8581C231.055 68.1114 230.182 68.2424 229.435 68.2424C229.431 68.2424 229.431 68.2424 229.427 68.2424C229.352 68.2424 229.282 68.2336 229.208 68.2291C229.099 68.2336 228.99 68.2424 228.885 68.2424C228.881 68.2424 228.881 68.2424 228.876 68.2424C228.042 68.2424 227.361 68.0503 226.846 67.6747C226.379 67.3342 225.999 66.9366 225.715 66.4913C225.431 66.0504 225.244 65.6005 225.143 65.1464C225.051 64.7231 225.008 64.3867 225.008 64.1247C225.008 63.5658 224.942 62.7669 225.195 61.6795C224.706 61.7232 224.204 61.7626 223.676 61.7843C221.55 61.8674 218.794 61.0291 217.305 60.4527L214.664 62.5091C214.646 62.5266 214.633 62.5486 214.611 62.5661L214.332 62.7798C214.14 62.9283 213.943 63.0813 213.738 63.2339C212.502 64.1334 211.24 64.9543 209.983 65.6749C208.651 66.4347 207.368 66.8888 206.167 67.0285C206.066 67.0414 205.966 67.046 205.865 67.046C205.158 67.046 204.507 66.7491 203.931 66.1552C203.316 65.5265 202.953 64.8104 202.866 64.0374C202.774 63.2472 202.957 62.339 203.412 61.3302C203.835 60.3958 204.368 59.4659 205.001 58.5664C205.119 58.4005 205.285 58.1735 205.477 57.9115C201.093 61.2516 196.364 64.0898 193.347 65.1772C193.343 65.1772 193.268 65.1901 193.146 65.2076C192.753 65.3344 192.365 65.4346 191.95 65.5439C191.806 65.5831 191.657 65.618 191.504 65.6575C190.487 65.9236 189.574 66.0592 188.788 66.0592C187.898 66.0592 187.177 65.8538 186.636 65.4566C186.147 65.094 185.745 64.6749 185.448 64.212C185.151 63.7492 184.95 63.2734 184.846 62.7931C184.75 62.3477 184.706 61.9939 184.706 61.7144C184.706 61.1468 184.784 60.6099 184.937 60.1076C184.693 60.2431 184.453 60.3696 184.217 60.4918C183.352 60.9372 182.75 61.2167 182.374 61.3389C182.025 61.4919 181.584 61.662 181.069 61.8454C180.614 62.0026 180.13 62.1947 179.632 62.4176C179.545 62.4567 179.453 62.4742 179.357 62.4742C179.147 62.4742 178.754 62.4043 178.475 61.924C178.326 61.6795 178.252 61.4308 178.252 61.1905C178.252 60.5355 178.593 60.2648 178.798 60.1645C178.82 60.1513 178.842 60.1425 178.868 60.1338C179.257 59.9899 179.658 59.8327 180.174 59.6318C180.575 59.4701 180.946 59.3087 181.269 59.147C182.549 58.5357 183.671 57.9244 184.605 57.3218C185.701 56.6669 186.509 56.0863 187.003 55.5885C187.47 55.1212 187.775 54.7065 187.911 54.3485C188.103 53.842 188.291 53.449 188.491 53.1475C188.788 52.7067 189.229 52.4622 189.74 52.4622C190.269 52.4622 190.749 52.5974 191.168 52.8681C191.526 53.0997 191.95 53.558 191.95 54.4225C191.95 54.724 191.836 55.0513 191.596 55.453L190.98 56.3699C190.723 56.7542 190.465 57.2083 190.22 57.7281C189.976 58.2433 189.758 58.8022 189.574 59.3828C189.4 59.9329 189.308 60.4614 189.308 60.9592C189.308 61.4 189.461 61.7668 189.784 62.0899C190.103 62.4089 190.653 62.5702 191.426 62.5748C191.714 62.5748 192.692 62.3739 193.6 62.1643C195.862 61.435 198.74 59.9242 202.206 57.632C203.019 57.0948 203.94 56.5009 204.83 55.9291C206.621 54.7764 208.477 53.5842 209.537 52.7853C209.765 52.6148 209.948 52.5537 210.092 52.5974C210.529 52.5013 211.127 52.5101 211.563 52.6543C212.707 53.0298 213.219 54.3747 213.083 55.1736C213.022 55.5316 212.611 56.1562 210.507 59.1253C209.782 60.1471 209.097 61.1119 208.721 61.6882L208.608 61.8587C208.485 62.0421 208.136 62.5661 208.066 62.828C207.974 63.1379 208.559 63.0726 208.708 63.0551C209.656 62.9458 210.8 62.3956 212.109 61.4308L216.52 57.5622C216.541 57.5401 216.567 57.5227 216.594 57.5052C216.925 57.2914 217.69 57.086 218.467 57.6537L218.808 57.9069C219.672 58.5577 220.296 59.0247 222.388 59.2563C223.261 59.3524 224.558 59.2651 226.095 59.0073C226.519 57.894 227.029 56.7063 227.505 55.8198C227.51 55.8111 227.51 55.8023 227.514 55.7936C228.523 53.6149 230.038 51.9861 232.02 50.9427C232.841 50.5148 233.854 50.2832 234.727 50.3356C236.19 50.4187 237.351 51.1128 237.91 52.2393C238.478 53.3833 238.33 54.7589 237.491 56.0032C235.793 58.5228 233.479 59.4788 231.252 60.3567C231.142 60.4003 230.985 60.4527 230.793 60.5138C230.749 60.5268 230.706 60.5442 230.662 60.5575C230.475 60.9767 230.304 61.4175 230.156 61.8804C229.986 62.4131 229.898 62.9241 229.898 63.4044C229.898 63.8365 230.051 64.2033 230.37 64.5177C230.632 64.7842 231.068 64.9326 231.64 64.9718C231.981 64.9281 232.562 64.8104 233.16 64.6794C236.382 63.7841 241.722 61.5007 244.862 59.6011C245.097 59.4614 245.32 59.3129 245.547 59.169C245.504 59.1295 245.455 59.0946 245.412 59.0555C245.39 59.038 245.373 59.016 245.355 58.9943C245.08 58.6538 244.927 58.3656 244.87 58.0816C244.857 58.0163 244.853 57.9506 244.862 57.8853C244.936 57.2216 245.351 56.523 246.137 55.7412C246.844 55.0426 247.669 54.4051 248.595 53.8507C249.499 53.3093 250.424 52.8464 251.355 52.4751C252.359 52.0734 253.149 51.912 253.765 51.9819C254.56 52.0647 254.839 52.5757 254.935 52.8726C255.049 53.2261 255.084 53.5929 255.044 53.9597C254.992 54.4487 253.56 56.0426 252.752 56.9027C252.839 56.9159 252.935 56.9334 253.044 56.9463L254.311 57.086C254.861 57.1472 255.498 57.1734 256.193 57.1692C256.9 57.1692 257.651 57.1384 258.428 57.0819C259.166 57.0249 259.878 56.9247 260.555 56.7804C260.624 56.7629 260.69 56.7629 260.76 56.7717C261.122 56.8111 261.437 57.0249 261.69 57.3962C261.926 57.7455 262.022 58.1078 261.982 58.4833C261.878 59.4614 261.349 60.0901 260.493 60.2735C260.1 60.5006 259.59 60.8282 258.978 61.2474C258.323 61.7015 257.686 62.2255 257.088 62.8018C256.472 63.3957 255.917 64.0024 255.446 64.6008C255.027 65.1335 254.791 65.6225 254.743 66.0634C254.708 66.3648 254.8 66.5961 255.04 66.8144C255.201 66.9628 255.651 67.2248 256.865 67.3604C258.271 67.513 259.69 67.5001 261.078 67.3254C262.493 67.1462 263.79 66.9192 264.934 66.6572C266.318 66.3603 267.628 65.9935 268.838 65.5743C268.925 65.5439 269.021 65.5307 269.113 65.5439C269.126 65.5439 269.143 65.5481 269.161 65.5527C269.187 65.509 269.217 65.5045 269.257 65.5743C269.27 65.5789 269.283 65.5831 269.296 65.5876C269.318 65.5265 269.344 65.4695 269.379 65.4217C269.279 65.225 269.75 65.1684 269.75 65.1772C269.737 65.2687 269.837 65.1597 269.968 65.1335C270.527 65.0287 270.645 64.3825 271.169 64.8803C271.1 64.832 271.008 64.8233 271.003 64.9281C271.331 64.832 271.741 65.1552 271.912 64.9019L271.846 64.6445C272.069 64.4785 272.239 64.3517 272.44 64.3255C272.44 64.3255 272.34 64.081 272.392 64.0286C272.615 63.8103 273.23 63.5005 273.519 64.0723C273.545 63.8236 273.903 63.9064 274.077 63.9588C274.134 63.9762 274.16 64.1771 274.16 64.1771C274.387 64.212 274.505 64.1072 274.619 64.0199C275.134 64.4129 275.448 63.8714 275.833 63.841L275.846 63.9064L276.204 63.6839C276.138 63.9064 276.256 63.5309 276.383 63.5703C276.488 63.4393 276.693 63.4697 276.863 63.592L277.108 63.5658C276.859 63.7624 277.178 63.8889 277.234 64.1467L277.356 63.9151C277.44 64.0286 277.291 64.1334 277.413 64.1729C277.496 64.0157 277.806 63.9762 277.859 63.6926C277.833 63.6269 277.789 63.5745 277.732 63.5309C277.723 63.5483 277.723 63.5441 277.728 63.5267L277.714 63.5134L277.728 63.5179C277.736 63.4917 277.749 63.4435 277.754 63.4086C277.732 63.4044 277.71 63.3999 277.68 63.3957C277.745 63.3387 277.758 63.3649 277.758 63.4086C277.964 63.4348 277.872 63.3387 277.85 63.2252C278.134 63.5965 278.217 63.3038 278.457 63.7537C278.147 63.2514 278.959 63.6664 278.741 63.1773C278.937 63.5703 278.824 63.1815 278.981 63.5179ZM232.16 57.3526C233.391 56.7937 234.321 55.9291 235.155 54.724C235.321 54.4882 235.548 53.8549 234.941 53.8287C234.863 53.8245 234.705 53.8898 234.527 54.1214C233.623 55.2871 232.955 56.204 232.16 57.3526ZM276.671 63.7928C276.566 63.7537 276.514 63.7188 276.667 63.8061C276.667 63.8016 276.671 63.7928 276.671 63.7928ZM278.391 63.3258C278.378 63.2601 278.33 63.1728 278.383 63.1599L278.212 63.2601C278.3 63.2339 278.343 63.2909 278.391 63.3258ZM280.199 64.6661C280.221 64.627 280.256 64.6532 280.273 64.6137L280.247 64.4827C280.138 64.5135 280.072 64.627 280.199 64.6661ZM278.693 64.0636C278.745 64.2993 278.841 64.1991 278.963 64.1334C278.955 64.138 278.95 64.138 278.942 64.138C278.924 63.8061 278.806 63.9371 278.693 64.0636ZM278.989 64.1247C279.024 64.1072 279.064 64.0943 279.103 64.103C279.099 63.9633 279.051 64.081 278.989 64.1247ZM277.3 63.6577C277.37 63.7101 277.291 63.352 277.339 63.4393C277.361 63.1291 276.998 63.8672 277.3 63.6577ZM278.784 64.7884L278.907 64.8279L278.819 64.5439L278.784 64.7884ZM278.142 64.7098C278.016 64.7185 277.872 64.6836 277.894 64.7667L278.107 64.8146C278.09 64.7709 278.112 64.736 278.142 64.7098C278.208 64.7056 278.269 64.6881 278.295 64.6357C278.26 64.6445 278.186 64.6661 278.142 64.7098ZM278.439 64.9064L278.653 64.9588L278.584 64.9064H278.439ZM275.671 65.2774C275.71 65.1988 275.785 65.1464 275.737 65.0549L275.536 65.1772C275.527 65.282 275.597 65.3298 275.671 65.2774ZM276.444 65.8974L276.523 65.7403C276.453 65.6879 276.439 65.6267 276.392 65.5352L276.444 65.8974ZM275.907 65.9282C275.903 66.033 275.645 66.273 275.911 66.1989C275.916 66.0983 276.121 65.976 275.907 65.9282ZM270.087 67.5916C269.89 67.5043 269.868 67.7097 270.025 68.0765C270.309 68.1638 270.003 67.7009 270.27 67.8274C270.3 67.6747 270.213 67.6485 270.087 67.5916ZM185.92 45.7858C182.579 48.7595 179.331 51.5016 176.265 53.9335C173.336 56.2564 170.856 58.1602 168.895 59.5882C168.083 63.1337 167.729 66.3823 167.843 69.2421L167.887 70.347C167.908 70.836 167.834 71.2901 167.668 71.7006C167.454 72.22 166.961 72.5826 166.197 72.7789C165.969 72.8575 165.686 72.9057 165.354 72.9186C165.306 72.9232 165.253 72.9232 165.206 72.9232C164.227 72.9232 163.708 72.504 163.442 72.1501C163.088 71.6831 162.9 71.1459 162.874 70.552C162.839 66.6879 163.55 62.3477 164.996 57.6537C166.07 54.1693 167.424 50.6021 169.039 47.0171C168.952 47.1003 168.865 47.1876 168.777 47.2704C165.529 50.3663 162.372 53.2132 159.398 55.737C156.547 58.1602 154.132 60.1425 152.224 61.6358C151.53 65.2121 151.285 68.4694 151.495 71.3163L151.578 72.4167C151.613 72.9057 151.552 73.364 151.403 73.779C151.207 74.3071 150.722 74.6872 149.967 74.901C149.744 74.9883 149.464 75.0452 149.128 75.0714C149.037 75.0756 148.954 75.0802 148.875 75.0802C147.962 75.0802 147.456 74.6872 147.194 74.3595C146.827 73.9054 146.618 73.3727 146.574 72.7834C146.46 70.1898 146.687 67.3604 147.233 64.3517L146.989 64.4827C146.46 64.7709 145.775 65.1552 144.958 65.6267C144.125 66.1116 143.199 66.5961 142.212 67.0722C141.238 67.5392 140.269 67.9671 139.322 68.3472C138.348 68.7401 137.453 68.9847 136.662 69.0807C135.789 69.1855 135.051 69.0675 134.462 68.7356C133.929 68.4345 133.483 68.0632 133.134 67.6353C132.781 67.2074 132.523 66.7578 132.37 66.2992C132.222 65.8671 132.134 65.5219 132.104 65.2512C132.038 64.6749 132.051 64.1072 132.143 63.5616C132.03 63.6664 131.907 63.7712 131.785 63.8847C130.816 64.7493 129.707 65.64 128.488 66.5308C127.257 67.4302 125.991 68.2553 124.729 68.9759C123.393 69.7357 122.105 70.194 120.895 70.3337C120.795 70.347 120.69 70.3512 120.59 70.3512C119.869 70.3512 119.21 70.0455 118.625 69.4475C118 68.81 117.638 68.0894 117.546 67.3034C117.455 66.5087 117.638 65.5918 118.092 64.5746C118.515 63.6356 119.053 62.7012 119.686 61.8018C120.297 60.9285 120.913 60.0989 121.52 59.3349C122.065 58.645 122.493 58.156 122.825 57.8416C122.847 57.8021 122.869 57.7717 122.895 57.741C123.022 57.5796 123.209 57.479 123.419 57.4574L123.746 57.4179C124.209 57.3613 124.628 57.4703 124.956 57.7368C125.1 57.8503 125.279 58.0687 125.323 58.4354C125.371 58.8501 125.183 59.3216 124.72 59.9591C124.375 60.4265 123.995 60.9592 123.589 61.5356C123.196 62.0945 122.843 62.697 122.541 63.3213C122.275 63.8714 122.179 64.4087 122.244 64.9588C122.293 65.3693 122.45 65.6966 122.725 65.9719C123.039 66.2817 123.271 66.2904 123.419 66.273C124.362 66.164 125.51 65.6138 126.825 64.6399C128.218 63.6095 129.58 62.4438 130.877 61.1775C132.401 59.6972 133.981 58.0554 135.575 56.2914C135.684 56.1691 135.837 56.0905 135.998 56.073C136.501 56.0119 136.946 56.0601 137.33 56.2173C137.684 56.3658 138.129 56.728 138.234 57.61C138.269 57.9069 138.195 58.2562 138.003 58.6754C137.994 58.6929 137.985 58.7149 137.972 58.7323C137.92 58.8239 137.75 59.1865 137.357 60.4702C137.077 61.3826 136.985 62.2779 137.086 63.1337C137.103 63.2863 137.142 63.5047 137.204 63.7841C137.252 64.0199 137.352 64.2731 137.496 64.5309C137.632 64.7667 137.811 64.9676 138.042 65.1377C138.204 65.2558 138.492 65.2994 138.872 65.2512C139.435 65.1859 140.059 65.0154 140.732 64.7493C141.457 64.4611 142.186 64.1467 142.889 63.8103C143.587 63.483 144.26 63.1466 144.88 62.8148C145.474 62.5004 145.971 62.2429 146.321 62.077L147.906 61.2167C148.019 60.7538 148.133 60.291 148.259 59.8194C149.539 55.1082 151.32 50.2395 153.551 45.3537C155.783 40.4633 158.442 35.6252 161.455 30.9706C164.463 26.316 167.646 22.085 170.908 18.3997C174.183 14.7014 177.528 11.6405 180.85 9.30889C184.234 6.93357 187.465 5.61491 190.456 5.39659C192.094 5.27433 193.356 5.55815 194.216 6.23494C195.107 6.93793 195.617 8.37448 195.783 10.6319C195.788 10.6799 195.783 10.7323 195.788 10.7804C196.949 9.86342 198.111 9.01634 199.263 8.26095C202.726 5.99916 206.001 4.79403 208.996 4.67177C210.642 4.60627 211.891 4.93375 212.729 5.64111C213.589 6.3703 214.052 7.80685 214.144 10.0424V10.0817C214.227 12.1863 213.406 14.7189 211.694 17.6051C210.035 20.4127 207.83 23.4473 205.136 26.6304C202.464 29.7917 199.399 33.0621 196.037 36.35C192.67 39.6337 189.269 42.8079 185.92 45.7858ZM172.829 39.4283C174.733 35.9701 176.842 32.5644 179.143 29.259C182.309 24.7092 185.632 20.5873 189.015 17.0112C189.352 16.6575 189.688 16.3126 190.024 15.972C190.793 14.1381 191.137 12.575 191.046 11.3174C191.002 10.7236 190.797 10.2127 190.421 9.75863C190.151 9.43115 189.675 9.26522 189.015 9.26522C188.911 9.26522 188.797 9.26959 188.684 9.27832C186.549 9.43551 184.273 10.3044 181.92 11.8589C179.514 13.4482 177.073 15.5616 174.672 18.1334C172.253 20.7227 169.86 23.7399 167.559 27.102C165.245 30.4859 163.088 34.0751 161.145 37.7735C159.193 41.4892 157.468 45.3055 156.01 49.113C154.814 52.2351 153.822 55.2958 153.058 58.2084C154.648 56.9421 156.49 55.379 158.538 53.5493C161.28 51.0999 164.179 48.3445 167.153 45.3579C169.048 43.4499 170.947 41.4631 172.829 39.4283ZM184.37 43.8296C187.422 40.9611 190.513 37.887 193.548 34.6908C196.556 31.5208 199.29 28.3682 201.678 25.3161C204.049 22.2858 205.974 19.4346 207.402 16.8409C208.791 14.3259 209.459 12.23 209.394 10.6101C209.372 10.0162 209.184 9.49664 208.821 9.02944C208.542 8.67139 208.031 8.488 207.298 8.488C207.237 8.488 207.171 8.488 207.106 8.49237C204.97 8.57533 202.669 9.36565 200.259 10.8459C198.578 11.8807 196.871 13.1601 195.168 14.6577C194.801 15.7755 194.277 16.9676 193.587 18.2338C192.028 21.0894 189.924 24.1983 187.334 27.4731C184.758 30.7305 181.811 34.1013 178.567 37.4897C178.017 38.0617 177.466 38.6293 176.912 39.1969C175.523 41.8386 174.248 44.5195 173.117 47.205C171.816 50.2832 170.72 53.3093 169.86 56.1953C171.497 54.9814 173.392 53.4794 175.493 51.7241C178.318 49.362 181.304 46.7027 184.37 43.8296ZM194.915 41.9084C194.399 42.2273 193.945 42.6332 193.561 43.1094C193.19 43.5722 192.875 44.0742 192.631 44.5939C192.365 45.157 192.229 45.6943 192.225 46.1833C192.225 46.825 192.426 47.3273 192.819 47.6808C193.194 48.0127 193.722 48.1831 194.391 48.1831H194.395C194.971 48.1831 195.535 48.0039 196.059 47.6546C196.534 47.3402 196.971 46.9385 197.355 46.4582C197.722 45.9954 198.036 45.4976 198.285 44.9736C198.552 44.406 198.687 43.8733 198.687 43.3843C198.687 42.1138 197.897 41.3845 196.521 41.3845C196.037 41.3932 195.469 41.5637 194.915 41.9084ZM124.275 51.1348L124.284 51.1261C124.742 50.4711 125.218 49.7941 125.637 49.1001C126.021 48.4626 126.768 47.109 127.069 46.5588C127.44 45.8253 128.205 44.0043 127.301 42.9476C126.681 42.2228 125.567 42.1313 123.891 42.664C123.493 42.7904 122.939 42.9826 122.258 43.2183C119.515 44.1702 114.926 45.7641 109.971 46.7551C109.543 46.8425 109.11 46.9298 108.696 47.0171L108.626 47.0304C107.242 47.3186 105.936 47.5935 104.617 47.7377C101.015 48.1307 98.1987 48.1524 96.5176 48.1611C96.0504 48.1657 95.6487 48.1657 95.3605 48.1786C94.1161 48.2222 93.1075 48.2093 92.3695 48.1395C92.2123 48.122 92.0639 48.1087 91.9504 48.1045C91.7888 48.1 91.6316 48.1087 91.4919 48.1436C91.0465 48.2355 90.8107 48.4755 90.6928 48.6589C90.5094 48.9429 90.4614 49.2876 90.5444 49.6852C90.7452 50.6412 91.2648 51.4446 92.0945 52.0821C92.911 52.7067 94.186 53.0124 95.998 53.0124C96.0286 53.0124 96.0591 53.0124 96.0897 53.0124C96.7185 52.9774 98.203 52.8464 100.626 52.6107C103.024 52.3749 105.905 51.9033 109.193 51.2089C112.154 50.5846 114.756 49.9821 116.935 49.4274C117.581 49.2614 118.223 49.1001 118.847 48.9429L118.948 48.9167C120.314 48.5761 121.729 48.2222 123.083 47.8293C123.118 47.8205 123.153 47.8076 123.187 47.7989C121.939 49.8378 120.432 51.9512 118.454 54.4533C115.983 57.5796 109.971 63.7712 103.102 67.177C100.963 68.2336 98.6222 68.9889 95.9413 69.4824C94.1379 69.8143 92.4176 69.8971 90.8195 69.727C89.2432 69.561 87.7761 69.1111 86.4662 68.3863C85.165 67.666 84.0515 66.6659 83.1608 65.4171C82.2657 64.1684 81.6456 62.6097 81.3094 60.7846C80.7549 57.7805 80.8903 54.6541 81.7068 51.4883C82.532 48.2834 83.8376 45.1396 85.5841 42.1442C87.3394 39.1314 89.4833 36.219 91.9504 33.49C93.4306 31.857 95.0025 30.2764 96.6268 28.7918C97.893 27.7264 99.037 26.8225 100.124 26.0278C103.281 23.7137 106.656 21.6702 110.163 19.9454C113.665 18.2251 117.171 16.9021 120.594 16.007C122.043 15.6271 123.576 15.304 125.148 15.0376C126.694 14.78 128.318 14.5966 129.973 14.4962C130.279 14.5049 130.597 14.5224 130.912 14.5573C130.886 14.601 130.846 14.6577 130.781 14.732C130.436 15.0376 130.126 15.3782 129.864 15.7537C129.515 16.2515 129.392 16.7274 129.506 17.1597C129.628 17.6138 130.065 18.0723 130.899 17.8539C130.951 17.8408 131.003 17.819 131.052 17.7928C131.964 17.2907 132.772 16.7099 133.449 16.055C134.047 15.4699 134.54 14.8237 134.924 14.1338C135.366 13.3434 135.466 12.4833 135.226 11.5707C134.973 10.6057 134.313 9.93328 133.313 9.62763C132.449 9.36128 131.457 9.26522 130.366 9.33945C129.309 9.40931 128.196 9.57087 127.047 9.82412C125.912 10.0686 124.869 10.3175 123.938 10.562C120.245 11.527 116.363 13.0334 112.398 15.042C108.438 17.0462 104.539 19.4258 100.801 22.1155C99.6178 22.967 98.417 23.8883 97.0154 25.0279C96.915 25.0498 96.8145 25.1022 96.7359 25.1677C96.0198 25.7746 95.2863 26.4165 94.496 27.1325L94.2427 27.3378C94.2034 27.3727 94.1685 27.412 94.1423 27.4513C92.4045 29.0407 90.7365 30.6868 89.1864 32.3373C86.0994 35.6208 83.4053 39.0703 81.1784 42.5854C78.9385 46.1134 77.24 49.7068 76.1353 53.2656C75.0175 56.8677 74.7467 60.3217 75.3362 63.5267C76.1003 67.6702 77.9997 70.8535 80.9863 72.9972C83.1564 74.5562 85.7457 75.3463 88.6799 75.3463C89.7759 75.3463 90.9374 75.2328 92.1294 75.0145C94.3475 74.6086 96.6835 73.8618 99.072 72.8009C101.43 71.753 103.853 70.5346 106.281 69.1722C110.626 66.3299 114.424 63.3649 116.446 61.2387C119.179 58.3656 121.485 55.1432 124.004 51.5278L124.275 51.1348Z" fill="#21675F"/>
</g>
</svg>
