<svg width="48" height="24" viewBox="0 0 48 24" fill="none" xmlns="http://www.w3.org/2000/svg">
<g clip-path="url(#clip0_7534_255)">
<path d="M46 0H2C0.89543 0 0 0.89543 0 2V22C0 23.1046 0.89543 24 2 24H46C47.1046 24 48 23.1046 48 22V2C48 0.89543 47.1046 0 46 0Z" fill="white"/>
<path d="M32.9336 11.9727V18.0005H36.2729V14.4285H40.0574C41.6492 14.4173 43.0016 13.3959 43.5136 11.9727H32.9336Z" fill="#A3A3AA"/>
<path d="M32.4883 7.00684C32.6831 9.46822 35.0095 11.4161 37.8478 11.4161C37.859 11.4161 43.6526 11.4161 43.6526 11.4161C43.6971 11.1929 43.7194 10.9585 43.7194 10.7185C43.7194 8.67567 42.0776 7.02358 40.0462 7.00684H32.4883Z" fill="#A3A3AA"/>
<path d="M27.5454 11.3547C27.5843 11.2878 27.6455 11.2487 27.7235 11.2487C27.8348 11.2487 27.9182 11.338 27.9238 11.444V17.9463H31.2631V7.00684H27.9238C27.5008 7.02358 27.0222 7.33056 26.8441 7.71567L24.1894 13.431C24.1838 13.4533 24.1727 13.4757 24.1616 13.498C24.1226 13.5538 24.0558 13.5929 23.9779 13.5929C23.8555 13.5929 23.7553 13.4924 23.7553 13.3696V7.00684H20.416V17.9463H23.7553C24.1727 17.924 24.6402 17.617 24.8183 17.2375L27.5454 11.3715C27.5398 11.3659 27.5454 11.3603 27.5454 11.3547Z" fill="#A3A3AA"/>
<path d="M15.0791 11.5433L13.1256 17.9451H10.7213L8.77339 11.5377C8.75669 11.4372 8.66764 11.3591 8.55633 11.3591C8.43389 11.3591 8.33928 11.4596 8.33928 11.5768V17.9395H5V7H7.86622H8.71773C9.32993 7 9.97553 7.48 10.1537 8.06605L11.7788 13.3963C11.8623 13.6642 11.9903 13.6586 12.0738 13.3963L13.6989 8.06605C13.877 7.47442 14.5226 7 15.1348 7H15.9863H18.8525V17.9395H15.5132V11.5768C15.5132 11.5768 15.5132 11.5768 15.5132 11.5712C15.5132 11.4484 15.413 11.3535 15.2962 11.3535C15.1848 11.3591 15.0958 11.4372 15.0791 11.5433Z" fill="#A3A3AA"/>
</g>
<defs>
<clipPath id="clip0_7534_255">
<rect width="48" height="24" fill="white"/>
</clipPath>
</defs>
</svg>
