<svg width="48" height="24" viewBox="0 0 48 24" fill="none" xmlns="http://www.w3.org/2000/svg">
<g clip-path="url(#clip0_7534_246)">
<path d="M46 0H2C0.89543 0 0 0.89543 0 2V22C0 23.1046 0.89543 24 2 24H46C47.1046 24 48 23.1046 48 22V2C48 0.89543 47.1046 0 46 0Z" fill="white"/>
<path fill-rule="evenodd" clip-rule="evenodd" d="M29.8068 21C34.8843 21 39.0004 16.9706 39.0004 12C39.0004 7.02944 34.8843 3 29.8068 3C24.7293 3 20.6133 7.02944 20.6133 12C20.6133 16.9706 24.7293 21 29.8068 21Z" fill="#A3A3AA"/>
<path fill-rule="evenodd" clip-rule="evenodd" d="M18.1936 21C23.271 21 27.3871 16.9706 27.3871 12C27.3871 7.02944 23.271 3 18.1936 3C13.1161 3 9 7.02944 9 12C9 16.9706 13.1161 21 18.1936 21Z" fill="#C4C4CE"/>
<path fill-rule="evenodd" clip-rule="evenodd" d="M24.0002 5.02148C21.9332 6.67181 20.6133 9.18475 20.6133 11.9995C20.6133 14.8142 21.9332 17.3272 24.0002 18.9775C26.0671 17.3272 27.3871 14.8142 27.3871 11.9995C27.3871 9.18475 26.0671 6.67181 24.0002 5.02148Z" fill="#DBDBE0"/>
</g>
<defs>
<clipPath id="clip0_7534_246">
<rect width="48" height="24" fill="white"/>
</clipPath>
</defs>
</svg>
