<svg width="70" height="24" viewBox="0 0 70 24" fill="none" xmlns="http://www.w3.org/2000/svg">
<g clip-path="url(#clip0_7534_228)">
<path d="M68 0H2C0.89543 0 0 0.89543 0 2V22C0 23.1046 0.89543 24 2 24H68C69.1046 24 70 23.1046 70 22V2C70 0.89543 69.1046 0 68 0Z" fill="white"/>
<path fill-rule="evenodd" clip-rule="evenodd" d="M45.3362 12.4368C46.4394 12.4332 47.5438 12.4368 48.6481 12.4356C48.8091 12.4368 48.9748 12.4214 49.1299 12.4735C49.4222 12.567 49.6838 12.7836 49.7998 13.0712C49.9265 13.3896 49.7927 13.7613 49.5548 13.9909C49.395 14.1436 49.1725 14.2217 48.9535 14.2194C47.7485 14.2205 46.5436 14.2182 45.3386 14.2205C45.3327 13.6263 45.3386 13.031 45.3362 12.4368ZM58.9093 8.85502C59.7283 8.74612 60.5877 9.05269 61.1547 9.65399C61.7204 10.2363 61.9915 11.0862 61.8684 11.8887C61.7524 12.722 61.2115 13.4808 60.4634 13.8654C59.7106 14.2655 58.7637 14.2643 58.0109 13.8654C57.2474 13.4725 56.6994 12.6889 56.5999 11.8343C56.4922 11.0294 56.781 10.1855 57.3587 9.61611C57.7718 9.19946 58.3269 8.92604 58.9093 8.85502ZM22.2147 8.8562C22.7935 8.78045 23.3971 8.9 23.9002 9.19828C24.5642 9.58415 25.0448 10.2683 25.1774 11.0247C25.2898 11.6437 25.1774 12.3018 24.8578 12.8451C24.4577 13.5364 23.7333 14.0312 22.9414 14.1401C22.4088 14.217 21.8536 14.1294 21.3731 13.8867C20.928 13.663 20.5469 13.3127 20.29 12.8866C20.0154 12.438 19.8817 11.9077 19.9053 11.3833C19.9349 10.6021 20.3326 9.84574 20.9576 9.37701C21.3198 9.0953 21.7589 8.91538 22.2147 8.8562ZM45.3374 8.78518C46.3139 8.78637 47.2893 8.784 48.2646 8.78282C48.7168 8.75086 49.1689 9.10004 49.2423 9.54983C49.2861 9.84456 49.1595 10.1535 48.931 10.3441C48.7558 10.4968 48.5215 10.5701 48.2918 10.5701C47.307 10.5701 46.3222 10.5701 45.3374 10.5701C45.3362 9.97476 45.3374 9.37938 45.3374 8.78518ZM42.5523 6.08881C42.5523 9.69897 42.5511 13.3079 42.5546 16.9181C44.671 16.9122 46.7862 16.9169 48.9014 16.9134C49.2399 16.911 49.582 16.9276 49.9182 16.8708C50.5668 16.7737 51.1847 16.4742 51.657 16.0185C52.3518 15.3533 52.7566 14.378 52.6785 13.4133C52.6441 12.8984 52.4796 12.3894 52.1861 11.9633C51.9825 11.6556 51.7114 11.4023 51.4309 11.1655C51.9837 10.3299 52.1174 9.23261 51.7872 8.28805C51.6487 7.88205 51.4143 7.51393 51.1279 7.19553C50.4852 6.48533 49.5276 6.07816 48.5724 6.08999C46.5649 6.09236 44.5586 6.08881 42.5523 6.08881ZM5.00189 6.08881C5.01373 6.74929 4.96401 7.41451 5.06699 8.07025C5.26585 9.40779 5.98788 10.6542 7.0366 11.504C6.42938 11.9976 5.92751 12.6214 5.57952 13.3221C5.20311 14.0738 5.00544 14.913 5.00189 15.7534C5.00189 16.1416 4.99952 16.5299 5.00307 16.9193C5.94527 16.9181 6.88627 16.9193 7.82728 16.9193C7.82728 16.4458 7.82728 15.9735 7.82728 15.5001C7.82728 15.132 7.90185 14.7615 8.05099 14.4241C8.31732 13.8098 8.82511 13.3044 9.44179 13.0416C10.0715 12.7682 10.8077 12.7552 11.4469 13.0061C12.2246 13.3032 12.8401 13.9862 13.0543 14.7911C13.1194 15.0302 13.1478 15.2775 13.1478 15.5249C13.149 15.9901 13.1478 16.4541 13.149 16.9193C14.09 16.9181 15.031 16.9193 15.9732 16.9193C15.9685 16.421 15.9851 15.9215 15.9626 15.4231C15.9223 14.7851 15.7696 14.1543 15.5128 13.5695C15.1624 12.7694 14.6179 12.0556 13.9397 11.5052C14.4487 11.0898 14.8843 10.5855 15.2169 10.0186C15.7081 9.18881 15.9685 8.2265 15.9732 7.263C15.9732 6.87239 15.9732 6.48178 15.9732 6.08999C15.031 6.08999 14.09 6.08999 13.1478 6.08999C13.1466 6.59068 13.1514 7.09255 13.1455 7.59324C13.1301 8.32829 12.7892 9.04677 12.2329 9.52615C11.7914 9.91439 11.2173 10.1488 10.6302 10.1772C9.99575 10.2139 9.35302 10.0115 8.85352 9.61848C8.31495 9.20065 7.94683 8.56976 7.85451 7.89389C7.81781 7.65834 7.82847 7.42042 7.82728 7.18369C7.82728 6.81913 7.82728 6.45456 7.82728 6.08999C6.88627 6.08881 5.94408 6.08999 5.00189 6.08881ZM57.6238 6.24268C56.7372 6.51493 55.9252 7.02035 55.2837 7.6903C54.68 8.31882 54.2291 9.09175 53.9805 9.92741C53.6751 10.9501 53.6763 12.0627 53.9829 13.0842C54.2409 13.9471 54.7155 14.7425 55.3512 15.3805C55.9809 16.015 56.7668 16.4943 57.6202 16.7571C58.985 17.1821 60.5143 17.0459 61.7784 16.376C62.4046 16.0505 62.9562 15.5948 63.4214 15.0657C63.0745 15.706 62.5656 16.2635 61.9394 16.6376C61.9406 16.7311 61.9394 16.8258 61.9406 16.9193C62.8686 16.9193 63.7966 16.9193 64.7246 16.9193C64.7257 15.3864 64.7246 13.8548 64.7246 12.322C64.7198 11.7183 64.7518 11.1087 64.6358 10.5121C64.502 9.7688 64.2109 9.05506 63.7883 8.4289C63.0544 7.33283 61.9157 6.51493 60.6386 6.18113C59.655 5.92073 58.5968 5.94203 57.6238 6.24268ZM34.0477 6.22019C33.1682 6.54097 32.4497 7.19079 31.8946 7.9294C31.4496 8.52596 31.1027 9.18999 30.8293 9.88125C30.3831 11.0211 30.1085 12.2237 29.9605 13.437C29.8173 14.591 29.7924 15.7569 29.7936 16.9181C30.7358 16.9169 31.678 16.9181 32.619 16.9181C32.6237 15.2586 32.6557 13.5731 33.1008 11.9621C33.341 11.1158 33.6654 10.2754 34.2016 9.56876C34.4383 9.27167 34.7307 8.98049 35.113 8.89408C35.4077 8.82779 35.7048 8.95918 35.9309 9.14028C36.2635 9.4066 36.5109 9.76407 36.7204 10.131C37.1536 10.9098 37.4306 11.768 37.6117 12.638C37.8993 14.0454 37.9265 15.4882 37.9313 16.9193C38.8735 16.9193 39.8157 16.9205 40.7578 16.9193C40.7567 16.189 40.7555 15.4586 40.7093 14.7295C40.6407 13.4239 40.4465 12.1207 40.063 10.8696C39.7636 9.88125 39.3576 8.91538 38.7575 8.07025C38.2603 7.36953 37.6271 6.74219 36.847 6.3646C35.9865 5.93967 34.9496 5.88167 34.0477 6.22019ZM21.534 6.09591C20.6617 6.26044 19.8331 6.64513 19.1407 7.20026C18.4139 7.78262 17.8351 8.54963 17.4848 9.41371C17.0799 10.3914 16.9734 11.4875 17.1699 12.5279C17.3368 13.4192 17.7321 14.2667 18.3038 14.9698C18.9111 15.7191 19.7183 16.305 20.6203 16.6459C21.5518 17.001 22.5816 17.0897 23.5617 16.9086C24.7974 16.6826 25.9432 16.0102 26.7492 15.0479C26.4084 15.6989 25.8911 16.26 25.2614 16.6399C25.2626 16.7334 25.2626 16.8281 25.2649 16.9216C26.1917 16.9193 27.1186 16.9205 28.0442 16.9216C28.0442 15.1012 28.0442 13.2807 28.0454 11.4591C28.0406 10.2588 27.6275 9.06453 26.8842 8.12115C26.3113 7.38255 25.5455 6.79309 24.6838 6.4297C23.6978 6.0095 22.5863 5.89587 21.534 6.09591Z" fill="#A3A3AA"/>
</g>
<defs>
<clipPath id="clip0_7534_228">
<rect width="70" height="24" fill="white"/>
</clipPath>
</defs>
</svg>
