<svg width="76" height="24" viewBox="0 0 76 24" fill="none" xmlns="http://www.w3.org/2000/svg">
<g clip-path="url(#clip0_7534_231)">
<path d="M38.8947 17.2952C37.51 17.2952 36.4173 16.8045 35.6167 15.823C34.8161 14.8309 34.416 13.4379 34.416 11.6438C34.416 9.89191 34.8108 8.50941 35.6006 7.49626C36.4012 6.48313 37.5479 5.97656 39.0408 5.97656C39.5602 5.97656 40.0253 6.05044 40.4365 6.19818C40.8477 6.33538 41.1828 6.49368 41.4425 6.67309V8.20863C41.1506 8.02923 40.8044 7.86035 40.404 7.70207C40.0039 7.54376 39.5817 7.4646 39.1383 7.4646C38.1863 7.4646 37.4939 7.8076 37.061 8.49357C36.6284 9.17954 36.4119 10.2296 36.4119 11.6438C36.4119 13.0158 36.6284 14.0553 37.061 14.7624C37.4939 15.4589 38.1538 15.8072 39.0408 15.8072C39.5602 15.8072 40.0092 15.7333 40.3879 15.5855C40.7666 15.4272 41.1181 15.232 41.4425 14.9998V16.5353C41.1938 16.7042 40.8584 16.8731 40.4365 17.0419C40.0146 17.2108 39.5006 17.2952 38.8947 17.2952Z" fill="#A3A3AA"/>
<path d="M42.6641 9.1748H49.0253V17.1374H47.0941V10.6628H44.5949V17.1374H42.6641V9.1748Z" fill="#A3A3AA"/>
<path d="M50.002 15.5069C50.002 15.5069 50.0398 15.5333 50.1156 15.5861C50.1913 15.6283 50.2995 15.6494 50.4403 15.6494C50.7539 15.6494 50.9593 15.4911 51.0569 15.1745C51.154 14.8579 51.2191 14.2774 51.2516 13.4331L51.4137 9.1748H56.9473V17.1374H55.0164V10.6628H53.0527L52.9391 13.5123C52.8959 14.8315 52.7284 15.7918 52.4362 16.3934C52.1439 16.9949 51.587 17.2957 50.7647 17.2957C50.5375 17.2957 50.3535 17.2693 50.2131 17.2166C50.0723 17.1638 50.002 17.1374 50.002 17.1374V15.5069Z" fill="#A3A3AA"/>
<path d="M58.5742 9.1748H60.4565V14.098L63.4423 9.1748H65.1138V17.1374H63.2315V12.2142L60.2454 17.1374H58.5742V9.1748Z" fill="#A3A3AA"/>
<path d="M72.7249 10.6628H70.4529V17.1374H68.5217V10.6628H66.25V9.1748H72.7249V10.6628Z" fill="#A3A3AA"/>
<mask id="mask0_7534_231" style="mask-type:luminance" maskUnits="userSpaceOnUse" x="2" y="4" width="15" height="15">
<path d="M9.6018 4.35156H9.37769C5.3031 4.35156 2 7.62268 2 11.6578C2 15.6929 5.3031 18.9641 9.37769 18.9641H9.6018C13.6764 18.9641 16.9795 15.6929 16.9795 11.6578C16.9795 7.62268 13.6764 4.35156 9.6018 4.35156Z" fill="white"/>
</mask>
<g mask="url(#mask0_7534_231)">
<path fill-rule="evenodd" clip-rule="evenodd" d="M16.9795 4.35156H2V18.9641H16.9795V4.35156ZM12.11 16.0489H10.5452V8.46719H9.84692C8.56668 8.46719 7.8942 9.09794 7.8942 10.0315C7.8942 11.0911 8.35974 11.5831 9.31672 12.2139L10.1055 12.7311L7.82954 16.0489H6.13545L8.1787 13.0843C7.0019 12.2643 6.34236 11.4696 6.34236 10.1197C6.34236 8.42934 7.54504 7.28137 9.83398 7.28137H12.11V16.0489Z" fill="#A3A3AA"/>
</g>
<path d="M27.7228 9.9904L27.6526 9.89762C31.2338 7.09016 30.8359 6.67252 30.8359 6.67252C30.4848 6.30128 30.1103 5.97646 29.7124 5.69803C29.1506 5.30359 28.542 4.97877 27.8866 4.76995C25.1714 3.79546 21.9413 4.56113 19.9985 6.67252C17.4003 9.43356 17.3535 13.8188 19.9751 16.6262C22.7371 19.5729 27.4419 19.7585 30.4146 17.0439L30.4614 16.9975L30.5082 16.9511L30.5316 16.9278C30.5784 16.8814 30.6252 16.835 30.6486 16.7886C31.4913 15.7213 30.2273 12.8211 27.7228 9.9904ZM30.0166 16.255C29.8294 16.4406 29.0336 16.4638 27.7462 15.7909C26.5524 15.1645 25.2182 14.0972 23.9542 12.7979C23.7436 12.9603 27.2546 10.2224 27.0908 10.3617C28.1909 11.6146 29.1272 12.9835 29.6187 14.1204C30.2039 15.4429 30.1805 16.0926 30.0166 16.255Z" fill="#A3A3AA"/>
</g>
<defs>
<clipPath id="clip0_7534_231">
<rect width="71" height="15" fill="white" transform="translate(2 4.06348)"/>
</clipPath>
</defs>
</svg>
